<?xml version="1.0" encoding="utf-8"?>
<!-- Generator: Adobe Illustrator 18.1.1, SVG Export Plug-In . SVG Version: 6.00 Build 0)  -->
<svg version="1.1" id="Layer_1" xmlns="http://www.w3.org/2000/svg" xmlns:xlink="http://www.w3.org/1999/xlink" x="0px" y="0px"
	 viewBox="-7076 7076.2 21 21" enable-background="new -7076 7076.2 21 21" xml:space="preserve">
<path fill="#231F20" d="M-7055.5,7095.7l-3.2-3.1c1.6-1.7,2.6-4,2.6-6.5c0-5.3-4.4-9.6-9.9-9.6c-5.4,0-9.9,4.3-9.9,9.6
	s4.4,9.6,9.9,9.6c2.3,0,4.5-0.8,6.2-2.1l3.2,3.1c0.1,0.1,0.3,0.2,0.5,0.2c0.2,0,0.4-0.1,0.5-0.2
	C-7055.2,7096.5-7055.2,7096-7055.5,7095.7z M-7065.9,7094.2c-4.6,0-8.4-3.6-8.4-8.1s3.7-8.1,8.4-8.1c4.6,0,8.4,3.6,8.4,8.1
	S-7061.3,7094.2-7065.9,7094.2z"/>
</svg>
