<?xml version="1.0" encoding="utf-8"?>
<!-- Generator: Adobe Illustrator 18.1.1, SVG Export Plug-In . SVG Version: 6.00 Build 0)  -->
<svg version="1.1" id="Layer_1" xmlns="http://www.w3.org/2000/svg" xmlns:xlink="http://www.w3.org/1999/xlink" x="0px" y="0px"
	 viewBox="-7011 7067.2 150 39" enable-background="new -7011 7067.2 150 39" xml:space="preserve">
<g>
	<path fill="#231F20" d="M-6986,7097.7l-0.1,0l0,0.1l0,0c-0.1,0-0.1,0-0.2,0.1l0,0l0,0.1c0,0.2,0,0.3,0,0.3c0,0,0,0,0,0l0,0.1l0.2,0
		c0.2,0,0.5-0.1,0.6-0.5l0-0.2l-0.2,0C-6985.9,7097.7-6985.9,7097.7-6986,7097.7z"/>
	<path fill="#231F20" d="M-6982,7086.4l0.1,0l0-0.2c0-0.2-0.1-0.3-0.3-0.3l-0.1,0c0,0,0,0-0.1,0c0,0,0,0,0,0l-0.1,0l0,0l-0.1,0
		l0,0.1c-0.2-0.1-0.4-0.3-0.5-0.5c0.1-0.1,0.2-0.3,0.2-0.4c0-0.1,0-0.1,0.1-0.2l0.1-0.3h-0.2l0,0h-0.1c0,0,0,0-0.1,0l-0.1,0l0,0.1
		c0,0-0.1,0-0.1,0l-0.1,0l-0.1,0c-0.1,0.1-0.2,0.2-0.3,0.3c0,0-0.1,0.1-0.1,0.1l0,0l0,0.1c-0.1,0.5,0.2,0.9,0.5,1.2
		c0.1,0.1,0.1,0.2,0.2,0.2c0,0-0.1,0.1-0.1,0.2l0,0l0,0c0.1,0.2,0.2,0.4,0.4,0.5c0,0,0.1,0.1,0.1,0.1l0.1,0.1l0.1,0
		c0.1,0,0.1,0,0.2,0c0.1,0,0.2,0,0.3,0l0.1-0.1l0-0.1c0,0,0.1-0.1,0.1-0.2l0-0.1l0,0C-6981.7,7086.8-6981.8,7086.6-6982,7086.4z
		 M-6982,7087.2c0,0-0.1,0-0.1,0c-0.1,0-0.1,0-0.2,0c0,0,0,0-0.1-0.1c-0.1-0.1-0.2-0.2-0.2-0.3c0,0,0,0,0-0.1c0,0,0-0.1,0.1-0.1
		l0-0.1l-0.1-0.1c-0.1-0.1-0.2-0.2-0.3-0.4c-0.2-0.2-0.4-0.5-0.4-0.8c0,0,0,0,0,0l0,0.1c0.1,0.4,0.4,0.7,0.7,0.9
		c0,0.1,0.1,0.2,0.1,0.2C-6982.2,7086.8-6982.1,7086.9-6982,7087.2C-6982,7087.1-6982,7087.2-6982,7087.2z"/>
	<path fill="#231F20" d="M-6981.6,7099.2h-0.1c-0.3,0-0.4,0.2-0.5,0.4c0,0-0.1,0.1-0.1,0.1c0,0-0.1,0.1-0.1,0.1
		c-0.1,0.1-0.1,0.2-0.2,0.2c0,0-0.1,0-0.1,0c-0.1,0-0.1,0-0.2,0.1c-0.4,0.2-0.5,0.6-0.6,0.9c-0.3,0.1-0.4,0.4-0.5,0.6l-0.1,0.1
		l0.1,0.1c0.1,0.1,0.3,0.2,0.5,0.2c0.4,0,0.8-0.3,1-0.5l0-0.1v-0.2l0.1-0.1c0.5-0.4,1.1-0.9,0.9-1.9L-6981.6,7099.2z M-6982.7,7101
		l-0.2,0.2v0.2c-0.2,0.2-0.6,0.4-0.9,0.3c0.1-0.2,0.2-0.2,0.3-0.3l0.1,0l0-0.1c0.1-0.3,0.2-0.6,0.5-0.8c0,0,0.1,0,0.1,0
		c0.1,0,0.1,0,0.2-0.1c0.1-0.1,0.2-0.2,0.3-0.3c0,0,0.1-0.1,0.1-0.1c0-0.1,0.1-0.1,0.1-0.2c0-0.1,0.1-0.1,0.1-0.2
		C-6981.8,7100.3-6982.2,7100.6-6982.7,7101z"/>
	<polygon fill="#231F20" points="-6927.3,7079.2 -6929.1,7077.4 -6936.4,7077.4 -6938.2,7079.2 -6938.2,7084.6 -6936.4,7086.3 
		-6929.1,7086.3 -6927.3,7084.6 -6927.3,7081 -6932.8,7081 -6934.6,7082.8 -6929.1,7082.8 -6929.1,7084.6 -6936.4,7084.6 
		-6936.4,7079.2 	"/>
	<polygon fill="#231F20" points="-6949.1,7084.6 -6949.1,7082.8 -6941.9,7082.8 -6941.9,7081 -6949.1,7081 -6949.1,7079.2 
		-6940.1,7079.2 -6941.9,7077.4 -6951,7077.4 -6951,7086.3 -6941.9,7086.3 -6940.1,7084.6 	"/>
	<path fill="#231F20" d="M-6900.6,7081v-1.8l-1.8-1.8h-9.1v9h1.8l0-3.6h7.3L-6900.6,7081z M-6909.7,7079.2h7.3v1.8h-7.3V7079.2z"/>
	<polygon fill="#231F20" points="-6870.1,7081 -6870.1,7079.2 -6861,7079.2 -6862.8,7077.4 -6870.1,7077.4 -6871.9,7079.2 
		-6871.9,7081 -6870.1,7082.7 -6862.9,7082.7 -6862.9,7084.5 -6871.9,7084.5 -6870.1,7086.3 -6862.8,7086.3 -6861,7084.5 
		-6861,7082.7 -6862.8,7081 	"/>
	<polygon fill="#231F20" points="-6884.1,7084.5 -6884.1,7077.4 -6886,7077.4 -6886,7086.3 -6876.9,7086.3 -6878.7,7084.5 	"/>
	<rect x="-6875.6" y="7077.4" fill="#231F20" width="1.8" height="9"/>
	<path fill="#231F20" d="M-6887.8,7079.2l-1.8-1.8h-7.3l-1.9,1.8v5.4l1.9,1.8h7.3l1.8-1.8V7079.2z M-6889.6,7084.5h-7.3v-5.4h7.3
		V7084.5z"/>
	<path fill="#231F20" d="M-6923.1,7077.4l-1.8,1.8v7.2h1.8v-3.6h7.3v3.6h1.8v-7.2l-1.9-1.8H-6923.1z M-6915.8,7080.9h-7.3v-1.8h7.3
		V7080.9z"/>
	<polygon fill="#231F20" points="-6963.1,7077.4 -6964.9,7079.2 -6964.9,7086.3 -6963.1,7086.3 -6963.1,7079.2 -6960.1,7079.2 
		-6960.1,7086.3 -6958.2,7086.3 -6958.2,7079.2 -6955.2,7079.2 -6955.2,7086.3 -6953.4,7086.3 -6953.4,7079.2 -6955.2,7077.4 	"/>
	<path fill="#231F20" d="M-6992.3,7075.3L-6992.3,7075.3l-0.1,0.1c-0.1,0.3,0.1,0.5,0.2,0.6c0.1,0.1,0.1,0.1,0.1,0.2l0.1,0.1l0.1,0
		c0.2,0,0.6-0.1,0.7-0.4c0,0,0,0,0,0l0.2,0.1l0.1-0.1c0-0.1,0.1-0.1,0.1-0.1c0.1-0.1,0.1-0.1,0.2-0.2l0.1-0.2l-0.3-0.1
		c-0.3-0.1-0.6-0.1-0.7,0.1c-0.1,0-0.1-0.1-0.2-0.1l-0.1,0l-0.1,0c-0.1,0-0.1,0-0.2,0C-6992.1,7075.2-6992.2,7075.3-6992.3,7075.3z
		 M-6991.7,7075.5c0.1,0.1,0.2,0.1,0.3,0.2c0,0.1-0.1,0.2-0.3,0.2c0-0.1-0.1-0.1-0.1-0.2c-0.1-0.1-0.1-0.2-0.1-0.2
		c0.1,0,0.1,0,0.2,0C-6991.8,7075.5-6991.8,7075.5-6991.7,7075.5z"/>
	<path fill="#231F20" d="M-6996.9,7080.9l-0.1-0.1l-0.1,0.1c-0.1,0.1-0.1,0.1-0.2,0.2c-0.2,0.2-0.5,0.4-0.7,0.7l0,0.1l0,0.1
		c0.1,0.1,0.1,0.2,0.2,0.3l0.1,0.1l0.1,0c0.3-0.1,0.9-0.5,0.9-1C-6996.6,7081.2-6996.6,7081-6996.9,7080.9z M-6997.5,7081.9
		C-6997.5,7081.9-6997.6,7081.9-6997.5,7081.9c0.1-0.3,0.3-0.4,0.5-0.6c0,0,0.1-0.1,0.1-0.1c0,0,0,0.1,0,0.1
		C-6996.9,7081.5-6997.3,7081.8-6997.5,7081.9z"/>
	<path fill="#231F20" d="M-6996.6,7078c-0.1-0.1-0.2-0.3-0.4-0.4c-0.1,0-0.3-0.1-0.4-0.1c-0.2,0-0.3,0-0.4-0.1l-0.2-0.1l-0.1,0.2
		c0,0,0,0.1-0.1,0.1c0,0.1-0.1,0.2-0.1,0.3l0,0.1l0,0c0.1,0.3,0.3,0.5,0.6,0.6l0.1,0l0.1,0c0.2-0.1,0.5-0.2,0.9-0.3l0.3-0.1
		L-6996.6,7078C-6996.6,7078.1-6996.6,7078.1-6996.6,7078z M-6997.6,7078.3c-0.1-0.1-0.3-0.2-0.3-0.3c0,0,0-0.1,0.1-0.1h0
		c0.1,0,0.3,0.1,0.4,0.1s0.2,0,0.3,0.1c0.1,0,0.1,0.1,0.2,0.1C-6997.2,7078.2-6997.4,7078.2-6997.6,7078.3z"/>
	<path fill="#231F20" d="M-6985.5,7074.2l0,18.1l-18.4,0c0,0,1.6,13.8,20.8,10.9c-1.4,0.1-2.6,0.1-3.8,0.1c0.3-0.1,0.5-0.3,0.7-0.5
		c0.1-0.1,0.1-0.1,0-0.2c0.1-0.1,0.3-0.2,0.5-0.3l0.1-0.1l0-0.1c0-0.1,0-0.2,0.1-0.3c0,0,0,0,0-0.1c0.2-0.1,0.3-0.2,0.5-0.3
		c0.4-0.2,0.8-0.4,1.1-0.8l0-0.1l0-0.1c0-0.2,0-0.5-0.1-0.7c0-0.4,0-0.7-0.1-1c0.1-0.1,0.2-0.2,0.2-0.3c0.1-0.1,0.2-0.3,0.3-0.4
		c0,0,0.1-0.1,0.2-0.1c0.1,0,0.2-0.1,0.3-0.2c0.1-0.1,0.3-0.3,0.4-0.5c0.2-0.2,0.3-0.4,0.5-0.6l0.1-0.1c0.2-0.2,0.5-0.4,0.6-0.6
		c0.1-0.1,0.1-0.2,0.1-0.3c0-0.1,0-0.1,0-0.2c0-0.1,0.1-0.2,0.2-0.4l0.1-0.1c0-0.1,0.1-0.1,0.1-0.2c0.1-0.2,0.3-0.4,0.1-0.7l0-0.1
		l-0.1,0c-0.1,0-0.2,0-0.4,0l0,0l0,0c-0.1,0-0.3,0.1-0.5,0.3c-0.3,0.2-0.7,0.4-0.9,0.3c0.3-0.1,0.6-0.3,0.9-0.5l0.1-0.1
		c0.1-0.1,0.3-0.2,0.4-0.2c0.2-0.1,0.4-0.2,0.5-0.4c0.1-0.1,0.2-0.2,0.2-0.3c0.1-0.1,0.1-0.2,0.2-0.2c0.1,0,0.2-0.1,0.3-0.1
		c0.3-0.1,0.5-0.2,0.7-0.5l0-0.1c0-0.4,0.1-0.8,0.3-1.1l0.1-0.3l-0.1-0.1c0,0-0.1-0.1-0.1-0.2c0-0.1-0.1-0.2-0.2-0.3
		c-0.1-0.1-0.2-0.1-0.2-0.1c0,0-0.1,0-0.1,0c0.2,0,0.4,0,0.7,0l0.1,0l0.1-0.1c0.2-0.2,0.4-0.4,0.7-0.6c0,0,0,0,0,0l0,0.1l0.1,0
		c0.3,0,0.4,0.1,0.6,0.3c0.1,0.1,0.2,0.2,0.3,0.2l0.1,0l0.1,0c0.1,0,0.1-0.1,0.2-0.1c0.1,0.2,0.2,0.5,0.2,0.8l0,0.2l0,0.1
		c0,0.1,0.1,0.1,0.2,0.2c0,0,0.1,0,0.1,0.1c0,0,0,0.1,0,0.1c0,0.1,0,0.1,0,0.2l0,0.1l0.1,0.1c0,0,0.1,0.1,0.1,0.1
		c0.1,0.1,0.2,0.2,0.2,0.3l0,0.1l0.1,0c0,0,0.1,0,0.1,0c0,0,0.1,0,0.1,0c0,0,0,0,0,0l0.3,0.1l0-0.1c0,0,0,0.1,0,0.1
		c0,0.1,0,0.1,0.1,0.2l0.1,0.3l0.2-0.2c0.3-0.3,0.3-1,0.1-1.3l-0.1-0.1c0-0.2,0-0.3,0-0.5c0-0.1,0-0.2,0-0.3c0-0.1,0-0.2,0-0.3
		c0-0.2,0.1-0.4,0.2-0.7c0.1-0.1,0.1-0.3,0.2-0.4c0-0.1,0-0.2,0-0.3c0.2,1.8,0.3,3.9,0.1,6.2
		C-6971.5,7075.8-6985.5,7074.2-6985.5,7074.2z M-6983.6,7076.2L-6983.6,7076.2c0,0.1,0,0.2,0.1,0.4c0,0.1,0,0.3,0.1,0.4
		c0,0,0,0.1,0,0.1l0,0.1l0,0.1c0,0.1,0.1,0.1,0.1,0.1c-0.1,0.1-0.1,0.1-0.3,0.1l-0.3-0.1l0.1,0.2c0,0-0.1-0.1-0.1-0.1l-0.3-0.1
		l0,0.3c0,0.4,0.2,0.6,0.3,0.8c0,0,0.1,0.1,0.1,0.1c-0.1,0-0.2,0-0.3,0l-0.1,0l-0.1,0c-0.1,0-0.1,0.1-0.2,0.1v-2.7
		C-6984.2,7076-6983.9,7076.1-6983.6,7076.2z M-6984.5,7092.5c0.1,0.1,0.2,0.2,0.3,0.3c0.2,0.1,0.3,0.3,0.5,0.4
		c0,0.2,0.1,0.3,0.1,0.4c0,0,0,0.1,0,0.1c0,0-0.1,0-0.1,0l0,0c-0.1-0.1-0.1-0.1-0.2-0.2l0-0.1l-0.1,0c-0.2-0.1-0.4-0.2-0.5-0.4
		V7092.5z M-7002,7093.6h2.3c0.1,0.2,0.2,0.3,0.3,0.4c0.1,0.1,0.2,0.2,0.3,0.3c0,0.1,0,0.1,0.1,0.2c0,0.1,0,0.2,0.1,0.4
		c0.1,0.2,0.3,0.4,0.5,0.6l0,0c0,0,0.1,0.1,0.1,0.1c0.1,0.1,0.3,0.3,0.4,0.4c0.3,0.2,0.6,0.2,1,0.2c0.2,0,0.3,0,0.5,0.1
		c0.1,0,0.2,0.1,0.3,0.1c0.2,0.1,0.4,0.1,0.6,0.1l0.1,0c0.1,0,0.2,0,0.3-0.1c0.1,0,0.3-0.1,0.4-0.1c0.1,0,0.1,0,0.2,0.1
		c0.1,0,0.2,0.1,0.3,0.1c0.2,0.3,0.6,0.4,1.1,0.4l0.1,0c0.1,0.1,0.1,0.1,0.2,0.2c-0.2,0.3-0.3,0.6-0.3,0.9l0,0.1l0.1,0.1
		c0.4,0.3,0.7,0.8,1,1.1c0.2,0.2,0.3,0.4,0.5,0.6c-0.1,0.1-0.1,0.3-0.1,0.5c0,0,0,0,0,0c-0.1,0-0.2,0.1-0.3,0.2c0,0.1,0,0.2,0,0.4
		c0,0.1,0,0.2,0,0.3l-0.1,0.1l0.1,0.1c0.1,0.2,0.2,0.3,0.4,0.4c0.1,0.1,0.3,0.2,0.3,0.3c0,0.1,0.1,0.1,0.1,0.2c0,0.1,0,0.1,0.1,0.2
		C-6999,7101-7001.3,7096-7002,7093.6z M-6982.8,7094.9c0.3,0,0.7-0.2,1-0.4c0.1-0.1,0.3-0.2,0.4-0.2c0.1,0,0.2,0,0.2,0
		c0,0.1,0,0.2-0.1,0.3c0,0.1-0.1,0.1-0.1,0.2l-0.1,0.1c-0.1,0.1-0.1,0.3-0.2,0.4c0,0.1,0,0.2-0.1,0.3c0,0.1,0,0.2-0.1,0.2
		c-0.1,0.2-0.3,0.3-0.5,0.5l-0.1,0.1c-0.2,0.2-0.4,0.4-0.6,0.6c-0.1,0.2-0.3,0.3-0.4,0.4c0,0-0.1,0.1-0.2,0.1
		c-0.1,0-0.2,0.1-0.2,0.1c-0.2,0.1-0.3,0.3-0.4,0.5c-0.1,0.1-0.2,0.2-0.3,0.3l-0.1,0.1l0,0.1c0.1,0.3,0.1,0.6,0.1,1
		c0,0.2,0,0.5,0.1,0.7c-0.2,0.3-0.5,0.4-0.9,0.6c-0.2,0.1-0.4,0.2-0.6,0.4l0,0l0,0c0,0,0,0.1,0,0.1c-0.1,0.1-0.1,0.2-0.1,0.4
		c-0.2,0.1-0.4,0.3-0.5,0.4c0,0.1,0,0.1,0,0.2c-0.2,0.2-0.4,0.3-0.8,0.5l-0.3,0c-1,0-2-0.1-2.9-0.2c-0.1,0-0.2,0-0.3-0.1
		c-0.1-0.1-0.2-0.1-0.2-0.2c0-0.1-0.1-0.1-0.1-0.2c0-0.1,0-0.1-0.1-0.2c-0.1-0.2-0.3-0.3-0.4-0.5c-0.1-0.1-0.2-0.1-0.3-0.2
		c0-0.1,0-0.3,0-0.4c0-0.1,0-0.2,0-0.2c0,0,0,0,0.1-0.1c0.1,0,0.1-0.1,0.2-0.1l0.1-0.1l0-0.1c0-0.2,0-0.3,0.1-0.5l0.1-0.1l-0.1-0.1
		c-0.2-0.2-0.4-0.5-0.6-0.7c-0.3-0.4-0.6-0.8-1-1.1c0-0.2,0.1-0.5,0.3-0.7l0.1-0.1l-0.1-0.1c-0.1-0.2-0.2-0.3-0.4-0.4l-0.1,0l-0.2,0
		c-0.5,0-0.7-0.1-0.9-0.3l0-0.1l-0.1,0c-0.1,0-0.1,0-0.2-0.1c-0.1-0.1-0.2-0.1-0.3-0.1c-0.2,0-0.4,0-0.5,0.1c-0.1,0-0.2,0-0.3,0
		l-0.1,0c-0.2,0-0.4-0.1-0.5-0.1c-0.1,0-0.2-0.1-0.3-0.1c-0.2,0-0.4-0.1-0.5-0.1c-0.3,0-0.6-0.1-0.9-0.2c-0.1-0.1-0.2-0.2-0.3-0.3
		c0-0.1-0.1-0.1-0.2-0.2l-0.1,0c-0.1-0.1-0.3-0.3-0.4-0.4c0-0.1,0-0.2-0.1-0.3c0-0.1,0-0.2-0.1-0.4c-0.1-0.2-0.2-0.3-0.4-0.4
		c0,0-0.1-0.1-0.1-0.1h14.9v-0.1c0.1,0.1,0.2,0.2,0.4,0.2c0.1,0.1,0.1,0.2,0.2,0.2l0.1,0.1l0.1,0c0.1,0,0.2,0,0.3,0l0.3,0.1
		c0,0,0,0,0,0l-0.1,0v0.4l0.1,0.1C-6983,7094.9-6982.9,7094.9-6982.8,7094.9z M-6974.8,7087.7
		C-6974.8,7087.7-6974.8,7087.8-6974.8,7087.7l0,0.2c0,0.1,0,0.1-0.1,0.2c0,0.1-0.1,0.1-0.1,0.2c0,0.1,0,0.2,0,0.3
		c0,0.1,0,0.2,0,0.2c-0.1,0.2-0.1,0.3-0.2,0.4c-0.1,0.3-0.2,0.5-0.2,0.8c0,0.1,0,0.3,0,0.4c0,0.1,0,0.2,0,0.3c0,0.5-0.1,0.9-0.3,1.3
		c0,0-0.1,0-0.1,0c-0.1-0.2-0.2-0.3-0.3-0.4l0,0c0-0.1,0-0.1,0-0.2c0,0,0-0.1,0-0.1v-0.1l0,0c0-0.1-0.1-0.1-0.2-0.2
		c0,0-0.1,0-0.1-0.1l0-0.2c-0.1-0.4-0.1-0.9-0.5-1.1l-0.1,0l-0.1,0c-0.1,0-0.1,0.1-0.2,0.1c-0.1,0-0.1-0.1-0.2-0.1
		c-0.2-0.1-0.4-0.3-0.7-0.4l0-0.2l-0.2,0.1c-0.4,0.1-0.7,0.4-1,0.6c-0.4-0.1-0.7-0.1-1,0.1l-0.1,0l0,0l-0.2,0
		c-0.2,0-0.4,0.1-0.6,0.1c-0.2-0.1-0.4-0.3-0.6-0.5c-0.1-0.1-0.1-0.1-0.2-0.2l-0.2-0.2l0,0.3c0,0,0,0,0,0c0,0-0.1,0-0.1,0l-0.1,0.1
		l0,0.1c0,0-0.1,0.1,0,0.2l0,0.1l0.1,0c0.2,0.1,0.3,0.2,0.4,0.4c0.2,0.2,0.4,0.4,0.7,0.5l0,0l0,0c0.1,0,0.2,0,0.3-0.1
		c0.1,0,0.2,0,0.2-0.1l0.1,0l0-0.1c0.1-0.2,0.1-0.3,0.1-0.6l0,0c0,0.3,0.2,0.4,0.4,0.4c0.1,0,0.1,0,0.1,0.1c0.1,0,0.1,0.1,0.1,0.2
		c0,0.1,0.1,0.1,0.1,0.2l0,0.1c-0.1,0.4-0.3,0.7-0.3,1.2c-0.1,0.2-0.3,0.3-0.5,0.3c-0.1,0-0.2,0.1-0.3,0.1c-0.2,0.1-0.3,0.2-0.3,0.4
		c-0.1,0.1-0.1,0.2-0.2,0.2c-0.1,0.1-0.3,0.2-0.5,0.3c-0.1,0.1-0.3,0.2-0.4,0.3l-0.1,0.1c-0.3,0.2-0.6,0.4-0.9,0.5l-0.1-0.3
		c0-0.1-0.1-0.3-0.1-0.4c0-0.1-0.1-0.3-0.1-0.5l0-0.1l0,0c-0.2-0.2-0.3-0.3-0.5-0.5c-0.2-0.2-0.4-0.3-0.5-0.5v-12.7l0.1,0l0-0.1
		c0-0.1,0.1-0.2,0.2-0.2c0.2,0.1,0.5,0,0.7-0.1l0.1-0.1l-0.1-0.1c-0.1-0.1-0.1-0.2-0.2-0.3c-0.1-0.1-0.1-0.2-0.2-0.2
		c0.1,0.1,0.3,0.2,0.4,0.2l0.3,0.1l0-0.3c0-0.1-0.1-0.2-0.1-0.3c0.1-0.1,0.2-0.1,0.2-0.2c0-0.1,0.1-0.1,0.1-0.1l0.2-0.1l-0.2-0.2
		c-0.1-0.1-0.1-0.1-0.2-0.1l0,0c-0.1-0.1-0.1-0.3-0.1-0.5c0,0,0-0.1,0-0.1c0.7,0.2,1.4,0.6,2.2,1c2.3,1.5,4.9,4.2,6,9.1
		C-6974.9,7087-6974.9,7087.3-6974.8,7087.7z M-6980.7,7090.2c0,0,0,0.1,0,0.1c-0.1,0-0.1,0-0.2,0c-0.1,0-0.1,0-0.2,0
		c-0.2-0.1-0.4-0.2-0.5-0.4c0.1,0.1,0.3,0.2,0.4,0.3l0.1,0l0.1,0C-6981,7090.2-6980.8,7090.2-6980.7,7090.2z"/>
	<path fill="#231F20" d="M-6978.2,7072.4c-4.7-4-11-6-15-4.8l0,0.7c0,0-0.1,0.1-0.4,0.1l0,0l0,0c-4.1,0.6-7.8,2.5-10.8,5.4
		c-2.9,2.9-4.8,6.6-5.4,10.6l0,0l0,0c0,0.1-0.1,0.4-0.1,0.4l-0.7-0.1c-1.3,4,0.8,10.2,4.8,14.7c2.7,3,8.5,7.9,17.6,6.4
		c4.2-0.6,8.1-2.4,11.1-5.4c3-3,4.9-6.7,5.5-10.8c0.2-1.1,0.3-2.2,0.3-3.3C-6971.4,7079.3-6975.5,7074.7-6978.2,7072.4z
		 M-6993.6,7088.1C-6993.6,7088.1-6993.6,7088.1-6993.6,7088.1c-0.1-0.1-0.1-0.2-0.1-0.3c0-0.1,0-0.2,0-0.3c0-0.1-0.1-0.2-0.1-0.3
		c-0.1-0.1-0.1-0.2-0.1-0.3l0-0.1l0,0l0-0.4c0-0.1,0-0.1,0.1-0.2c0.1-0.1,0.2-0.3,0-0.5l0-0.1c0,0-0.1,0-0.1-0.1l0,0
		c0.1,0,0.1-0.1,0.1-0.2c0,0,0,0,0,0c0,0,0.1,0.1,0.1,0.1c0.1,0.1,0.1,0.1,0.2,0.2c0.1,0.1,0.2,0.2,0.3,0.2c0.1,0,0.2,0.1,0.3,0.1
		c0.1,0,0.3,0.1,0.3,0.2c0,0.1,0,0.2,0,0.3c-0.2-0.1-0.3-0.1-0.5,0c0,0-0.1-0.1-0.2-0.1l-0.1,0l0,0.1c0,0,0,0.1,0,0.1
		c0,0,0,0.1,0,0.1l-0.1,0.2l0.2,0.1c0.2,0.1,0.3,0.2,0.5,0.3l0.3,0.2l0.1-0.2c0-0.1,0.1-0.2,0.1-0.2h0.1c0.1,0,0.2,0,0.2-0.1l0.1,0
		l0-0.1c0-0.1,0-0.2,0-0.3c0,0,0-0.1,0-0.1c0,0,0.1,0,0.1,0l0.2,0l0-0.1c0,0,0,0,0,0c0.1,0.1,0.2,0.1,0.2,0.2c0.1,0,0.1,0.1,0.2,0.1
		c0,0.1,0.1,0.2,0.1,0.3c0,0.2,0.1,0.3,0.2,0.5l0.1,0.1l0.1,0c0,0,0,0,0.1,0c0,0,0.1,0,0.2,0.1l0.1,0l0.1-0.1c0,0,0.1,0,0.2,0
		c0,0.1,0,0.1,0,0.2c0,0,0,0,0,0.1l0,0.2h0.2c0.1,0,0.1,0,0.2,0l0.1,0.1c0,0,0,0.1,0,0.1C-6991,7088.1-6992.3,7088.1-6993.6,7088.1z
		 M-6996,7080.9c-0.1-0.1-0.1-0.1-0.2-0.2c0.1-0.1,0.2-0.3,0.3-0.2c0,0.2,0,0.3,0,0.5c0,0.2-0.1,0.4,0,0.7c0,0.1,0.1,0.2,0.2,0.3
		c0.1,0.1,0.1,0.2,0.1,0.3c-0.1,0.1-0.3,0.1-0.5,0.2c-0.2,0-0.4,0.1-0.5,0.2c0,0,0,0-0.1,0c0,0,0,0-0.1,0c0.1-0.1,0.1-0.2,0.2-0.3
		c0.2-0.4,0.5-0.7,0.6-1.3L-6996,7080.9L-6996,7080.9z M-6995.6,7082.8c-0.1,0.1-0.2,0.1-0.3,0.1c-0.1,0-0.1,0-0.2,0l-0.1,0
		c0.1,0,0.1,0,0.2,0C-6995.9,7082.8-6995.8,7082.8-6995.6,7082.8z M-6996.4,7084.3L-6996.4,7084.3L-6996.4,7084.3
		c0-0.4-0.1-0.6-0.2-0.8c0-0.1,0-0.1-0.1-0.2c0.1,0,0.2,0,0.3,0l0.2,0c0.1,0,0.2,0,0.2,0c0.3-0.1,0.5-0.3,0.7-0.5
		c0.1-0.1,0.2-0.2,0.3-0.3c0.1,0,0.2-0.1,0.3-0.1c0.1,0,0.3-0.1,0.5-0.2c0,0,0,0,0.1,0c0,0,0.1,0,0.1,0l0.1,0l0.1-0.1
		c0.1-0.1,0.1-0.3,0.2-0.5c0-0.1,0-0.1,0-0.2c0,0,0,0.1,0.1,0.1c0,0,0,0,0,0.1c-0.1,0-0.2,0.1-0.2,0.2l0,0.1l0,0.1
		c0.1,0.2,0.4,0.2,0.7,0.2c0.1,0,0.2,0,0.2,0c0,0,0.1,0,0.1,0c0.1,0,0.1,0,0.3,0c0.2,0,0.4-0.1,0.5-0.2c0.2-0.1,0.3-0.1,0.5-0.1
		l0.2,0l0-0.2c0,0,0-0.1,0-0.1c0-0.3,0.1-0.4,0.2-0.4c0,0,0,0,0,0l0.1,0l0.1-0.1c0.1-0.2,0.1-0.5,0.1-0.7l0-0.1l-0.1,0
		c-0.2-0.1-0.4-0.2-0.4-0.4c0,0,0,0,0.1-0.1c0.2-0.2,0.4-0.4,0.5-0.8l0-0.2l-0.2,0c-0.3,0-0.4,0.2-0.6,0.3l-0.1,0.1
		c0,0-0.1,0.1-0.1,0.1c-0.2,0.1-0.3,0.3-0.4,0.6c0,0.2,0,0.4,0.1,0.5h0l0,0.2c0.1,0.3-0.1,0.5-0.5,0.7c0,0-0.1,0.1-0.1,0.1
		c-0.1,0-0.2,0-0.3,0l0,0c-0.1-0.2-0.2-0.3-0.3-0.5c-0.1-0.1-0.1-0.2-0.2-0.3l0-0.1l-0.1,0c-0.2,0-0.4-0.1-0.6-0.1
		c0-0.3,0-0.5,0.2-0.8c0.5-0.2,1-0.4,1.2-0.9c0.2-0.1,0.4-0.2,0.5-0.3c0.1-0.1,0.2-0.2,0.4-0.2l0.1,0l0-0.1c0.1-0.2,0.3-0.4,0.7-0.4
		l0.1,0c0.2,0,0.4-0.1,0.6,0c0.2,2.3,0.2,5,0.3,8.2l-0.2,0c-0.1,0-0.5,0-0.6,0.3l0,0.1l0,0.1c0,0.2,0.1,0.3,0.2,0.5c0,0,0,0,0,0l0,0
		l0,0.1c0,0.1,0,0.1,0,0.1c0,0,0,0,0,0c0,0-0.1-0.1-0.2-0.1c0,0,0,0,0,0c0-0.1-0.1-0.2-0.1-0.3c0-0.1-0.1-0.3-0.1-0.4
		c-0.1-0.1-0.2-0.2-0.3-0.2c-0.1-0.1-0.2-0.1-0.2-0.2c0,0,0,0,0-0.1c0,0,0.1-0.1,0.1-0.1l0-0.1l0-0.1c-0.1-0.3-0.4-0.4-0.6-0.5
		c-0.1,0-0.2-0.1-0.3-0.1c0,0-0.1-0.1-0.1-0.1c-0.1-0.1-0.1-0.2-0.3-0.2c-0.1,0-0.2,0-0.3-0.1c-0.1,0-0.1,0-0.2,0l-0.2-0.1l0,0.3
		c0,0.1,0.1,0.3,0.1,0.4c0,0,0,0.1,0.1,0.2l0,0.1l0.1,0c0.1,0,0.1,0.1,0.2,0.1c0.2,0.1,0.4,0.2,0.5,0.4l0,0.1l0.1,0c0,0,0.1,0,0.1,0
		c-0.1,0.1-0.1,0.1-0.1,0.2c0,0,0-0.1,0-0.1l0-0.1c-0.1-0.2-0.3-0.3-0.5-0.3c-0.1,0-0.2-0.1-0.2-0.1c-0.1,0-0.1-0.1-0.2-0.2
		c-0.1-0.1-0.1-0.1-0.2-0.2c-0.1,0-0.1-0.1-0.2-0.1c-0.2-0.1-0.2-0.2-0.3-0.3l0-0.2l-0.2,0c-0.1,0-0.2,0-0.3,0.1
		c-0.2,0.1-0.4,0.1-0.7,0.1c-0.1,0-0.3,0-0.4,0c-0.2,0-0.3,0.2-0.3,0.3c0,0.1-0.1,0.1-0.1,0.2c-0.1,0-0.1,0.1-0.2,0.1
		c-0.1,0-0.2,0-0.3,0.1l0,0l-0.1,0.1c-0.1,0.2-0.2,0.4-0.4,0.5c0,0-0.1,0-0.2,0c-0.1,0-0.2,0-0.2,0l0,0c-0.1,0-0.3,0.1-0.5,0.1
		c-0.1,0-0.3-0.1-0.4-0.2c-0.1-0.1-0.2-0.2-0.4-0.3c0-0.3,0-0.5,0.1-0.7c0.1-0.2,0.3-0.4,0.4-0.6l0-0.1c0.1,0,0.2,0,0.4,0.1
		c0.2,0,0.5,0.1,0.7,0.1C-6996.8,7084.7-6996.5,7084.6-6996.4,7084.3z M-6991.3,7080.7c0-0.1-0.1-0.1-0.1-0.2
		c-0.1-0.2-0.2-0.3-0.1-0.4c0-0.1,0.1-0.2,0.1-0.2l0,0.1c0.1,0.3,0.3,0.6,0.6,0.7c0,0.1,0,0.2,0,0.3c-0.4,0-0.5,0.4-0.5,0.7
		c-0.2,0-0.3,0.1-0.5,0.2c-0.1,0.1-0.3,0.1-0.4,0.1c0,0-0.1,0-0.2,0c0,0-0.1,0-0.1,0c0.1,0,0.1,0,0.2,0l0.1,0l0.1-0.1
		c0.1,0,0.1-0.1,0.2-0.1c0.2-0.2,0.6-0.4,0.6-0.8h0.2L-6991.3,7080.7z M-6990.1,7086.9c-0.1-0.1-0.2-0.3-0.2-0.5
		c0,0,0.1-0.1,0.3-0.1l0.2,0c0,0.4,0,0.8,0,1.2c0,0-0.1,0-0.1-0.1c0,0,0,0-0.1,0l0,0c0-0.1,0-0.2-0.1-0.2c0,0,0-0.1,0-0.1
		L-6990.1,7086.9L-6990.1,7086.9z M-6991.7,7085.9C-6991.7,7085.9-6991.7,7085.9-6991.7,7085.9c0,0-0.1,0.1-0.1,0.1
		c-0.1-0.1-0.2-0.2-0.3-0.2c-0.2-0.2-0.4-0.4-0.6-0.5c0,0-0.1,0-0.1-0.1c0,0,0-0.1,0-0.1c0,0,0,0,0,0c0.1,0,0.1,0,0.2,0
		c0,0,0.1,0.1,0.1,0.1c0.1,0.1,0.1,0.1,0.2,0.2c0.1,0.1,0.2,0.1,0.3,0.2C-6992,7085.7-6991.8,7085.7-6991.7,7085.9z M-6994.3,7085.7
		c-0.1,0-0.2,0.2-0.3,0.2l0,0.1l0,0.1c0.1,0.3,0.2,0.5,0.4,0.6l0.2,0.2l-0.1,0c-0.1,0-0.2,0-0.3,0c-0.1,0-0.1,0-0.2,0
		c-0.2,0-0.4,0-0.6-0.1c-0.2,0-0.3-0.1-0.5-0.1c-0.4,0-0.9,0-1.3,0c-0.1,0-0.2,0.1-0.3,0.1c-0.1,0-0.1,0.1-0.2,0.1
		c0,0-0.1-0.1-0.1-0.1c0.1,0,0.2-0.1,0.3-0.1c0.1,0,0.1,0,0.2,0c0.1,0,0.2,0,0.3-0.1c0.3-0.1,0.5-0.5,0.6-0.7l0,0c0,0,0.1,0,0.1,0
		c0.1,0,0.2-0.1,0.3-0.1c0.1-0.1,0.2-0.2,0.2-0.3c0-0.1,0.1-0.2,0.1-0.2c0.1,0,0.2,0,0.2,0c0.1,0,0.1,0,0.2,0c0,0,0,0,0,0
		c0.2,0,0.4,0,0.5-0.1l0,0.1c0,0,0,0,0,0.1C-6994.4,7085.5-6994.4,7085.6-6994.3,7085.7z M-6998,7086.9c0,0,0.1,0.1,0.2,0.1
		c0.1,0.1,0.2,0.2,0.3,0.2l0.1,0c0.1,0,0.2,0,0.3-0.1c0.1,0,0.1-0.1,0.2-0.1c0.2,0,0.8-0.1,1.2,0c0.2,0,0.3,0.1,0.4,0.1
		c0.2,0,0.4,0.1,0.6,0.1c0.1,0,0.2,0,0.3,0c0,0,0.1,0,0.1,0c0,0.1,0.1,0.2,0.1,0.2c0,0.1,0.1,0.2,0.1,0.2c0,0.1,0,0.1,0,0.2
		c0,0.1,0,0.2,0,0.3c-1.9,0-3.8,0-5.5-0.1c0.1-0.1,0.1-0.2,0.2-0.3l0.1-0.1l0,0c0,0,0-0.1,0-0.1c0,0,0.1,0,0.1,0c0,0,0.1,0,0.1-0.1
		c0,0,0.1,0,0.1,0c0.1,0,0.2,0,0.3-0.1c0.1-0.1,0.2-0.2,0.3-0.2C-6998.1,7087-6998,7086.9-6998,7086.9z M-6990.7,7077.5l-0.1,0
		c-0.5,0.1-0.7,0.3-0.8,0.5c-0.3,0-0.4,0.2-0.5,0.3c-0.1,0.1-0.2,0.2-0.4,0.2l-0.1,0l0,0.1c-0.2,0.4-0.5,0.6-1.1,0.8l-0.1,0l0,0.1
		c-0.2,0.3-0.4,0.6-0.3,1.2l0,0.1l0.1,0c0.2,0.1,0.4,0.1,0.5,0.1c-0.2,0.1-0.3,0.4-0.3,0.6c0,0.1,0,0.2-0.1,0.2c0,0-0.1,0-0.2,0
		h-0.1l0,0c-0.1,0.1-0.2,0.1-0.4,0.1c-0.1,0-0.2,0-0.4,0.1c-0.1,0-0.2,0.1-0.3,0.2c0-0.2-0.1-0.3-0.2-0.5c-0.1-0.1-0.1-0.1-0.1-0.2
		c0-0.2,0-0.3,0-0.5c0-0.2,0.1-0.4,0-0.7l0-0.1c-0.1-0.1-0.3-0.2-0.3-0.2c-0.2,0-0.4,0.2-0.6,0.4c0,0-0.1,0.1-0.1,0.1l-0.1,0.1
		l0.1,0.1c0,0,0.1,0.1,0.2,0.1c0,0,0.1,0.1,0.1,0.1c-0.1,0.4-0.3,0.7-0.5,1.1c-0.1,0.1-0.2,0.3-0.3,0.4l0,0.1l0,0.1
		c0.1,0.1,0.2,0.2,0.2,0.3c0,0,0,0,0.1,0c-0.1,0-0.1,0.1-0.2,0.1l-0.1,0.1l0,0.1c0,0.1,0.1,0.2,0.1,0.3c0.1,0.2,0.1,0.4,0.2,0.6
		c-0.1,0.1-0.2,0.2-0.4,0.2c-0.2,0-0.4,0-0.6-0.1c-0.2,0-0.4-0.1-0.5-0.1l-0.1,0l-0.2,0.2c-0.1,0.2-0.3,0.4-0.4,0.6l0,0l0,0.1
		c0,0.4,0,0.6-0.1,0.9l0,0.2l0.2,0c0.1,0,0.2,0.1,0.4,0.2c0.1,0.1,0.2,0.1,0.2,0.2c-0.1,0-0.1,0.1-0.1,0.2c-0.1,0.1-0.1,0.1-0.2,0.2
		c0,0-0.1,0-0.2,0c-0.1,0-0.1,0-0.2,0c-0.1,0-0.1,0-0.2,0.1c-0.1,0-0.1,0.1-0.2,0.1l-0.1,0l0,0c-0.1,0.1-0.1,0.1,0,0.3l0,0.1
		c-0.1,0.2-0.2,0.3-0.4,0.5c-5-0.3-8.9-1-8.7-3.5c0.3-2.1,1-4.2,2.1-6.1c0-0.1,0.1-0.1,0.1-0.2c0,0,0-0.1,0.1-0.1c0,0,0,0,0,0.1
		l0.2,0.4l0.1-0.5c0-0.1,0.1-0.1,0.2-0.1c0,0,0,0,0.1,0c0,0.1-0.1,0.1-0.1,0.2l0,0.2h0.2c0,0,0.1,0,0.1,0.1c0,0,0.1,0.1,0.1,0.1
		l0.2,0.1l0.1-0.2c0.2-0.4,0.4-0.8,0.6-1l0,0c0,0.1,0,0.1,0.1,0.2c0,0,0,0,0,0c0,0,0,0,0,0c-0.1,0.1-0.3,0.2-0.4,0.3l0,0l0,0.1
		c0,0.1,0,0.1,0,0.2c-0.1,0.4-0.1,0.8,0.2,1.1l0.2,0.1l0.1-0.2c0-0.1,0.1-0.1,0.1-0.2c0.2-0.2,0.3-0.5,0.3-0.9
		c0.2-0.4,0.4-0.6,0.6-0.7l0.1,0l0-0.1c0-0.2,0.1-0.3,0.2-0.4c0-0.1,0.1-0.1,0.1-0.2l0.1-0.2c0-0.1,0.1-0.2,0.2-0.3
		c0.1-0.1,0.2-0.3,0.3-0.4c0.1-0.1,0.2-0.3,0.3-0.5l0-0.1l-0.1-0.1c-0.1-0.1-0.2-0.1-0.2-0.1c0,0,0,0-0.1,0c0.1-0.1,0.2-0.2,0.4-0.4
		c0,0,0,0,0.1,0l0,0.1l0.1,0c0.4,0.1,0.6-0.1,0.8-0.2c0,0,0,0.1,0.1,0.1l0.1,0.1l0.1-0.1c0.1-0.1,0.2-0.1,0.3-0.1l0.1,0
		c0.2-0.1,0.2-0.3,0.3-0.4c0-0.1,0.1-0.1,0.1-0.2c0.1-0.1,0.2-0.2,0.3-0.3c0.1-0.1,0.3-0.2,0.4-0.4l0-0.1l0,0
		c0.2-0.1,0.3-0.3,0.5-0.4l0.1,0l0-0.1c0-0.1,0.1-0.2,0.2-0.3c0.2,0,0.3-0.1,0.3-0.2c0.1,0.1,0.3,0.1,0.4,0.1
		c-0.4,0.1-0.6,0.4-0.7,0.8l0,0l0,0c0,0,0,0.1,0.1,0.1c-0.1,0.2-0.3,0.4-0.5,0.6c-0.1,0.1-0.2,0.2-0.3,0.3l0,0l0,0.1c0,0,0,0,0,0
		c0,0,0,0-0.1,0l-0.1,0c-0.2,0.1-0.3,0.3-0.3,0.4c0,0,0,0.1,0,0.1c0,0-0.1,0-0.1,0c0,0,0,0-0.1,0c-0.5,0.2-0.8,0.5-1.1,0.8l0,0
		l0,0.1c0,0.2-0.1,0.3-0.2,0.5c-0.1,0.2-0.3,0.5-0.3,0.8l0,0.1l0,0c0.2,0.2,0.3,0.3,0.5,0.3c0.3,0,0.5-0.2,0.7-0.4
		c0.1-0.1,0.3-0.3,0.4-0.3c0,0,0,0,0,0c0,0,0.1,0.1,0.1,0.1l0,0l0,0c0.2,0,0.4,0,0.6,0c0.1,0,0.1,0,0.2,0c0.3,0,0.4,0,0.7,0.1
		c0.2,0.1,0.3,0.1,0.5,0.2l0,0l0,0c0.2,0,0.3-0.1,0.5-0.2c0,0,0.1-0.1,0.1-0.1c0,0,0,0,0,0c0,0,0.1,0,0.2-0.1
		c0.1-0.1,0.1-0.1,0.1-0.2c0,0,0-0.1,0-0.1c0.1-0.1,0.2-0.1,0.3-0.2c0.1-0.1,0.2-0.1,0.4-0.2c0.1-0.1,0.1-0.2,0.2-0.2
		c0.1-0.2,0.2-0.2,0.3-0.2l0.2,0l0-0.2l0,0l0-0.1c0.2-0.1,0.5-0.1,0.7-0.2l0.3-0.1l0-0.1c0,0,0.1-0.1,0.1-0.2c0-0.1,0-0.1-0.1-0.2
		l-0.1,0l-0.1,0c0,0-0.1-0.1-0.1-0.1c-0.1-0.1-0.1-0.2-0.3-0.2c0-0.1,0.1-0.2,0-0.3l0-0.1l-0.1,0c-0.3-0.1-0.5-0.2-0.7-0.5l0-0.1
		l-0.1,0c-0.1,0-0.1,0-0.2,0l0,0c0,0-0.1-0.1-0.2-0.1c0,0,0,0,0,0c-0.1,0-0.1,0-0.1-0.1c0-0.1-0.1-0.1-0.2-0.2l-0.1,0l-0.2,0
		c-0.1,0-0.1,0-0.2,0l0-0.1l0.1,0c0.1,0,0.2,0,0.3,0l0.3,0l-0.1-0.3c0,0,0.1-0.1,0.1-0.2l0,0l0,0c0,0,0,0,0-0.1
		c0-0.1,0.1-0.2,0.1-0.3l0-0.1l-0.1,0c0,0,0-0.1,0-0.1l0,0l0,0c-0.1-0.1-0.2-0.2-0.3-0.3c0,0-0.1,0-0.1-0.1c0.1,0,0.2-0.1,0.2-0.2
		l0-0.1l0-0.1c0-0.1-0.1-0.1-0.3-0.1c0,0,0,0,0,0l0,0v0c0,0,0.1,0,0.2-0.1l0.4-0.1c0.1,0,0.3,0,0.4-0.1l0.1-0.1l0-0.1
		c0,0,0-0.1,0-0.1l0.1-0.2c0.6-0.1,1.1-0.3,1.7-0.3c2.4-0.2,3.2,3.3,3.5,7.9C-6990.2,7077.4-6990.4,7077.4-6990.7,7077.5z
		 M-6996.4,7071.8C-6996.3,7071.8-6996.3,7071.9-6996.4,7071.8c0,0.1,0,0.1,0,0.2l-0.1,0.1l0,0.1l0,0.1c0,0,0,0,0,0c0,0-0.1,0-0.1,0
		l-0.3,0c-0.1,0-0.2,0-0.3,0c0-0.1,0-0.1-0.1-0.1c-0.1-0.1-0.3-0.1-0.5-0.1c0,0,0,0,0,0c0,0,0,0,0,0l0-0.1c0.1-0.1,0.2-0.1,0.2-0.1
		l0.1,0.1l0.2,0c0.1,0,0.2,0,0.2,0c0.1,0,0.3,0,0.4,0l0-0.1c0,0,0,0,0,0l0-0.1l0,0l0-0.1l0,0c0,0,0,0,0,0l0-0.1c0,0,0,0,0,0
		c0,0,0.1,0,0.1,0c0,0,0.1,0,0.1,0.1c0,0,0.1,0,0.1,0.1c0,0-0.1,0.1-0.1,0.1L-6996.4,7071.8L-6996.4,7071.8z M-6995,7074.5h0.2
		c0.1,0,0.1,0,0.2,0.1c0,0,0,0.1,0.1,0.1c-0.3,0.1-0.7,0.1-0.9,0.2l-0.1,0l0,0.1c0,0,0,0.1,0,0.1c-0.2,0.1-0.3,0.2-0.5,0.4
		c-0.1,0.1-0.1,0.1-0.1,0.2c-0.1,0.1-0.2,0.1-0.3,0.2c-0.1,0.1-0.3,0.1-0.4,0.3c0,0.1-0.1,0.1-0.1,0.2c0,0,0,0.1,0,0.1c0,0,0,0,0,0
		c0,0-0.1,0-0.1,0.1c-0.1,0-0.1,0.1-0.2,0.1c-0.1,0.1-0.2,0.1-0.3,0.2c-0.1,0-0.3-0.1-0.4-0.1c-0.2-0.1-0.5-0.2-0.8-0.2
		c-0.1,0-0.1,0-0.2,0.1c-0.1,0-0.2,0.1-0.4,0.1c0,0-0.1-0.1-0.1-0.1c0,0-0.1,0-0.1-0.1l0,0l-0.1,0c-0.3,0-0.5,0.2-0.7,0.4
		c-0.1,0.1-0.3,0.3-0.4,0.3c-0.1,0-0.1,0-0.2-0.1c0-0.2,0.1-0.4,0.2-0.6c0.1-0.2,0.2-0.3,0.3-0.6c0.2-0.3,0.5-0.5,0.9-0.6
		c0,0,0,0,0.1,0l0,0l0,0c0.3,0,0.3-0.3,0.3-0.4c0,0,0,0,0-0.1c0,0,0.1,0,0.1,0l0.1,0c0,0,0.1,0,0.1,0l0.1,0l0-0.1c0-0.1,0-0.1,0-0.2
		c0.1-0.1,0.2-0.2,0.2-0.2c0.3-0.2,0.5-0.5,0.7-0.8l0-0.1c0,0,0-0.1-0.1-0.2c0.1-0.2,0.2-0.4,0.4-0.4l-0.1,0.1h0.3c0,0,0.1,0,0.1,0
		c0.1,0,0.1,0.1,0.2,0.1c0,0,0,0.1,0.1,0.1l0,0.2l0.2-0.1c0.1,0,0.2,0,0.3-0.1l0,0c0,0,0,0,0.1,0.1c0.1,0.1,0.1,0.2,0.3,0.2
		c0,0,0,0.1,0.1,0.1l0,0l0.1,0c0.1,0,0.1,0,0.1,0c0,0,0,0,0,0c0.2,0.3,0.4,0.4,0.7,0.5c0,0,0,0,0,0.1c0,0.1,0,0.1,0,0.2
		L-6995,7074.5z M-6999.7,7073.3c-0.1,0.1-0.1,0.1-0.2,0.2c-0.1,0.1-0.3,0.2-0.4,0.4c0,0.1-0.1,0.2-0.1,0.2c0,0.1-0.1,0.2-0.2,0.3
		c0,0-0.1,0-0.1,0c0-0.1,0-0.1,0.1-0.2l0.1-0.3l-0.3,0.1c-0.2,0.1-0.3,0.2-0.4,0.3c-0.1,0.2-0.2,0.2-0.3,0.2c0,0,0,0,0,0
		c0,0,0-0.1,0.1-0.1c0,0,0-0.1,0-0.1c0-0.1,0.1-0.1,0.1-0.2c0.1-0.2,0.3-0.3,0.4-0.6c0,0.1,0.1,0.1,0.2,0.2l0,0c0.6,0,0.8-0.3,1-0.6
		c0.1-0.1,0.2-0.3,0.3-0.3l0.3-0.2l-0.2-0.1l0,0c0.1-0.2,0.2-0.3,0.4-0.4l0.3,0.1l0,0c-0.1,0.1-0.1,0.2-0.2,0.3
		c-0.2,0.2-0.5,0.3-0.7,0.5l0,0L-6999.7,7073.3L-6999.7,7073.3z M-7002.7,7075.5c0,0,0.1,0.1,0.1,0.1c0,0-0.1,0.1-0.1,0.1
		c-0.1,0.1-0.2,0.3-0.3,0.4c-0.1,0.1-0.1,0.2-0.2,0.4l-0.1,0.2c0,0.1-0.1,0.1-0.1,0.2c-0.1,0.1-0.1,0.2-0.2,0.4
		c-0.1,0.1-0.2,0.2-0.3,0.3l0,0c-0.1-0.1-0.2-0.1-0.3-0.1c0-0.1,0-0.1,0-0.2c0-0.2-0.1-0.3-0.2-0.5l-0.1-0.1l-0.1,0.1
		c-0.2,0.1-0.2,0.3-0.3,0.5c0,0,0,0,0,0.1c-0.2,0.2-0.3,0.4-0.4,0.6l-0.1-0.1c-0.2-0.2-0.5-0.2-0.7-0.1l0-0.1
		c0.1-0.2,0.3-0.4,0.4-0.6c0.1,0,0.2-0.1,0.2-0.2l0.2-0.3l-0.1,0c0.3-0.5,0.7-0.9,1.1-1.3l0.3-0.1c0.2-0.1,0.3-0.1,0.4-0.2
		c0.1-0.1,0.2-0.1,0.3-0.2c0,0,0,0,0.1,0c0.1,0,0.2,0,0.3,0c0.1,0,0.2-0.1,0.4-0.3c0.1-0.1,0.2-0.2,0.3-0.2c0.1-0.1,0.2-0.1,0.3-0.2
		c0.1,0,0.2-0.1,0.2-0.1c0,0.1,0,0.2-0.1,0.2l0,0.1c-0.1,0.1-0.2,0.2-0.4,0.3c-0.3,0.2-0.5,0.4-0.6,0.8L-7002.7,7075.5
		L-7002.7,7075.5z M-7004.3,7078.3c0,0.3-0.1,0.5-0.3,0.7c0-0.1,0-0.3,0-0.6c0,0,0-0.1,0-0.1c0.1-0.1,0.1-0.1,0.2-0.2c0,0,0,0,0.1,0
		C-7004.2,7078.1-7004.2,7078.1-7004.3,7078.3L-7004.3,7078.3L-7004.3,7078.3z M-7002.1,7073.8c-0.1,0.1-0.2,0.1-0.3,0.2
		c-0.1,0.1-0.2,0.2-0.3,0.3c0,0-0.1,0.1-0.1,0.1c0-0.1,0.1-0.1,0.1-0.2c0.1-0.1,0.1-0.2,0.2-0.2c0.1-0.1,0.1-0.1,0.2-0.2
		c0.1-0.1,0.3-0.3,0.3-0.5c0.2-0.2,0.5-0.4,0.7-0.6c0.1-0.1,0.2-0.1,0.3-0.1c-0.1,0.1-0.2,0.2-0.2,0.3l-0.1,0.2l0.1,0c0,0,0,0,0,0
		l-0.2,0.3l-0.1,0.1C-7001.8,7073.6-7002,7073.7-7002.1,7073.8z M-6999.6,7071.9c-0.1,0.1-0.2,0.2-0.3,0.3l-0.1,0.1l0.1,0.1
		c0,0,0,0.1,0.1,0.1c-0.1,0-0.1,0-0.1,0.1c0,0-0.1,0-0.1,0c0,0,0,0,0,0l0-0.2l-0.2,0.1c-0.1,0-0.1,0-0.2,0.1l0,0c0,0,0,0-0.1,0
		l0.2-0.2l-0.1,0c0.2-0.1,0.5-0.3,0.7-0.4l-0.1,0L-6999.6,7071.9z M-7000.1,7073C-7000.1,7073-7000.1,7073-7000.1,7073
		c-0.2,0.3-0.3,0.5-0.6,0.5c0,0,0,0,0,0c0-0.1-0.1-0.1-0.1-0.2c0.1,0,0.1-0.1,0.2-0.1c0.1-0.1,0.2-0.2,0.3-0.2c0,0,0,0,0,0.1l0,0
		l0.1,0C-7000.3,7073-7000.2,7073-7000.1,7073z M-6999.2,7071.5C-6999.2,7071.5-6999.2,7071.5-6999.2,7071.5
		C-6999.2,7071.5-6999.3,7071.5-6999.2,7071.5c-0.2,0.1-0.2,0.1-0.3,0.1C-6999.4,7071.5-6999.3,7071.5-6999.2,7071.5L-6999.2,7071.5
		z M-6972.9,7089.6c-0.5,3.7-2.2,7.3-5.1,10.2c-2.9,2.9-6.6,4.6-10.4,5.1c-14.8,2.4-23.1-13.1-21.1-19.6c-0.6,2.3,1.1,4.2,20.9,4.2
		c0-19.5-2-21.2-4.3-20.6C-6986.2,7066.7-6970.4,7074.9-6972.9,7089.6z"/>
	<path fill="#231F20" d="M-6962.8,7091.6h-1.5v3.9v0h0.7v-1.6h0.5c0.3,0,0.6-0.1,0.8-0.2c0.3-0.2,0.4-0.6,0.4-0.9
		C-6961.8,7092.1-6962.1,7091.6-6962.8,7091.6z M-6963.1,7093.3h-0.4h0v-1.1h0.3c0.4,0,0.6,0.1,0.6,0.5
		C-6962.6,7093.1-6962.8,7093.3-6963.1,7093.3z"/>
	<polygon fill="#231F20" points="-6958.2,7095.5 -6956.1,7095.5 -6956.1,7094.9 -6957.4,7094.9 -6957.4,7093.7 -6956.2,7093.7 
		-6956.2,7093.1 -6957.4,7093.1 -6957.4,7092.1 -6956.1,7092.1 -6956.1,7091.6 -6958.2,7091.6 	"/>
	<path fill="#231F20" d="M-6949.8,7091.6h-0.8l-0.4,0.8c-0.2,0.3-0.4,0.6-0.5,0.9h0v-1.7h-0.7v3.9v0h0.7v-1.1l0.3-0.4l0.7,1.6h0.8
		l-1-2.2L-6949.8,7091.6z"/>
	<path fill="#231F20" d="M-6946,7093.8c0,0.8,0,1.1-0.4,1.1v0.6c1.1,0,1.1-0.8,1.1-1.7v-1.7h0.9v3.4h0.7v-3.9h-2.3V7093.8z"/>
	<path fill="#231F20" d="M-6939.2,7091.6l-1,3.9h0.8l0.2-1h0.9l0.2,1h0.8l-0.9-3.9H-6939.2z M-6939,7093.9l0.2-1.1
		c0-0.2,0.1-0.4,0.1-0.5c0-0.1,0-0.2,0-0.3h0c0,0.1,0,0.2,0,0.3c0,0.2,0,0.4,0.1,0.5l0.2,1.1H-6939z"/>
	<path fill="#231F20" d="M-6931.8,7093.4c-0.1,0.3-0.1,0.5-0.1,0.9h0c0-0.3-0.1-0.6-0.1-0.9l-0.4-1.8h-1.2v3.9h0.7h0v-1.2
		c0-0.8,0-1.6-0.1-2.3h0l0.8,3.6h0.4l0.8-3.6h0c0,0.8-0.1,1.6-0.1,2.3v1.2h0.7v-3.9h-1.2L-6931.8,7093.4z"/>
	<polygon fill="#231F20" points="-6924.6,7093.1 -6925.6,7093.1 -6925.6,7091.6 -6926.4,7091.6 -6926.4,7095.5 -6925.6,7095.5 
		-6925.6,7093.7 -6924.6,7093.7 -6924.6,7095.5 -6923.8,7095.5 -6923.8,7091.6 -6924.6,7091.6 	"/>
	<path fill="#231F20" d="M-6911.1,7091.2c0.5,0,0.8-0.3,0.9-0.8h-0.3c0,0.3-0.2,0.4-0.6,0.4c-0.3,0-0.5-0.1-0.5-0.4h-0.3
		C-6912,7090.9-6911.7,7091.2-6911.1,7091.2z"/>
	<path fill="#231F20" d="M-6911.2,7093c-0.2,0.5-0.4,0.9-0.5,1.6h0c0-0.4,0.1-0.7,0.1-1.1c0-0.4,0-0.8,0-1.1v-0.8h-0.7v3.9h0.8
		l0.6-1.4c0.2-0.5,0.4-0.9,0.5-1.6h0c0,0.3-0.1,0.7-0.1,1.1c0,0.4,0,0.8,0,1.1v0.7h0.7v-3.9h-0.8L-6911.2,7093z"/>
	<path fill="#231F20" d="M-6899,7091.6h-0.8l-0.3,0.7c-0.1,0.2-0.2,0.5-0.2,0.7h0c0-0.2-0.1-0.3-0.1-0.5l-0.4-0.9h-0.8l0.9,1.9l-1,2
		h0.8l0.3-0.7c0.1-0.2,0.2-0.5,0.3-0.7h0c0,0.2,0.1,0.3,0.2,0.5l0.4,1h0.8l-1-2L-6899,7091.6z"/>
	<path fill="#231F20" d="M-6894.2,7091.5c-1.2,0-1.3,0.7-1.3,1.7v0.6c0,1,0.1,1.8,1.3,1.8c1.2,0,1.3-0.8,1.3-1.8v-0.6
		C-6892.9,7092.2-6893,7091.5-6894.2,7091.5z M-6893.6,7094.1c0,0.4,0,0.9-0.5,0.9c-0.5,0-0.5-0.5-0.5-0.9v-1.1c0-0.3,0-1,0.5-1
		c0.6,0,0.5,0.7,0.5,1V7094.1z"/>
	<path fill="#231F20" d="M-6889,7093.8c0,0.8,0,1.1-0.4,1.1v0.6c1.1,0,1.1-0.8,1.1-1.7v-1.7h0.9v3.4h0.7v-3.9h-2.3V7093.8z"/>
	<path fill="#231F20" d="M-6880.3,7091.6h-2.3v2.2c0,0.6,0,1-0.2,1.1c0,0-0.2,0-0.2,0v1.1h0.7v-0.6h1.6v0.6h0.7v-1.1h-0.2V7091.6z
		 M-6881.1,7094.9h-1.1c0.2-0.3,0.2-0.7,0.2-1.1v-1.7h0.9V7094.9z"/>
	<path fill="#231F20" d="M-6875.2,7093c-0.2,0.5-0.4,0.9-0.5,1.6h0c0-0.4,0.1-0.7,0.1-1.1c0-0.4,0-0.8,0-1.1v-0.8h-0.7v3.9h0.8
		l0.6-1.4c0.2-0.5,0.4-0.9,0.5-1.6h0c0,0.3-0.1,0.7-0.1,1.1c0,0.4,0,0.8,0,1.1v0.7v0h0.7v-3.9h-0.8L-6875.2,7093z"/>
	<rect x="-6917.1" y="7091.6" fill="#231F20" width="0.7" height="3.9"/>
	<path fill="#231F20" d="M-6918.7,7093.2h-0.5h0v-1.6h-0.7v3.9h1.3c0.8,0,1.1-0.5,1.1-1.2c0-0.3-0.1-0.7-0.4-0.9
		C-6918.1,7093.2-6918.4,7093.1-6918.7,7093.2z M-6918.9,7094.9h-0.3v-1.2h0.4c0.3,0,0.5,0.1,0.5,0.6
		C-6918.2,7094.8-6918.4,7094.9-6918.9,7094.9z"/>
	<polygon fill="#231F20" points="-6868.2,7093.1 -6869.2,7093.1 -6869.2,7091.6 -6870,7091.6 -6870,7095.5 -6869.2,7095.5 
		-6869.2,7093.7 -6868.2,7093.7 -6868.2,7095.5 -6867.5,7095.5 -6867.5,7091.6 -6868.2,7091.6 	"/>
	<polygon fill="#231F20" points="-6863.6,7095.5 -6862.8,7095.5 -6862.8,7092.1 -6861.4,7092.1 -6861.4,7091.6 -6863.6,7091.6 	"/>
</g>
</svg>
