<?xml version="1.0" encoding="utf-8"?>
<!-- Generator: Adobe Illustrator 18.1.1, SVG Export Plug-In . SVG Version: 6.00 Build 0)  -->
<svg version="1.1" id="Layer_1" xmlns="http://www.w3.org/2000/svg" xmlns:xlink="http://www.w3.org/1999/xlink" x="0px" y="0px"
	 viewBox="-7051 7052.2 70 70" enable-background="new -7051 7052.2 70 70" xml:space="preserve">
<g>
	<path fill="#231F20" d="M-7016,7052.2c-19.3,0-35,15.7-35,35s15.7,35,35,35s35-15.7,35-35S-6996.7,7052.2-7016,7052.2z
		 M-7016,7118.2c-17.1,0-31-13.9-31-31c0-17.1,13.9-31,31-31c17.1,0,31,13.9,31,31C-6985,7104.3-6998.9,7118.2-7016,7118.2z"/>
	<path fill="#231F20" d="M-7001.7,7082.8h-9.8v-9.8c0-2.4-2-4.4-4.4-4.4s-4.4,2-4.4,4.4v9.8h-9.8c-2.4,0-4.4,2-4.4,4.4
		s2,4.4,4.4,4.4h9.8v9.8c0,2.4,2,4.4,4.4,4.4s4.4-2,4.4-4.4v-9.8h9.8c2.4,0,4.4-2,4.4-4.4S-6999.3,7082.8-7001.7,7082.8z"/>
</g>
</svg>
