<svg width="70" height="70" viewBox="0 0 70 70" fill="none" xmlns="http://www.w3.org/2000/svg">
<circle cx="35" cy="35" r="33" stroke="#0E1C32" stroke-opacity="0.1" stroke-width="4"/>
<path d="M49.2746 30.5555H39.4444V20.7253C39.4444 18.3101 37.416 16.3333 35 16.3333C32.584 16.3333 30.5555 18.3101 30.5555 20.7253V30.5555H20.7253C18.3102 30.5555 16.3333 32.5839 16.3333 34.9999C16.3333 37.4159 18.3102 39.4444 20.7253 39.4444H30.5555V49.2746C30.5555 51.6897 32.584 53.6666 35 53.6666C37.416 53.6666 39.4444 51.6897 39.4444 49.2746V39.4444H49.2746C51.6898 39.4444 53.6666 37.4159 53.6666 34.9999C53.6666 32.5839 51.6898 30.5555 49.2746 30.5555Z" fill="#0E1C32" fill-opacity="0.1"/>
</svg>
