<?xml version="1.0" encoding="utf-8"?>
<!-- Generator: Adobe Illustrator 18.1.1, SVG Export Plug-In . SVG Version: 6.00 Build 0)  -->
<svg version="1.1" id="Layer_1" xmlns="http://www.w3.org/2000/svg" xmlns:xlink="http://www.w3.org/1999/xlink" x="0px" y="0px"
	 viewBox="-7079 7079.2 15 15" enable-background="new -7079 7079.2 15 15" xml:space="preserve">
<path fill="#231F20" d="M-7079,7093.3c0,0.5,0.4,0.9,0.9,0.9h13.1c0.5,0,0.9-0.4,0.9-0.9s-0.4-0.9-0.9-0.9h-13.1
	C-7078.6,7092.4-7079,7092.8-7079,7093.3z M-7070.8,7090.3c-0.2,0.2-0.4,0.3-0.7,0.3s-0.5-0.1-0.7-0.3l-3.3-3.3
	c-0.4-0.4-0.4-1,0-1.3s1-0.4,1.3,0l1.7,1.7v-7.2c0-0.5,0.4-0.9,0.9-0.9s0.9,0.4,0.9,0.9v7.2l1.7-1.7c0.4-0.4,1-0.4,1.3,0
	s0.4,1,0,1.3L-7070.8,7090.3z"/>
</svg>
