<?xml version="1.0" encoding="utf-8"?>
<!-- Generator: Adobe Illustrator 18.1.1, SVG Export Plug-In . SVG Version: 6.00 Build 0)  -->
<svg version="1.1" id="Layer_1" xmlns="http://www.w3.org/2000/svg" xmlns:xlink="http://www.w3.org/1999/xlink" x="0px" y="0px"
	 viewBox="-7080 7081.2 12 12" enable-background="new -7080 7081.2 12 12" xml:space="preserve">
<path fill="#231F20" d="M-7068.7,7085.5c-0.2,0-0.5-0.1-0.7-0.3c-0.2-0.1-0.4-0.3-0.5-0.5c-0.1-0.2-0.2-0.5-0.2-0.7
	c0-0.2,0-0.5,0.1-0.7c0.1-0.2,0.1-0.3,0-0.5c0-0.2-0.1-0.3-0.2-0.4c-0.5-0.5-1.1-0.8-1.8-1.1c-0.1-0.1-0.3-0.1-0.5,0
	c-0.1,0-0.3,0.1-0.4,0.3c-0.1,0.2-0.3,0.4-0.5,0.5c-0.2,0.1-0.4,0.2-0.7,0.2s-0.5-0.1-0.7-0.2c-0.2-0.1-0.4-0.3-0.5-0.5
	c-0.1-0.1-0.2-0.2-0.4-0.3c-0.2,0-0.3,0-0.5,0c-0.6,0.2-1.1,0.6-1.6,1c-0.1,0.1-0.2,0.2-0.3,0.4c0,0.2,0,0.3,0,0.5
	c0.1,0.2,0.1,0.5,0.1,0.8c0,0.3-0.1,0.5-0.2,0.7s-0.3,0.4-0.5,0.5c-0.2,0.1-0.4,0.2-0.7,0.2c-0.2,0-0.3,0.1-0.4,0.2
	s-0.2,0.3-0.2,0.4c-0.1,0.4-0.1,0.8-0.1,1.2c0,0.3,0,0.7,0.1,1c0,0.2,0.1,0.3,0.2,0.4c0.1,0.1,0.3,0.2,0.4,0.2
	c0.2,0,0.5,0.1,0.7,0.3c0.2,0.1,0.4,0.3,0.5,0.6c0.1,0.2,0.2,0.5,0.2,0.7c0,0.3,0,0.5-0.1,0.8c-0.1,0.2-0.1,0.3,0,0.5
	s0.1,0.3,0.3,0.4c0.5,0.5,1.1,0.8,1.7,1.1c0.1,0,0.2,0,0.3,0c0.1,0,0.2,0,0.3-0.1c0.1-0.1,0.2-0.1,0.3-0.2c0.1-0.2,0.3-0.4,0.6-0.5
	c0.2-0.1,0.5-0.2,0.7-0.2c0.2,0,0.5,0.1,0.7,0.2c0.2,0.1,0.4,0.3,0.6,0.5c0.1,0.1,0.2,0.2,0.4,0.3c0.2,0,0.3,0,0.5,0
	c0.6-0.2,1.1-0.6,1.6-1c0.1-0.1,0.2-0.2,0.2-0.4s0-0.3,0-0.5c-0.1-0.2-0.1-0.5-0.1-0.7c0-0.3,0.1-0.5,0.2-0.7s0.3-0.4,0.5-0.5
	c0.2-0.1,0.4-0.2,0.7-0.3c0.2,0,0.3-0.1,0.4-0.2c0.1-0.1,0.2-0.3,0.2-0.4c0.1-0.4,0.1-0.7,0.1-1.1c0-0.4,0-0.8-0.1-1.1
	c0-0.2-0.1-0.3-0.2-0.4C-7068.4,7085.6-7068.6,7085.5-7068.7,7085.5z M-7072,7087.2c0,0.4-0.1,0.8-0.3,1.2c-0.2,0.3-0.5,0.6-0.9,0.8
	c-0.4,0.2-0.8,0.2-1.2,0.1c-0.4-0.1-0.7-0.3-1-0.6s-0.5-0.7-0.5-1.1s0-0.8,0.1-1.2c0.2-0.4,0.4-0.7,0.7-0.9c0.3-0.2,0.7-0.4,1.1-0.4
	c0.5,0,1,0.2,1.4,0.6S-7072,7086.7-7072,7087.2z"/>
</svg>
