<svg aria-hidden="true" style="position:absolute;width:0;height:0;overflow:hidden" xmlns="http://www.w3.org/2000/svg"><defs>
    
    <symbol id="icon-add-new" viewBox="0 0 32 32" fill="var(--current-color)"><path d="M16 0C7.177 0 0 7.177 0 16s7.177 16 16 16 16-7.177 16-16S24.823 0 16 0zm0 30.171C8.183 30.171 1.829 23.817 1.829 16S8.183 1.829 16 1.829c7.817 0 14.171 6.354 14.171 14.171S23.817 30.171 16 30.171z"/><path d="M22.537 13.989h-4.48v-4.48c0-1.097-.914-2.011-2.011-2.011s-2.011.914-2.011 2.011v4.48h-4.48c-1.097 0-2.011.914-2.011 2.011s.914 2.011 2.011 2.011h4.48v4.48c0 1.097.914 2.011 2.011 2.011s2.011-.914 2.011-2.011v-4.48h4.48c1.097 0 2.011-.914 2.011-2.011s-.914-2.011-2.011-2.011z"/></symbol>
    
    <symbol id="icon-arrow-down" viewBox="0 0 64 32" fill="var(--current-color)"><path d="M32 32 60 1.6H4.8L32 32z"/></symbol>
    
    <symbol id="icon-bigLogo_bg" viewBox="0 0 32 32" fill="var(--current-color)"><path d="m6.869 20.115-.074-.033c0-.063-.004-.133-.052-.192l-.03-.033-.041-.011a.3084.3084 0 0 0-.096-.015c-.074 0-.126.03-.159.048-.015.007-.026.015-.041.018l-.096.03-.004.1c-.007.196.059.444.433.503l.148.022.018-.148c.011-.1.011-.115 0-.211l-.007-.078zm10.558 2.595-.052-.007a.1878.1878 0 0 0 .011-.067l.004-.059-.037-.044c-.067-.078-.14-.144-.211-.207-.041-.037-.078-.07-.111-.104l-.03-.03-.044-.007a.8473.8473 0 0 0-.166-.015c-.344 0-.569.211-.769.396-.063.059-.122.115-.185.163a.5223.5223 0 0 0-.148-.059l-.037-.007-.037.011c-.189.055-.303.177-.403.288-.033.033-.063.067-.092.096l-.063.059.022.081c.011.044.015.104.022.166.007.074.011.152.03.222l.026.1.104.004c.004 0 .004 0 .026.015.03.018.074.044.137.055l.041.007.037-.018c.174-.081.336-.174.492-.266l-.004.096.137.011h.033c.126 0 .211-.07.24-.192.022-.037.033-.078.022-.118v-.004l.022-.133-.089.033c.092-.159.229-.277.421-.359.089.085.203.129.307.17.048.018.089.037.129.055l.207.104v-.177c.048-.059.037-.129.03-.159l-.022-.1zm-.647-.2c-.336.115-.577.314-.71.599-.067.037-.133.078-.196.115-.144.085-.281.166-.429.237a.4018.4018 0 0 0-.048-.026.6735.6735 0 0 1-.007-.092c-.004-.044-.007-.092-.015-.137.018-.018.033-.037.052-.052.078-.081.144-.155.233-.192.015.007.03.015.048.026.026.015.055.03.089.044l.07.03.063-.041c.103-.07.196-.155.285-.237.185-.17.348-.318.577-.318.022 0 .048 0 .07.004l.011.011-.092.03zm.296.159c-.055-.026-.104-.055-.129-.1l-.044-.07c.018.015.033.03.052.048.044.041.085.078.126.118-.004 0-.004 0-.004.004zm-11.697.558a1.2636 1.2636 0 0 1-.118-.085l-.004-.004c-.03-.022-.063-.044-.092-.07-.081-.059-.166-.118-.203-.177-.011-.018-.018-.052-.03-.089a.6683.6683 0 0 0-.052-.152l-.004-.004c-.177-.307-.462-.425-.754-.503-.078-.244-.285-.344-.458-.429l-.122-.059-.07.092c-.336.436.03.969.296 1.216l.041.037h.144c.018.026.041.052.059.078.285.359.606.769 1.235.769.1 0 .207-.011.318-.033l.111-.022.004-.111c.015-.237-.163-.359-.299-.455zm-.129.337c-.488 0-.743-.322-1.013-.662-.037-.044-.07-.089-.107-.133l-.044-.052H3.92c-.159-.159-.359-.451-.277-.691.126.067.2.129.218.255l.015.092.092.022c.277.07.521.152.658.388.011.022.018.052.026.085.015.052.026.111.063.17.067.107.181.189.281.259.03.018.055.041.085.059.044.037.092.067.133.1.059.041.1.07.129.1-.03.007-.063.007-.092.007zm17.242-11.971.048.229.181-.148c.022-.018.044-.037.07-.052.104-.074.229-.17.292-.329.041-.107.052-.226.067-.344.015-.129.03-.251.074-.34l.074-.14-.148-.059c-.03-.011-.055-.026-.085-.044-.055-.033-.126-.074-.214-.092l-.041-.007-.041.015c-.244.092-.418.259-.51.499l-.026.067.037.059c.104.17.163.414.222.688zm.332-1.035c.03.011.059.03.092.048-.03.1-.041.207-.052.307-.011.104-.022.2-.048.274-.018.048-.052.085-.092.122-.044-.181-.096-.348-.17-.495.055-.115.144-.2.27-.255zm1.708 5.523c-.004.007-.004.015-.007.026-.007.022-.011.041-.018.063l-.033.104.092.059c.041.026.074.055.115.085.052.041.104.085.17.122l.166.096.044-.189c.004-.018.007-.037.015-.055.041-.174.089-.373-.018-.514a.3651.3651 0 0 0-.052-.052c.037-.055.074-.118.104-.185l.022-.052-.015-.052c-.015-.044-.026-.096-.037-.152-.018-.096-.041-.196-.085-.285l-.03-.059-.063-.015a.4861.4861 0 0 0-.1-.011c-.17 0-.288.107-.392.2-.055.052-.107.1-.159.122l-.104.048.022.111c.03.163.092.466.362.584zm.296.089c-.007-.007-.015-.011-.022-.018.007-.03.018-.059.026-.081.007.026.004.063-.004.1zm-.225-.736c.059-.052.115-.104.166-.122.011.041.022.085.03.133.007.041.015.081.026.122-.041.078-.092.148-.148.226l-.018.03c-.089-.033-.144-.118-.189-.281.048-.033.092-.07.133-.107zm-4.459-3.77c.104 0 .251-.041.359-.244l.048-.089-.067-.074c-.044-.052-.092-.104-.137-.159-.166-.196-.34-.403-.595-.536l-.055-.03-.059.022c-.107.041-.174.118-.222.185-.011.015-.026.03-.037.044l-.055.063.03.081c.074.214.421.736.791.736zm-.455-.803c.17.107.299.262.44.425l.067.078c-.022.015-.037.015-.048.015-.148 0-.392-.274-.495-.473a.2442.2442 0 0 1 .037-.044z"/><path d="m31.235 14.407-.532-.015s-.07-.118-.078-.288l-.004-.033-.007-.033c-.488-3.323-1.982-6.336-4.333-8.71-2.344-2.381-5.316-3.9-8.595-4.396l-.037-.007-.037-.004c-.063-.004-.359-.081-.359-.081l.085-.54C14.133-.713 9.12.917 5.419 4.182 2.964 6.348-.969 11.069.21 18.404c.447 3.416 1.956 6.51 4.359 8.95 2.388 2.429 5.423 3.952 8.769 4.418.928.159 1.811.229 2.651.229 5.738.004 9.527-3.309 11.394-5.479 3.238-3.76 4.858-8.858 3.852-12.115zm-2.799-2.998c-.022.007-.044.022-.067.041-.018-.048-.041-.092-.063-.137l.085.048.015-.026c.007.011.011.022.015.033l.015.041zm-.991.162c-.004-.137-.004-.27.018-.388.048-.015.089-.037.122-.074.096-.1.089-.244.085-.37v-.026c.007.004.011.004.018.007l.092.022c.078.129.081.185.078.2h-.004l-.122.052.041.126c.018.059.007.126-.004.203-.015.1-.033.211.007.329l.118-.015a.1196.1196 0 0 1-.026-.037l.044.004.022-.007.096.022.022-.004v.007l.081.018c0-.004.004-.007.004-.011.011.033.022.067.03.104l-.044.067c-.022.033-.041.059-.059.085-.026-.022-.063-.052-.118-.063l-.055-.015-.048.03c-.022.015-.041.03-.055.048-.026-.015-.052-.026-.078-.041-.03-.015-.059-.033-.089-.048l-.015-.007-.015-.004a.2247.2247 0 0 0-.052-.007.17.17 0 0 0-.089.026h-.004c-.004-.081-.004-.159-.004-.233zm-1.408-3.364c-.055-.152-.17-.251-.274-.34-.126-.107-.196-.174-.192-.281.033.007.067.018.104.041.004.004.007.007.015.011.015.011.03.022.052.033.041.03.085.067.129.107.129.111.281.248.506.288-.048.026-.1.067-.126.14l-.007.018v.018c-.033.477.244.662.47.81.111.074.218.144.277.24l.133.207.092-.174.037.018a.742.742 0 0 1 .307.285l-.111.226c-.004.007-.007.011-.007.018-.074-.055-.152-.107-.251-.148a5.277 5.277 0 0 0-.396-.54l-.022-.03-.033-.015a.1734.1734 0 0 0-.07-.015c-.018 0-.044.004-.067.015-.055-.052-.107-.118-.159-.189-.081-.111-.17-.226-.292-.307-.063-.044-.129-.074-.192-.1-.085-.037-.159-.074-.207-.129-.007-.022-.011-.041-.018-.063.044.018.089.037.14.044l.251.052-.089-.244zm-2.78-2.643c.048-.015.111-.026.17-.033.129-.018.274-.041.373-.133l.078-.07-.044-.096c-.081-.181-.281-.196-.44-.207-.018 0-.033-.004-.048-.004-.137-.14-.296-.259-.484-.362l.044-.055c.118-.144.155-.377.089-.555-.004-.011-.011-.026-.015-.037l.137-.004c.159.1.314.207.47.314.011.111.085.163.118.185.004.004.007.004.011.007l.24.189-.004-.115c.37.277.728.573 1.076.887l.074.233c.041.129.118.222.189.299.059.07.111.129.126.203.004.015 0 .048-.004.074-.007.059-.018.133.007.214.03.096.115.196.251.348.067.074.144.159.174.211.052.089.092.17.137.248.033.059.063.118.096.177a.5306.5306 0 0 1-.174-.063c-.011-.007-.022-.015-.033-.018-.007-.007-.018-.011-.026-.018-.096-.07-.174-.177-.255-.288-.152-.207-.325-.444-.636-.458l-.07-.004-.044.055c-.03.037-.044.078-.052.118l-.111-.089c-.107-.089-.218-.181-.355-.255-.092-.052-.192-.092-.288-.137a1.266 1.266 0 0 1-.129-.059c-.059-.026-.111-.055-.17-.089-.096-.052-.192-.107-.322-.148-.059-.089-.133-.17-.218-.248l.011-.007c.037-.026.092-.096.052-.211zm4.569 3.393-.081.24a2.2678 2.2678 0 0 0-.226-.274l-.092-.092-.1.081a.318.318 0 0 0-.059.063.5233.5233 0 0 0-.052-.111c-.015-.03-.026-.052-.033-.074h.033l.181-.007-.052-.174c-.015-.055-.037-.104-.059-.152l.018-.022c.011-.015.018-.03.03-.044l.181.129-.004-.096c.148.233.292.473.425.713l-.111-.181zm.019 1.505-.015-.004c-.004-.004-.004-.007-.007-.015.007.007.015.011.022.018zm-.669-2.477c-.059-.074-.137-.14-.226-.192l-.148-.089-.022.059c-.007-.004-.015-.011-.026-.015l-.281-.144-.052-.085c-.07-.115-.126-.222-.192-.348-.044-.081-.085-.163-.137-.255-.044-.078-.126-.166-.211-.262-.03-.033-.07-.078-.107-.118.044.037.092.07.144.104.059.041.122.085.177.133.048.041.092.085.137.129.115.115.237.229.407.296.155.196.307.396.451.599.033.059.063.122.085.189zm-.281.843c-.007-.004-.011-.007-.018-.011-.203-.133-.351-.229-.344-.506a.0473.0473 0 0 1 .022-.007c.048-.018.118-.048.163-.122.037.044.078.089.115.133.067.07.126.137.17.211a.202.202 0 0 0-.044.03l-.033.026-.015.041c-.03.078-.026.144-.015.207zm-.396-1.035c-.07-.004-.133-.018-.189-.048a.3123.3123 0 0 0 .048-.018l.092-.041.048.107zm1.608 1.734c-.004.004-.011.007-.015.011-.007-.026-.015-.052-.022-.085-.011-.048-.022-.104-.041-.152.037.067.074.137.111.207l-.033.018zM17.545 1.908c1.678.251 3.32.806 4.843 1.664.067.059.137.115.203.166.026.018.052.041.078.059-.018.011-.041.018-.059.03l-.336.2.384.063c.015.004.044.007.067.063.015.037.018.085.011.133a.3564.3564 0 0 0-.185-.081l-.17-.022.007.17c.004.041-.007.052-.055.1-.022.022-.044.044-.067.078l-.115.155.181.063c.359.126.632.292.835.51l.026.03c-.055.015-.111.037-.159.07-.004 0-.004.004-.007.004-.007-.011-.015-.026-.022-.037-.059-.1-.122-.203-.218-.288l-.033-.03-.044-.004-.155-.022c-.118-.018-.24-.037-.355-.037-.233 0-.396.074-.499.233l-.081.122.126.078c.044.026.089.059.137.092.189.129.407.277.706.27.285.14.473.299.599.499l.03.048.052.015c.122.033.211.081.311.14.059.033.118.067.189.096.044.022.089.041.137.059.096.041.185.081.266.126.115.059.214.144.311.222.111.092.229.192.37.251l.085.037.07-.063c.063-.055.059-.133.055-.207.096.052.181.159.288.303l.033.044-.041.007-.026.085c-.096.311.048.492.189.621-.03.007-.055.022-.081.041l-.096.07.052.107c.041.085.074.189.1.277l.007.022.015.018c.092.129.222.189.333.24.055.026.107.048.152.078.081.055.152.144.222.24.092.122.185.244.325.329l.011.007.011.004c.037.015.067.018.104.011.104.133.207.281.314.444l.03.044.048.015c.096.03.174.085.255.152.011.126.067.211.122.277-.067.096-.063.218-.059.329-.107-.288-.322-.477-.643-.562l-.022-.007h-.022c-.037.004-.085.015-.122.059-.177-.104-.314-.259-.458-.421-.078-.085-.155-.177-.244-.259l-.03-.03-.041-.007c-.015-.004-.026-.004-.037-.004a.2349.2349 0 0 0-.004-.111c-.044-.17-.207-.203-.303-.222a.792.792 0 0 1-.078-.018c.011-.041.018-.092.007-.163l-.004-.015-.004-.011c-.137-.381-.388-.636-.632-.869l-.033-.03-.044-.007c-.159-.022-.27-.092-.399-.174-.174-.107-.37-.229-.688-.222h-.052l-.041.037c-.148.137-.226.27-.229.414-.007.226.163.392.322.551.115.115.233.233.262.351-.007.011-.011.018-.018.03-.022.037-.044.07-.07.096l-.026.03-.007.037c-.041.189.004.348.041.47.015.052.03.1.033.144.026.2-.037.355-.107.532-.052.129-.107.262-.133.429l-.004.026.007.026c.033.148.122.262.2.366.03.041.059.078.081.115a.174.174 0 0 1 .015.037c.015.037.033.089.074.133.044.052.1.074.144.096.022.007.044.018.052.026.067.059.107.152.152.251s.092.2.17.288c.055.063.126.115.192.163.152.111.214.166.2.277l-.015.137.137.018c.015.004.022.007.022.007l.03.033.044.011c.015.004.03.007.041.007.055.177.092.384.129.584.007.041.015.085.022.126l.022.126.085-.004c.026.026.07.067.14.067.03 0 .089-.007.137-.07l.037-.044-.007-.059c-.004-.018.022-.041.081-.089s.137-.107.181-.203c.052.015.111.037.196.037.022 0 .048 0 .07-.004l.104-.015.018-.104c.044-.255.17-.429.392-.54l.067-.033.011-.074c.007-.063.004-.115-.007-.152.052-.03.081-.085.081-.152v-.004c0-.052.011-.067.085-.122.052-.037.118-.085.159-.166l.022-.044-.011-.048c-.007-.033-.011-.067-.018-.1-.007-.048-.018-.096-.026-.14l.085.022c0 .111.004.222-.011.329l-.03.266.211-.111c.03.03.07.063.137.078l.037.007.037-.015a.1602.1602 0 0 0 .059-.037c.067.037.137.07.226.096l.115.033.033-.067c.026.011.055.018.092.022h.037l.033-.018c.107-.055.166-.148.214-.222.022-.033.041-.063.059-.085.03.074.07.137.14.163l.052.018.052-.018c.085-.033.111-.118.115-.207.007.007.018.015.026.022l.037.03h.026c.018.041.033.081.052.122l.037.229c.004.03.007.063.015.096.015.107.03.222.074.318l.044.096.104-.015c.03-.004.044 0 .07.015l.129.089c.107.447.196.898.262 1.349.144 1.933-2.64 2.617-6.41 2.854.096-.2.055-.407.011-.628-.007-.03-.011-.059-.018-.089-.067-.37-.214-.551-.418-.684-.037-.214-.166-.333-.27-.433-.104-.096-.177-.166-.185-.307l-.007-.092-.085-.033c-.325-.126-.477-.44-.621-.909l-.015-.048-.041-.03c-.181-.122-.381-.24-.677-.24-.085 0-.174.011-.27.03l-.074.015-.03.07c-.055.133-.089.285-.122.436-.115-.159-.318-.207-.495-.248-.07-.015-.14-.033-.2-.055a.6887.6887 0 0 0 .015-.133v-.055l-.037-.041c-.078-.089-.096-.177-.115-.292-.015-.089-.037-.192-.089-.299-.037-.081-.092-.148-.148-.211.159-.007.285-.1.388-.174.063-.044.122-.089.166-.1a.6518.6518 0 0 1 .148-.018c.085 0 .174.015.27.03.104.015.211.033.329.033.085 0 .163-.007.24-.03l.033-.007.026-.022c.118-.1.144-.207.144-.277 0-.196-.177-.348-.307-.458a.9438.9438 0 0 1-.07-.063l-.104-.096-.1.1c-.041.041-.074.089-.107.133-.022.03-.041.055-.063.081-.344-.067-.591-.237-.85-.414-.107-.074-.214-.148-.333-.218l-.063-.037-.067.026c-.107.044-.163.129-.203.192-.011.018-.026.037-.037.052a.781.781 0 0 0-.081-.122l-.059-.07-.089.026c-.092.026-.177.059-.259.092-.152.059-.292.115-.473.129-.214-.118-.177-.421-.096-.861.026-.152.055-.292.063-.425l.004-.081-.07-.044c-.041-.026-.081-.055-.126-.081-.163-.107-.329-.214-.484-.329l-.037-.026-.044-.004c-.288-.015-.481-.022-.754-.055l-.144-.015-.015.144c-.011.096-.096.196-.185.299-.052.059-.107.126-.155.2a3.4024 3.4024 0 0 0-.126-.118c-.052-.044-.115-.1-.129-.129-.018-.037-.022-.092-.026-.152-.004-.052-.007-.107-.022-.166-.018-.059-.041-.111-.059-.152-.026-.059-.044-.092-.044-.133v-.055l-.041-.041c-.044-.044-.092-.055-.126-.055s-.059.011-.078.018c-.018-.011-.037-.026-.055-.037-.14-.092-.281-.189-.373-.314.24-4.063.884-7.153 2.865-7.017zm5.257 3.611c-.037-.018-.074-.041-.115-.059l-.033-.015-.037.004c-.214.015-.373-.089-.543-.207.037-.011.078-.015.137-.015.096 0 .2.015.314.033.037.007.078.011.118.015.048.052.089.118.129.189.007.018.018.037.03.055zm4.218 5.512c0 .041-.011.067-.033.115-.018.041-.041.089-.055.148a.2526.2526 0 0 0-.063.044l-.155.015.052.166c.022.074.037.155.052.244.004.015.004.026.007.041-.015.011-.033.026-.052.041-.07.052-.166.122-.196.266-.026.015-.052.033-.07.059l-.026.033-.004.041c-.007.067.004.118.011.155v.007c-.218.133-.362.329-.433.577-.015-.004-.03-.007-.048-.015-.048-.015-.111-.037-.192-.037h-.144l.004.144c0 .052-.03.081-.107.144-.022.018-.044.037-.07.059-.048-.262-.1-.529-.2-.754l-.033-.074-.081-.007h-.022c-.007 0-.026 0-.048.007-.044-.177-.192-.285-.307-.366-.055-.041-.111-.081-.144-.118-.048-.055-.085-.137-.126-.218-.052-.115-.115-.244-.222-.344-.041-.037-.089-.059-.126-.074-.015-.007-.041-.018-.048-.022l-.007-.007c-.004-.004-.011-.022-.015-.037-.011-.026-.022-.059-.044-.092-.03-.048-.063-.092-.096-.133-.059-.078-.115-.152-.14-.229.022-.118.067-.226.111-.336.081-.196.163-.403.126-.68-.007-.063-.026-.126-.044-.185-.03-.1-.055-.192-.041-.299.03-.037.052-.074.074-.107.015-.022.026-.044.041-.063l.03-.041-.004-.048c-.011-.24-.192-.421-.351-.58-.118-.118-.24-.24-.24-.344 0-.052.033-.107.096-.17.2.007.329.089.477.181.126.078.27.166.462.207.207.196.41.414.525.713 0 .015-.004.03-.007.055-.004.011-.004.018-.007.03l-.004.018v.022c.015.218.214.259.311.277.015.004.03.007.048.011-.037.063-.03.126-.011.177.007.026.018.044.03.059.004.007.007.015.011.018l.03.081.085.011c.015.004.03.004.044.004.041 0 .07-.007.092-.015.063.063.122.129.181.2.181.203.366.414.651.54l.022.011.022.004h.022c.037 0 .1-.011.144-.07.174.067.292.181.355.351l-.092-.055-.004.244zm-9.268.803.03.015h.033c.24-.015.421-.081.595-.148.048-.018.092-.037.137-.052.041.089.041.189.037.333 0 .089-.004.181.011.277.044.277.233.436.396.58.104.089.203.17.251.274.037.074.048.148.063.226.022.118.044.248.144.381-.004.018-.007.041-.015.063s-.011.048-.018.07l-.018.092.078.052c.111.078.248.111.384.14.052.011.1.022.148.037-.026.015-.052.03-.078.048-.015.011-.033.018-.048.03-.037-.063-.096-.126-.192-.152l-.059-.015-.052.033c-.177.115-.189.355-.2.566-.004.067-.007.126-.015.177-.004.033-.015.067-.022.104-.018.067-.037.144-.033.226.011.152.074.288.133.421.063.14.126.274.107.399l-.018.137.137.022c.041.007.081.011.122.018.288.041.333.067.322.207l-.007.092.081.044c.115.063.262.074.366.074.078 0 .159-.007.233-.022l.074-.015.03-.07c.085-.189.192-.303.351-.355.015.015.033.033.052.048.155.155.329.329.64.366l.185.022-.026-.185c-.03-.218-.159-.344-.281-.462-.026-.022-.048-.048-.074-.074-.037-.037-.067-.074-.104-.115-.115-.133-.24-.281-.458-.322a.8348.8348 0 0 0-.096-.007c-.133 0-.244.048-.34.104v-.015l-.17.03a.3713.3713 0 0 1-.067.007c-.2 0-.351-.192-.495-.377l-.078-.1c.011-.078.011-.163.011-.244.144-.07.274-.148.399-.226.089-.052.177-.107.27-.155l.059-.033.011-.067c.03-.174.063-.351.115-.503a.9355.9355 0 0 1 .137-.011c.177 0 .311.059.473.163.122.392.296.813.699 1.009.041.2.163.314.266.407.104.096.181.166.189.314l.004.074.063.037c.181.107.288.226.344.529.007.03.011.059.018.089.044.222.063.348.004.458-1.826.122-4.048.2-6.61.229v-.081c.004-.214.015-.503-.262-.61l-.044-.018-.092.022c-.137.033-.277.07-.399.133a.1375.1375 0 0 0-.037-.033l-.041-.026-.048.004c-.041.004-.078.015-.104.03a.2096.2096 0 0 0-.018-.037c.026-.048.052-.1.048-.177.059-.03.129-.044.207-.063.104-.022.211-.048.307-.111.089-.055.144-.144.196-.233.059-.096.1-.159.155-.177.015.004.03.015.055.033.03.022.067.048.118.067l.044.018.048-.015c.24-.07.34-.292.433-.488.037-.078.07-.155.111-.214.018-.03.059-.063.104-.096.07-.055.148-.115.189-.214.037-.089.041-.177.041-.255 0-.055.004-.107.015-.144l.07-.2-.211.011c-.122.004-.211.041-.288.07-.044.018-.085.033-.126.044l-.063.015-.03.055c-.03.052-.055.1-.081.152-.096.181-.185.351-.333.44l-.063.037-.007.07c-.004.022-.007.044-.018.063-.044-.055-.1-.089-.163-.111a.6726.6726 0 0 0 .096-.026l.022-.007.018-.015c.152-.115.207-.277.259-.421.022-.07.048-.133.074-.185.026-.044.081-.096.14-.155a2.25 2.25 0 0 0 .159-.163c.041-.044.074-.089.107-.133.092-.122.152-.192.248-.218l.129-.033-.022-.129c-.015-.078-.03-.148-.044-.214-.033-.14-.063-.27-.063-.421v-.004c0-.037.007-.085.015-.133.015-.096.033-.207-.004-.322-.037-.129-.152-.203-.251-.27-.055-.037-.115-.078-.144-.115-.041-.052-.055-.104-.074-.163-.018-.063-.041-.133-.089-.207l-.022-.033-.037-.018c-.022-.011-.048-.022-.07-.033-.177-.081-.344-.155-.421-.318-.015-.026-.022-.096-.03-.148a1.052 1.052 0 0 0-.037-.189l-.015-.041c-.041-.118-.089-.266-.059-.421.022-.111.107-.207.2-.314.081-.092.166-.192.218-.314.207.022.381.03.606.041.152.111.307.214.462.314.018.011.033.022.052.033-.011.096-.03.2-.052.307-.078.458-.177 1.006.292 1.209zm1.124.173c.011.041.018.085.03.126.022.096.041.192.074.281-.048-.059-.081-.126-.092-.203-.015-.067-.015-.133-.011-.203zm.174-.358a.3104.3104 0 0 0 .026-.041c.011-.015.018-.03.03-.041.078.048.155.1.233.155.292.2.591.407 1.039.473l.063.007.048-.041c.063-.052.111-.115.152-.17.074.063.174.155.174.211 0 .011-.007.026-.018.037a.8639.8639 0 0 1-.137.011c-.092 0-.185-.015-.285-.03s-.203-.033-.314-.033c-.078 0-.148.007-.218.026-.104.026-.189.089-.27.148-.081.063-.159.118-.233.118-.085-.081-.118-.244-.155-.414-.033-.14-.067-.292-.133-.418zm1.604 4.255c.048-.026.089-.052.133-.078.104-.067.185-.118.285-.118.018 0 .033 0 .048.004.074.015.133.055.196.122l-.07.015c-.262.055-.455.207-.588.466-.092.011-.192.007-.266-.007-.03-.325-.351-.373-.558-.403-.015-.152-.078-.288-.133-.41-.052-.115-.1-.222-.107-.325-.004-.033.011-.081.022-.133l.022-.089c-.004.052-.007.1-.015.144l-.011.07.044.052c.037.041.074.089.111.137.163.207.362.458.673.484v.185l.214-.115zm-.987-1.272c.004-.033.004-.074.007-.107l.018.096-.026.011zm-3.286.887a.5354.5354 0 0 0 .159-.262c.181-.133.285-.325.384-.518.015-.033.033-.063.048-.092a.6628.6628 0 0 0 .104-.041c.007-.004.015-.004.022-.007 0 .059-.004.115-.018.152-.011.026-.059.067-.104.1-.055.044-.118.092-.163.159-.055.078-.096.166-.133.255-.059.129-.118.255-.203.311-.004-.004-.007-.004-.007-.007-.026-.011-.055-.03-.089-.048zm.04-3.567c.007.004.018.007.026.011.015.03.026.063.037.1.022.07.048.159.118.251.059.078.14.133.214.181.052.033.126.085.137.115.015.052.004.118-.007.192-.007.059-.018.118-.018.181 0 .163.03.303.059.44l-.089-.004c-.011 0-.026-.004-.041-.007-.026-.004-.052-.011-.081-.011-.067 0-.122.026-.163.07-.041-.115-.137-.196-.196-.24l-.052-.037-.063.015c-.229.055-.392.155-.495.303l-.137.196.004-.063c.007-.104-.007-.196-.018-.277a.9229.9229 0 0 1-.018-.166c.004-.144.037-.292.074-.451.03-.122.055-.251.074-.384.041-.311.011-.75-.041-1.024-.015-.085-.048-.163-.078-.229-.026-.055-.055-.126-.052-.155.007-.022.052-.067.085-.1.018.085.044.163.063.222l.011.033c.011.041.018.096.026.144.011.085.026.166.055.233.126.262.37.373.566.462zm-.073 1.627c-.033.007-.044 0-.104-.033-.004-.004-.007-.004-.015-.007.022-.007.044-.018.07-.026.03.03.044.055.048.067zm-.829-2.936c-.078.074-.166.159-.185.274-.015.111.03.214.074.314.026.055.052.115.059.166.044.248.07.662.037.939-.015.122-.044.24-.07.359-.037.163-.078.333-.081.506-.004.081.011.152.022.222.007.041.015.078.015.115-.07.03-.129.067-.189.096-.07.041-.129.074-.192.092-.048.015-.104.018-.163.018-.067.004-.144.007-.218.03 0-1.53.011-3.046.07-4.451.078.063.159.115.233.166.037.022.07.048.104.07l.018.011.018.007c.022.007.044.011.067.011.011.03.026.059.037.089.018.037.033.07.044.107.007.026.011.067.011.107.004.074.011.166.055.259.041.085.122.152.2.218.048.041.129.111.14.14 0 .033-.07.1-.107.133zm-.846 3.427c.048-.026.111-.03.185-.033.07-.004.148-.007.229-.03.1-.03.177-.074.255-.122.074-.044.144-.081.226-.107l.067-.018-.011.015.307-.03c.067-.007.103.015.159.048s.126.078.229.078c.055 0 .115-.015.177-.041l.03-.011.022-.022c.022-.022.037-.048.052-.074l.018.007c.018.03.055.081.129.096-.004.004-.007.007-.007.011-.03.041-.063.081-.096.118-.044.052-.092.096-.14.144-.074.07-.144.137-.192.218-.041.078-.07.155-.096.233-.041.111-.074.211-.144.274a.5342.5342 0 0 1-.137.018c-.026 0-.048 0-.07-.004.018-.033.03-.067.041-.104.022-.104.007-.214-.044-.322.03-.033.055-.085.059-.159l.004-.104-.1-.037c-.033-.011-.063-.018-.092-.026s-.063-.015-.081-.026l-.152-.067-.044.163c-.041.152-.122.27-.211.399l-.048.07-.115.17.2.048c.07.018.126.055.181.107l-.004.052c-.004.085.03.14.052.17 0 .004.004.004.004.007l-.004.104.104.033c.067.022.14.03.214.037.026.004.055.007.085.011-.018.041-.022.089-.011.144l.015.074.067.03h.004c-.063.059-.107.133-.144.196-.037.059-.074.118-.107.14-.059.037-.137.055-.218.074-.126.03-.266.059-.392.166l-.074.059.026.089c.007.03.007.041.007.041 0 .004-.007.015-.011.022-.015.03-.037.067-.052.126l-.018.081.063.055c.022.022.03.041.018.137-.033-.011-.063-.011-.089-.011-.018 0-.037 0-.055.004-.015 0-.033.004-.044 0l-.152-.007v.152c0 .063.015.111.033.14l-.052.074h-.081c0-1.006-.007-2.03-.007-3.05.007-.015.022-.026.037-.033zm.954.599c-.004.011-.007.022-.015.033a.7795.7795 0 0 0-.085-.063c.026-.037.048-.074.07-.111.03.048.037.1.03.14zm-.459 2.396a.256.256 0 0 1 .022-.044l.011-.022h.033c.078 0 .133-.03.17-.067.026.015.059.026.1.026l.063.004.044-.044c.089-.089.248-.133.421-.174.044.041.052.133.048.318v.089c-.318 0-.64-.004-.957-.004.018-.03.033-.059.044-.081zm-1.693 13.734c-3.006-.418-5.908-1.793-8.218-4.14-2.325-2.355-3.682-5.316-4.081-8.384C-.776 6.293 11.767-.427 17.047 1.247c-1.826-.495-3.394.928-3.394 16.902 15.741 0 17.146-1.597 16.654-3.445 1.652 5.36-4.987 18.115-16.832 16.096z"/><path d="M11.231 5.756S.089 7.028 2.451 22.61c-.078-1.094-.092-2.111-.055-3.057.111.226.244.396.396.51.041.033.092.041.155.037.096.092.189.214.277.366l.048.078.092-.011c.015 0 .03-.004.041-.004.081 0 .137.03.203.067.018.011.041.022.059.03.089.129.166.274.244.421.166.314.34.636.64.854l.048.033.059-.007c.2-.03.403-.041.603-.048.296-.015.58-.026.824-.104.078.07.159.133.244.192.115.081.226.159.314.27.03.037.055.089.081.14.033.07.07.148.129.211.1.115.24.226.388.34.174.133.351.274.481.433.018.022.041.048.059.074.144.177.311.381.492.477.085.044.181.059.274.078.059.011.115.018.163.037.081.026.189.078.296.129.03.015.063.03.092.044.052.022.1.052.148.081.107.067.218.133.359.133.078 0 .152-.018.229-.059l.067-.033.018-.122c.011-.089.026-.181.03-.281v-.026l-.007-.022c-.037-.118-.122-.251-.207-.399-.148-.24-.325-.532-.266-.713.104.266.281.521.429.736l.055.078c.07.1.129.207.192.311.092.163.181.314.288.429.07.074.152.129.226.177.081.055.155.1.189.166.037.07.067.144.096.222.078.203.166.436.444.566l.026.011h.026c.348.022.617.122.902.226.044.018.092.033.14.052l.092.033.063-.078c.033-.041.081-.067.133-.1.067-.041.144-.085.211-.166.048-.055.078-.122.104-.181a.7919.7919 0 0 1 .03-.063c.037.155.026.336-.03.54l-.026.089.07.059c.181.148.359.322.458.573-.007.007-.015.015-.018.022l-.007.007-.059.037-.004.074c-.011.222-.111.348-.229.495-.067.081-.137.17-.189.277l-.026.048.015.055c.018.07.063.115.1.144-.14.104-.381.137-.632.17l-.166.022-.033.004-.026.018c-.059.041-.104.089-.14.129-.022.022-.041.044-.059.063-.033.004-.063.007-.089.011-.052.007-.096.011-.144.007l-.067-.007-.048.048c-.022.022-.048.044-.07.07-.085.085-.152.155-.259.177l-.085.018-.026.081c-.007.026-.015.055-.018.078s-.011.059-.018.07c.004-.007.022-.018.03-.018l-.048.277.055.022c-.033.011-.067.022-.096.03-.052.018-.1.033-.152.044l-.214.052.137.174c.129.163.384.189.525.189.174 0 .41-.037.547-.144l.107-.085c.111.018.226.03.344.03h.078c.085-.004.17-.022.251-.037.085-.018.163-.033.237-.033h.011c.181.004.359.081.566.177.115.052.233.107.362.152.092.033.189.033.281.033-1.468.2-3.142.259-5.054.118 15.353 2.384 16.61-8.913 16.61-8.913l-14.625-.011-.007-14.858zm-.891 16.203.018-.063c.048-.163.152-.333.288-.436h.425c-.074.081-.144.163-.214.244-.115.133-.222.259-.336.373-.126.026-.244.063-.355.1-.03.011-.059.018-.089.03a.377.377 0 0 0 .007-.07c.004-.004.011-.007.015-.011.063-.059.122-.107.189-.14l.052-.026zm-.144-14.721v1.823c-.126.085-.214.181-.296.266-.089.092-.163.174-.266.226-.052.026-.122.033-.2.041-.085.011-.185.018-.292.055-.166.059-.333.229-.47.366l-.037.037c-.037.037-.078.074-.122.111-.118.104-.237.211-.307.348-.126.24-.155.518-.185.787-.015.137-.03.281-.059.414-.018.081-.041.155-.067.237-.052.17-.107.344-.096.577.004.089.026.185.044.277.026.118.052.24.041.34-.004.044-.03.092-.063.148-.033.059-.074.133-.096.218-.296.222-.333.636-.329.954-.048.059-.096.111-.152.155-.248-.174-.495-.262-.732-.266h-.063l-.044.044c-.281.296-.606.558-.924.813-.159.129-.322.259-.481.396-.104-.063-.226-.107-.388-.107a.1691.1691 0 0 1-.011-.026c-.037-.07-.085-.163-.2-.207-.092-.037-.196-.037-.296-.041-.092 0-.189 0-.24-.037l-.07-.044-.074.041c-.14.078-.233.2-.325.322-.085.107-.163.211-.259.259-.052.026-.1.041-.148.059s-.1.033-.152.059c1.39-6.159 5.427-8.074 7.357-8.643zm4.773 22.015c-.026-.004-.052-.011-.081-.015l-.055-.011c-.041-.007-.085-.026-.133-.044-.052-.022-.107-.044-.17-.059-.059-.015-.118-.015-.174-.015h-.044c-.067 0-.137.004-.185-.015-.118-.041-.233-.092-.34-.14-.226-.104-.44-.2-.68-.203h-.015c-.104 0-.2.018-.296.037-.074.015-.14.03-.203.03-.377.015-.695-.092-1.024-.218.007-.022.011-.041.015-.059.14-.052.233-.148.314-.233l.018-.018c.055 0 .104-.007.144-.011a.9032.9032 0 0 1 .096-.007h.041l.033-.022c.063-.041.107-.089.148-.133.022-.026.041-.048.063-.063.041-.007.085-.011.126-.015.359-.048.728-.092.913-.377l.037-.055-.018-.063a.2911.2911 0 0 0-.118-.152c.033-.048.07-.096.111-.144.122-.152.255-.318.285-.591l.177.018-.055-.2c-.096-.355-.311-.591-.518-.773.067-.303.044-.573-.067-.802l-.033-.07h.015l-.022-.174c-.022-.159-.044-.34-.092-.503.085-.177.226-.311.37-.447.044-.044.092-.089.137-.133l.192-.196-.244-.041v-.004c0-.03-.004-.067-.015-.107l-.018-.074-.07-.026c-.007-.004-.011-.004-.018-.007-.033-.015-.085-.041-.163-.037l-.081.004-.037.074c-.07.14-.185.248-.303.362-.159.152-.34.325-.421.599l-.007.03.004.03c.011.081.03.155.044.226.015.067.03.133.041.2l.011.07.063.033c.155.081.281.096.455.107h.018c-.203.026-.277.203-.322.311-.018.041-.037.085-.055.107-.037.044-.085.07-.14.104-.044.026-.089.052-.133.089-.018-.007-.037-.015-.052-.018-.285-.104-.577-.211-.954-.24-.155-.081-.207-.222-.277-.399-.03-.081-.063-.166-.111-.251-.07-.129-.185-.203-.285-.27-.063-.041-.126-.081-.17-.129-.089-.092-.166-.233-.251-.381-.063-.107-.129-.222-.203-.329-.018-.026-.037-.052-.055-.081-.155-.226-.351-.506-.429-.765l-.03-.104h-.351l-.044.052c-.262.325 0 .758.211 1.105.07.118.14.233.174.314-.004.067-.011.129-.022.196-.011.004-.022.004-.033.004-.063 0-.126-.041-.211-.092a1.3261 1.3261 0 0 0-.177-.096c-.03-.015-.059-.03-.089-.041-.111-.055-.229-.111-.325-.14a1.3864 1.3864 0 0 0-.203-.048c-.074-.015-.144-.026-.192-.048-.129-.067-.281-.255-.399-.403-.022-.026-.041-.052-.063-.078-.152-.181-.351-.336-.525-.477-.137-.107-.266-.211-.351-.303-.033-.037-.059-.092-.089-.148-.033-.067-.067-.14-.122-.2-.111-.133-.24-.226-.366-.318-.1-.07-.192-.137-.262-.218l-.067-.078-.096.041c-.218.089-.51.104-.821.118-.185.007-.377.018-.569.044-.218-.177-.359-.444-.51-.721-.089-.163-.177-.333-.285-.484l-.022-.033-.037-.015c-.026-.011-.048-.022-.078-.037-.078-.041-.177-.092-.318-.1-.1-.155-.203-.281-.314-.384l-.022-.015a.2393.2393 0 0 0-.126-.033h-.03c-.148-.122-.274-.325-.381-.61-.011-.861.033-1.693.129-2.484.022-.122.044-.24.067-.359.059-.078.122-.14.181-.189.044-.033.096-.052.163-.074.052-.018.111-.037.177-.07.159-.078.266-.218.362-.344.059-.078.118-.155.181-.207.1.037.207.037.303.037.07 0 .148 0 .192.018.015.004.03.033.052.074s.048.092.092.14l.048.052.07-.007c.022-.004.044-.004.067-.004.137 0 .218.052.303.115l.092.07.089-.078c.181-.159.37-.311.555-.458.307-.248.625-.503.909-.791.185.018.381.107.584.266l.078.059.085-.052c.137-.085.237-.196.333-.314l.033-.041v-.055c-.015-.425.067-.684.244-.795l.059-.037.007-.07c.007-.063.037-.118.074-.181.041-.074.089-.159.1-.262.015-.14-.015-.285-.048-.425-.018-.085-.037-.166-.041-.233-.007-.181.033-.318.085-.477.026-.081.052-.166.07-.262.03-.148.048-.296.063-.44.026-.255.052-.495.152-.688.044-.089.14-.174.24-.266.044-.041.089-.078.133-.122l.041-.041c.1-.104.251-.259.359-.296.074-.026.148-.033.229-.044.096-.011.196-.022.296-.07.152-.078.251-.185.351-.288.03-.03.055-.059.085-.089v12.03h.063c-.067.092-.118.192-.155.296-.078.044-.14.1-.2.155-.018.015-.037.033-.055.048l-.044.041-.004.059c-.004.092-.022.174-.037.262l-.052.27.214-.048c.115-.026.222-.059.325-.092.122-.041.237-.078.366-.1l.041-.007.03-.03c.137-.133.262-.281.384-.421.129-.152.255-.299.396-.429h10.311l.018.081.1.015c.085.011.14.052.181.133-.052.192-.026.373.085.543l.067.107.115-.052c.107-.048.196-.115.281-.177.07-.052.133-.096.203-.133-.067.111-.137.226-.2.344l-.118.222.251-.015c.1-.004.177-.059.248-.118.044.092.111.152.166.196.044.037.078.067.092.1l.085.2.148-.159c.052-.055.067-.122.074-.174l.022-.011c.111-.055.248-.07.392-.089l.078-.011c-.185.514-.44 1.102-.795 1.708-1.187 1.9-3.394 4.03-7.468 4.95-.266.055-.547.096-.835.133zm-1.634-5.748c.011-.015.022-.03.033-.041 0 .004.004.004.004.007-.007.007-.015.015-.022.018-.004.007-.011.011-.015.015zm-.448.676c.033.1.055.214.074.325a.414.414 0 0 1-.1-.03c-.011-.052-.022-.1-.033-.148-.015-.055-.026-.111-.037-.166.063-.174.181-.299.314-.425-.085.096-.159.207-.214.34l-.022.048.018.055zm11.364-2.037h-.004c-.085.026-.185.037-.288.048-.115.015-.233.03-.348.063a.2817.2817 0 0 0-.074-.03l-.063-.007-.048.041a.3202.3202 0 0 0-.089.115c-.07-.059-.096-.096-.078-.207l.048-.277-.133.067.067-.111.118-.203-.237-.011c-.299-.015-.499.129-.669.251l-.111.078c-.018-.07-.011-.144.018-.226l.018-.052-.018-.052c-.026-.063-.055-.122-.096-.166h2.192c-.052.2-.122.429-.207.68z"/></symbol>
    
    <symbol id="icon-checked" viewBox="0 0 46 32" fill="var(--current-color)"><path d="M41.143 0c-1.371 0-2.286.457-3.2 1.371L18.286 21.028 7.772 10.514c-.914-.914-1.829-1.371-3.2-1.371-2.286 0-4.571 2.286-4.571 4.571 0 1.371.457 2.286 1.371 3.2l13.714 13.714c.914.914 1.829 1.371 3.2 1.371s2.286-.457 3.2-1.371L44.343 7.771c.914-.914 1.371-1.829 1.371-3.2C45.714 2.285 43.428 0 41.143 0z"/></symbol>
    
    <symbol id="icon-downArrow" viewBox="0 0 32 32" fill="var(--current-color)"><path d="M0 30.08C0 31.147.853 32 1.92 32h27.947c1.067 0 1.92-.853 1.92-1.92s-.853-1.92-1.92-1.92H1.92c-1.067 0-1.92.853-1.92 1.92zm17.493-6.4c-.427.427-.853.64-1.493.64s-1.067-.213-1.493-.64l-7.04-7.04c-.853-.853-.853-2.133 0-2.773s2.133-.853 2.773 0l3.627 3.627V2.134c0-1.067.853-1.92 1.92-1.92s1.92.853 1.92 1.92v15.36l3.627-3.627c.853-.853 2.133-.853 2.773 0s.853 2.133 0 2.773l-6.613 7.04z"/></symbol>
    
    <symbol id="icon-lupa" viewBox="0 0 32 32" fill="var(--current-color)"><path d="m31.238 29.714-4.876-4.724c2.438-2.59 3.962-6.095 3.962-9.905 0-8.076-6.705-14.629-15.086-14.629C7.009.456.152 7.008.152 15.085s6.705 14.629 15.086 14.629c3.505 0 6.857-1.219 9.448-3.2l4.876 4.724c.152.152.457.305.762.305s.61-.152.762-.305c.61-.305.61-1.067.152-1.524zM15.39 27.429c-7.01 0-12.8-5.486-12.8-12.343S8.228 2.743 15.39 2.743c7.01 0 12.8 5.486 12.8 12.343s-5.79 12.343-12.8 12.343z"/></symbol>
    
    <symbol id="icon-megalogo" viewBox="0 0 123 32" fill="var(--current-color)"><path d="M20.513 25.026h-.082v.082c-.082 0-.082 0-.164.082V25.6h.164c.164 0 .41-.082.492-.41v-.164H20.513zM23.795 15.754h.082v-.164c0-.164-.082-.246-.246-.246h-.328v.082c-.164-.082-.328-.246-.41-.41.082-.082.164-.246.164-.328s0-.082.082-.164l.082-.246H22.811v.082h-.246l-.246.246-.082.082v.082c-.082.41.164.738.41.985.082.082.082.164.164.164 0 0-.082.082-.082.164.082.164.164.328.328.41l.082.082.082.082h.492l.082-.082v-.082s.082-.082.082-.164v-.082c.164-.164.082-.328-.082-.492zm0 .656h-.246l-.082-.082c-.082-.082-.164-.164-.164-.246V16s0-.082.082-.082v-.082l-.082-.082c-.082-.082-.164-.164-.246-.328-.164-.164-.328-.41-.328-.656v.082c.082.328.328.574.574.738 0 .082.082.164.082.164.246.328.328.41.41.656 0-.082 0 0 0 0zM24.123 26.256h-.082c-.246 0-.328.164-.41.328l-.082.082-.082.082s-.082.164-.164.164h-.082c-.082 0-.082 0-.164.082-.328.164-.41.492-.492.738-.246.082-.328.328-.41.492l-.082.082.082.082c.082.082.246.164.41.164.328 0 .656-.246.82-.41v-.246l.082-.082c.41-.328.903-.738.738-1.559h-.082zm-.902 1.477-.164.164v.164c-.164.164-.492.328-.738.246.082-.164.164-.164.246-.246h.082v-.082c.082-.246.164-.492.41-.656h.082c.082 0 .082 0 .164-.082l.246-.246.082-.082c0-.082.082-.082.082-.164s.082-.082.082-.164c.164.574-.164.82-.574 1.149zM68.677 9.846 67.2 8.369h-5.99l-1.477 1.477v4.431l1.477 1.395h5.99l1.477-1.395v-2.954h-4.513L62.687 12.8H67.2v1.477h-5.99V9.846zM50.79 14.277V12.8h5.908v-1.477H50.79V9.846h7.385l-1.477-1.477h-7.467v7.303h7.467l1.477-1.395zM90.585 11.323V9.846l-1.477-1.477h-7.467v7.385h1.477V12.8h5.99l1.477-1.477zm-7.467-1.477h5.99v1.477h-5.99V9.846zM115.61 11.323V9.846h7.467L121.6 8.369h-5.99l-1.477 1.477v1.477l1.477 1.395h5.908v1.477h-7.385l1.477 1.477h5.99l1.477-1.477v-1.477l-1.477-1.395zM104.123 14.195V8.369h-1.559v7.303h7.467l-1.477-1.477zM111.097 8.369h1.477v7.385h-1.477V8.369zM101.087 9.846 99.61 8.369h-5.99l-1.559 1.477v4.431l1.559 1.477h5.99l1.477-1.477V9.846zm-1.477 4.349h-5.99V9.764h5.99v4.431zM72.123 8.369l-1.477 1.477v5.908h1.477V12.8h5.99v2.954h1.477V9.846l-1.559-1.477h-5.908zm5.99 2.872h-5.99V9.764h5.99v1.477zM39.303 8.369l-1.477 1.477v5.826h1.477V9.846h2.462v5.826h1.559V9.846h2.462v5.826h1.477V9.846l-1.477-1.477zM15.344 6.646l-.082.082c-.082.246.082.41.164.492s.082.082.082.164l.082.082h.082c.164 0 .492-.082.574-.328l.164.082.082-.082c0-.082.082-.082.082-.082l.164-.164.082-.164-.246-.082c-.246-.082-.492-.082-.574.082-.082 0-.082-.082-.164-.082h-.328c0-.082-.082 0-.164 0zm.492.164c.082.082.164.082.246.164 0 .082-.082.164-.246.164 0-.082-.082-.082-.082-.164-.082-.082-.082-.164-.082-.164h.164c-.082 0-.082 0 0 0zM11.569 11.241l-.082-.082-.082.082-.164.164c-.164.164-.41.328-.574.574v.164c.082.082.082.164.164.246l.082.082h.082c.246-.082.738-.41.738-.82.082-.164.082-.328-.164-.41zm-.492.821s-.082 0 0 0c.082-.246.246-.328.41-.492l.082-.082v.082c0 .164-.328.41-.492.492zM11.815 8.862c-.082-.082-.164-.246-.328-.328-.082 0-.246-.082-.328-.082-.164 0-.246 0-.328-.082l-.164-.082-.082.164s0 .082-.082.082c0 .082-.082.164-.082.246v.082c.082.246.246.41.492.492h.164c.164-.082.41-.164.738-.246l.246-.082-.246-.164c0 .082 0 .082 0 0zm-.82.246c-.082-.082-.246-.164-.246-.246 0 0 0-.082.082-.082s.246.082.328.082.164 0 .246.082c.082 0 .082.082.164.082-.246 0-.41 0-.574.082z"/><path d="M20.923 5.744v14.851H5.826s1.313 11.323 17.067 8.944c-1.149.082-2.133.082-3.118.082.246-.082.41-.246.574-.41.082-.082.082-.082 0-.164.082-.082.246-.164.41-.246l.082-.082v-.082c0-.082 0-.164.082-.246v-.082c.164-.082.246-.164.41-.246.328-.164.656-.328.903-.656v-.164c0-.164 0-.41-.082-.574 0-.328 0-.574-.082-.82.082-.082.164-.164.164-.246.082-.082.164-.246.246-.328 0 0 .082-.082.164-.082s.164-.082.246-.164c.082-.082.246-.246.328-.41.164-.164.246-.328.41-.492l.082-.082c.164-.164.41-.328.492-.492.082-.082.082-.164.082-.246v-.164c0-.082.082-.164.164-.328l.082-.082c0-.082.082-.082.082-.164.082-.164.246-.328.082-.574v-.082H24.286c-.082 0-.246.082-.41.246-.246.164-.574.328-.738.246.246-.082.492-.246.738-.41l.082-.082c.082-.082.246-.164.328-.164.164-.082.328-.164.41-.328.082-.082.164-.164.164-.246.082-.082.082-.164.164-.164s.164-.082.246-.082c.246-.082.41-.164.574-.41v-.082c0-.328.082-.656.246-.903l.082-.246-.082-.082s-.082-.082-.082-.164-.082-.164-.164-.246c-.082-.082-.164-.082-.164-.082h-.082H26.254l.082-.082c.164-.164.328-.328.574-.492v.082h.082c.246 0 .328.082.492.246.082.082.164.164.246.164h.164c.082 0 .082-.082.164-.082.082.164.164.41.164.656v.246c0 .082.082.082.164.164 0 0 .082 0 .082.082v.328l.082.082.082.082c.082.082.164.164.164.246v.082h.246l.246.082v-.082.082c0 .082 0 .082.082.164l.082.246.164-.164c.246-.246.246-.82.082-1.067l-.082-.082V18.795c0-.082.082-.328.164-.574.082-.082.082-.246.164-.328v-.246c.164 1.477.246 3.2.082 5.087 2.38-15.672-9.108-16.985-9.108-16.985zm1.559 1.641c0 .082 0 .164.082.328 0 .082 0 .246.082.328v.246c0 .082.082.082.082.082-.082.082-.082.082-.246.082l-.246-.082.082.164-.082-.082-.246-.082v.246c0 .328.164.492.246.656l.082.082H21.908c-.082 0-.082.082-.164.082V7.22c.246 0 .492.082.738.164zm-.738 13.374.246.246c.164.082.246.246.41.328 0 .164.082.246.082.328v.082H22.4l-.164-.164v-.082h-.082c-.164-.082-.328-.164-.41-.328v-.41zm-14.359.903h1.887c.082.164.164.246.246.328l.246.246c0 .082 0 .082.082.164 0 .082 0 .164.082.328s.246.328.41.492l.082.082.328.328c.246.164.492.164.82.164.164 0 .246 0 .41.082.082 0 .164.082.246.082.164.082.328.082.492.082h.082c.082 0 .164 0 .246-.082.082 0 .246-.082.328-.082s.082 0 .164.082c.082 0 .164.082.246.082.164.246.492.328.903.328h.082l.164.164c-.164.246-.246.492-.246.738v.082l.082.082c.328.246.574.656.821.903.164.164.246.328.41.492-.082.082-.082.246-.082.41-.082 0-.164.082-.246.164V27.977l-.082.082.082.082c.082.164.164.246.328.328.082.082.246.164.246.246s.082.082.082.164 0 .082.082.164c-6.564-1.313-8.451-5.415-9.026-7.385zm15.753 1.066c.246 0 .574-.164.82-.328.082-.082.246-.164.328-.164h.164c0 .082 0 .164-.082.246 0 .082-.082.082-.082.164l-.082.082c-.082.082-.082.246-.164.328 0 .082 0 .164-.082.246 0 .082 0 .164-.082.164-.082.164-.246.246-.41.41l-.082.082-.492.492c-.082.164-.246.246-.328.328 0 0-.082.082-.164.082s-.164.082-.164.082c-.164.082-.246.246-.328.41l-.246.246-.082.082v.082c.082.246.082.492.082.82 0 .164 0 .41.082.574-.164.246-.41.328-.738.492-.164.082-.328.164-.492.328v.082c-.082.082-.082.164-.082.328-.164.082-.328.246-.41.328v.164c-.164.164-.328.246-.656.41h-.246c-.82 0-1.641-.082-2.38-.164-.082 0-.164 0-.246-.082s-.164-.082-.164-.164-.082-.082-.082-.164 0-.082-.082-.164c-.082-.164-.246-.246-.328-.41-.082-.082-.164-.082-.246-.164v-.492l.082-.082c.082 0 .082-.082.164-.082l.082-.082v-.082c0-.164 0-.246.082-.41l.082-.082-.082-.082c-.164-.164-.328-.41-.492-.574-.246-.328-.492-.656-.82-.903 0-.164.082-.41.246-.574l.082-.082-.082-.082c-.082-.164-.164-.246-.328-.328h-.246c-.41 0-.574-.082-.738-.246v-.082h-.082c-.082 0-.082 0-.164-.082s-.164-.082-.246-.082-.328 0-.41.082h-.328c-.164 0-.328-.082-.41-.082s-.164-.082-.246-.082c-.164 0-.328-.082-.41-.082-.246 0-.492-.082-.738-.164l-.246-.246c0-.082-.082-.082-.164-.164h-.082l-.328-.328c0-.082 0-.164-.082-.246 0-.082 0-.164-.082-.328s-.164-.246-.328-.328l-.082-.082h12.226v-.082c.082.082.164.164.328.164.082.082.082.164.164.164l.082.082h.328l.246.082h-.082v.328l.082.082c.41.41.492.41.574.41zm6.565-5.908s0 .082 0 0v.164c0 .082 0 .082-.082.164 0 .082-.082.082-.082.164V17.722c-.082.164-.082.246-.164.328-.082.246-.164.41-.164.656V19.28c0 .41-.082.738-.246 1.067h-.082c-.082-.164-.164-.246-.246-.328v-.328c0-.082-.082-.082-.164-.164 0 0-.082 0-.082-.082v-.164c-.082-.328-.082-.738-.41-.903h-.164c-.082 0-.082.082-.164.082s-.082-.082-.164-.082c-.164-.082-.328-.246-.574-.328v-.164l-.164.082c-.328.082-.574.328-.82.492-.328-.082-.574-.082-.82.082h-.246c-.164 0-.328.082-.492.082-.164-.082-.328-.246-.492-.41l-.164-.164-.164-.164v.246h-.082l-.082.082v.082s-.082.082 0 .164v.082h.082c.164.082.246.164.328.328.164.164.328.328.574.41.082 0 .164 0 .246-.082.082 0 .164 0 .164-.082h.082v-.082c.082-.164.082-.246.082-.492 0 .246.164.328.328.328.082 0 .082 0 .082.082.082 0 .082.082.082.164s.082.082.082.164v.082c-.082.328-.246.574-.246.985-.082.164-.246.246-.41.246-.082 0-.164.082-.246.082-.164.082-.246.164-.246.328-.082.082-.082.164-.164.164-.082.082-.246.164-.41.246-.082.082-.246.164-.328.246l-.082.082c-.246.164-.492.328-.738.41l-.082-.246c0-.082-.082-.246-.082-.328s-.082-.246-.082-.41v-.082l-.41-.41c-.164-.164-.328-.246-.41-.41V9.844h.082v-.082c0-.082.082-.164.164-.164.164.082.41 0 .574-.082l.082-.082-.082-.082c-.082-.082-.082-.164-.164-.246s-.082-.164-.164-.164c.082.082.246.164.328.164l.246.082v-.246c0-.082-.082-.164-.082-.246.082-.082.164-.082.164-.164s.082-.082.082-.082l.164-.082-.164-.164c-.082-.082-.082-.082-.164-.082-.082-.082-.082-.246-.082-.41V7.63c.574.164 1.149.492 1.805.821 1.887 1.231 4.02 3.446 4.923 7.467.328.328.328.574.41.903zm-4.841 2.052v.082h-.328c-.164-.082-.328-.164-.41-.328.082.082.246.164.328.246H24.862z"/><path d="M26.913 4.267C23.057.985 17.887-.656 14.605.329v.574s-.082.082-.328.082c-3.364.492-6.4 2.051-8.862 4.431-2.38 2.38-3.938 5.415-4.431 8.697 0 .082-.082.328-.082.328l-.574-.082c-1.067 3.282.656 8.369 3.938 12.062 2.215 2.462 6.974 6.482 14.441 5.251 3.446-.492 6.646-1.969 9.108-4.431s4.02-5.497 4.513-8.862c.164-.903.246-1.805.246-2.708-.082-5.744-3.446-9.518-5.662-11.405zM14.277 17.149c-.082-.082-.082-.164-.082-.246v-.246c0-.082-.082-.164-.082-.246-.082-.082-.082-.164-.082-.246v-.41c0-.082 0-.082.082-.164s.164-.246 0-.41v-.082s-.082 0-.082-.082c.082 0 .082-.082.082-.164s.082.082.082.082l.164.164c.082.082.164.164.246.164.082 0 .164.082.246.082s.246.082.246.164v.246c-.164-.082-.246-.082-.41 0 0 0-.082-.082-.164-.082h-.082v.246l-.082.164.164.082c.164.082.246.164.41.246l.246.164.082-.164c0-.082.082-.164.082-.164h.082c.082 0 .164 0 .164-.082h.082V15.755h.246v-.082c.082.082.164.082.164.164.082 0 .082.082.164.082 0 .082.082.164.082.246 0 .164.082.246.164.41l.082.082h.164s.082 0 .164.082h.082l.082-.082h.164V17.067h.328l.082.082v.082c-1.231-.082-2.297-.082-3.364-.082zm-1.969-5.908-.164-.164c.082-.082.164-.246.246-.164v.41c0 .164-.082.328 0 .574 0 .082.082.164.164.246s.082.164.082.246c-.082.082-.246.082-.41.164-.164 0-.328.082-.41.164h-.164c.082-.082.082-.164.164-.246.164-.328.41-.574.492-1.067v-.164zm.328 1.559c-.082.082-.164.082-.246.082h-.246.164c.082-.082.164-.082.328-.082zm-.657 1.231c0-.328-.082-.492-.164-.656 0-.082 0-.082-.082-.164H12.307c.246-.082.41-.246.574-.41l.246-.246c.082 0 .164-.082.246-.082s.246-.082.41-.164h.246l.082-.082c.082-.082.082-.246.164-.41v-.164s0 .082.082.082v.082c-.082 0-.164.082-.164.164v.164c.082.164.328.164.574.164h.492c.164 0 .328-.082.41-.164.164-.082.246-.082.41-.082h.164v-.246c0-.246.082-.328.164-.328h.082l.082-.082c.082-.164.082-.41.082-.574v-.082h-.082c-.164-.082-.328-.164-.328-.328l.082-.082c.164-.164.328-.328.41-.656v-.164h-.164c-.246 0-.328.164-.492.246l-.082.082-.082.082c-.164.082-.246.246-.328.492 0 .164 0 .328.082.41v.164c.082.246-.082.41-.41.574l-.082.082h-.246c-.082-.164-.164-.246-.246-.41-.082-.082-.082-.164-.164-.246v-.082h-.082c-.164 0-.328-.082-.492-.082 0-.246 0-.41.164-.656.41-.164.82-.328.985-.738.164-.082.328-.164.41-.246s.164-.164.328-.164h.082v-.082c.082-.164.246-.328.574-.328h.082c.164 0 .328-.082.492 0 .164 1.887.164 4.103.246 6.728h-.164c-.082 0-.41 0-.492.246v.164c0 .164.082.246.164.41v.164s-.082-.082-.164-.082c0-.082-.082-.164-.082-.246s-.082-.246-.082-.328c-.082-.082-.164-.164-.246-.164-.082-.082-.164-.082-.164-.164v-.082l.082-.082v-.164c-.082-.246-.328-.328-.492-.41-.082 0-.164-.082-.246-.082l-.082-.082c-.082-.082-.082-.164-.246-.164-.082 0-.164 0-.246-.082h-.164l-.164-.082v.246c0 .082.082.246.082.328 0 0 0 .082.082.164v.082h.082c.082 0 .082.082.164.082.164.082.328.164.41.328v.082h.164c-.082.082-.082.082-.082.164v-.164c-.082-.164-.246-.246-.41-.246-.082 0-.164-.082-.164-.082-.082 0-.082-.082-.164-.164l-.164-.164c-.082 0-.082-.082-.164-.082-.164-.082-.164-.164-.246-.246v-.164h-.164c-.082 0-.164 0-.246.082-.164.082-.328.082-.574.082H12.8c-.164 0-.246.164-.246.246s-.082.082-.082.164c-.082 0-.082.082-.164.082s-.164 0-.246.082l-.082.082c-.082.164-.164.328-.328.41h-.328c-.082 0-.246.082-.41.082-.082 0-.246-.082-.328-.164s-.164-.164-.328-.246c0-.246 0-.41.082-.574s.246-.328.328-.492v-.082c.082 0 .164 0 .328.082.164 0 .41.082.574.082.082.164.328.082.41-.164zm4.185-2.954c0-.082-.082-.082-.082-.164-.082-.164-.164-.246-.082-.328 0-.082.082-.164.082-.164v.082c.082.246.246.492.492.574v.246c-.328 0-.41.328-.41.574-.164 0-.246.082-.41.164-.082.082-.246.082-.328.082h-.246.246l.082-.082c.082 0 .082-.082.164-.082.164-.164.492-.328.492-.656h.164l-.164-.246zm.985 5.087c-.082-.082-.164-.246-.164-.41 0 0 .082-.082.246-.082h.164v.985s-.082 0-.082-.082h-.082c0-.082 0-.164-.082-.164v-.246zm-1.313-.82-.082.082c-.082-.082-.164-.164-.246-.164-.164-.164-.328-.328-.492-.41 0 0-.082 0-.082-.082v-.082h.164l.082.082.164.164c.082.082.164.082.246.164 0 .082.164.082.246.246zm-2.133-.164c-.082 0-.164.164-.246.164v.164c.082.246.164.41.328.492l.164.164h-.492c-.164 0-.328 0-.492-.082-.164 0-.246-.082-.41-.082h-1.067c-.082 0-.164.082-.246.082s-.082.082-.164.082l-.082-.082c.082 0 .164-.082.246-.082h.164c.082 0 .164 0 .246-.082.246-.082.41-.41.492-.574h.082c.082 0 .164-.082.246-.082.082-.082.164-.164.164-.246s.082-.164.082-.164h.328c.164 0 .328 0 .41-.082v.164c.164.082.164.164.246.246zm-3.036.984s.082.082.164.082c.082.082.164.164.246.164h.082c.082 0 .164 0 .246-.082.082 0 .082-.082.164-.082.164 0 .656-.082.985 0 .164 0 .246.082.328.082.164 0 .328.082.492.082h.328c0 .082.082.164.082.164 0 .082.082.164.082.164V17.148c-1.559 0-3.118 0-4.513-.082.082-.082.082-.164.164-.246l.082-.082v-.082h.082s.082 0 .082-.082h.082c.082 0 .164 0 .246-.082s.164-.164.246-.164c.246-.082.328-.164.328-.164zm5.989-7.713h-.082c-.41.082-.574.246-.656.41-.246 0-.328.164-.41.246s-.164.164-.328.164h-.082v.082c-.164.328-.41.492-.903.656h-.082v.082c-.164.246-.328.492-.246.985v.082h.082c.164.082.328.082.41.082-.164.082-.246.328-.246.492 0 .082 0 .164-.082.164h-.246c-.082.082-.164.082-.328.082-.082 0-.164 0-.328.082-.082 0-.164.082-.246.164 0-.164-.082-.246-.164-.41-.082-.082-.082-.082-.082-.164v-.41c0-.164.082-.328 0-.574v-.082c-.082-.082-.246-.164-.246-.164-.164 0-.328.164-.492.328l-.082.082-.082.082.082.082s.082.082.164.082l.082.082c-.082.328-.246.574-.41.903-.082.082-.164.246-.246.328v.164c.082.082.164.164.164.246h.082c-.082 0-.082.082-.164.082l-.082.082v.082c0 .082.082.164.082.246.082.164.082.328.164.492-.082.082-.164.164-.328.164s-.328 0-.492-.082c-.164 0-.328-.082-.41-.082h-.082l-.164.164c-.082.164-.246.328-.328.492v.082c0 .328 0 .492-.082.738v.164h.164c.082 0 .164.082.328.164.082.082.164.082.164.164-.082 0-.082.082-.082.164l-.164.164h-.328c-.082 0-.082 0-.164.082-.082 0-.082.082-.164.082h-.082c-.082.082-.082.082 0 .246v.082c-.082.164-.164.246-.328.41-4.103-.246-7.303-.82-7.138-2.872.246-1.723.821-3.446 1.723-5.005 0-.082.082-.082.082-.164 0 0 0-.082.082-.082v.082l.164.328.082-.41c0-.082.082-.082.164-.082h.082c0 .082-.082.082-.082.164v.164h.164s.082 0 .082.082l.082.082.164.082.082-.164c.164-.328.328-.656.492-.821 0 .082 0 .082.082.164-.082.082-.246.164-.328.246v.246c-.082.328-.082.656.164.903l.164.082.082-.164c0-.082.082-.082.082-.164.164-.164.246-.41.246-.738.164-.328.328-.492.492-.574h.082v-.082c0-.164.082-.246.164-.328 0-.082.082-.082.082-.164l.082-.164c0-.082.082-.164.164-.246s.164-.246.246-.328c.082-.082.164-.246.246-.41v-.082l-.082-.082c-.082-.082-.164-.082-.164-.082h-.082l.328-.328h.082v.082h.082c.328.082.492-.082.656-.164 0 0 0 .082.082.082l.082.082.082-.082c.082-.082.164-.082.246-.082h.082c.164-.082.164-.246.246-.328 0-.082.082-.082.082-.164l.246-.246c.082-.082.246-.164.328-.328V4.84c.164-.082.246-.246.41-.328h.082V4.43c0-.082.082-.164.164-.246.164 0 .246-.082.246-.164.082.082.246.082.328.082-.328.082-.492.328-.574.656 0 0 0 .082.082.082-.082.164-.246.328-.41.492l-.246.246v.082H9.6c-.164.082-.246.246-.246.328v.082H9.19c-.41.164-.656.41-.903.656v.082c0 .164-.082.246-.164.41s-.246.41-.246.656v.082c.164.164.246.246.41.246.246 0 .41-.164.574-.328.082-.082.246-.246.328-.246s.082.082.082.082h.656c.246 0 .328 0 .574.082.164.082.246.082.41.164.164 0 .246-.082.41-.164l.082-.082s.082 0 .164-.082.082-.082.082-.164v-.082c.082-.082.164-.082.246-.164s.164-.082.328-.164c.082-.082.082-.164.164-.164.082-.164.164-.164.246-.164h.164V6.48c.164-.082.41-.082.574-.164l.246-.082v-.082s.082-.082.082-.164 0-.082-.082-.164h-.164l-.082-.082c-.082-.082-.082-.164-.246-.164 0-.082.082-.164 0-.246V5.25h-.082c-.246-.082-.41-.164-.574-.41v-.082h-.246s-.082-.082-.164-.082-.082 0-.082-.082-.082-.082-.164-.164H11.403v-.082H11.977l-.082-.246s.082-.082.082-.164v-.082c0-.082.082-.164.082-.246v-.082h-.082v-.082l-.246-.246s-.082 0-.082-.082c.082 0 .164-.082.164-.164V2.79c0-.082-.082-.082-.246-.082 0 0 .082 0 .164-.082l.328-.082c.082 0 .246 0 .328-.082l.082-.082v-.164l.082-.164c.492-.082.903-.246 1.395-.246 1.969-.164 2.626 2.708 2.872 6.482.246.082.082.082-.164.164zm-4.677-4.677c.082 0 .082.082 0 0v.164l-.082.082v.164H11.323c0-.082 0-.082-.082-.082-.082-.082-.246-.082-.41-.082v-.082c.082-.082.164-.082.164-.082l.082.082h.656V3.61h.082s.082 0 .082.082c0 0 .082 0 .082.082l-.082.082.082-.082zm1.149 2.216h.164c.082 0 .082 0 .164.082 0 0 0 .082.082.082-.246.082-.574.082-.738.164h-.082v.164c-.164.082-.246.164-.41.328-.082.082-.082.082-.082.164-.082.082-.164.082-.246.164s-.246.082-.328.246c0 .082-.082.082-.082.164v.082s-.082 0-.082.082c-.082 0-.082.082-.164.082-.082.082-.164.082-.246.164-.082 0-.246-.082-.328-.082-.164-.082-.41-.164-.656-.164-.082 0-.082 0-.164.082-.082 0-.164.082-.328.082l-.082-.082s-.082 0-.082-.082h-.082c-.246 0-.41.164-.574.328-.082.082-.246.246-.328.246s-.082 0-.164-.082c0-.164.082-.328.164-.492s.164-.246.246-.492c.164-.246.41-.41.738-.492h.082c.246 0 .246-.246.246-.328v-.082h.328v-.246l.164-.164c.246-.164.41-.41.574-.656V5.17s0-.082-.082-.164c.082-.164.164-.328.328-.328l-.082.082h.328c.082 0 .082.082.164.082 0 0 0 .082.082.082v.164l.164-.082c.082 0 .164 0 .246-.082l.082.082c.082.082.082.164.246.164 0 0 0 .082.082.082h.164c.164.246.328.328.574.41v.328zm-3.856-.985-.164.164c-.082.082-.246.164-.328.328 0 .082-.082.164-.082.164 0 .082-.082.164-.164.246h-.082c0-.082 0-.082.082-.164l.082-.246-.246.082c-.164.082-.246.164-.328.246-.082.164-.164.164-.246.164s0-.082.082-.082v-.082c0-.082.082-.082.082-.164.082-.164.246-.246.328-.492 0 .082.082.082.164.164.492 0 .656-.246.82-.492.082-.082.164-.246.246-.246l.246-.164-.164-.082c.082-.164.164-.246.328-.328l.246.082c-.082.082-.082.164-.164.246-.164.164-.41.246-.574.41l-.164.246zM6.81 6.81l.082.082-.082.082s-.164.246-.246.328c-.082.082-.082.164-.164.328l-.082.164c0 .082-.082.082-.082.164-.082.082-.082.164-.164.328l-.246.246c-.082-.082-.164-.082-.246-.082v-.164c0-.164-.082-.246-.164-.41l-.082-.082-.082.082c-.164.082-.164.246-.246.41v.082c-.164.164-.246.328-.328.492l-.082-.082c-.164-.164-.41-.164-.574-.082v-.082c.082-.164.246-.328.328-.492.082 0 .164-.082.164-.164l.164-.246h-.082c.246-.41.574-.738.903-1.067l.246-.082c.164-.082.246-.082.328-.164s.164-.082.246-.164h.328c.082 0 .164-.082.328-.246.082-.082.164-.164.246-.164.082-.082.164-.082.246-.164.082 0 .164-.082.164-.082 0 .082 0 .164-.082.164v.082c-.082.082-.164.164-.328.246-.246.164-.41.328-.492.656l.082.082zM5.497 9.108c0 .246-.082.41-.246.574v-.574l.164-.164h.082c.082 0 .082 0 0 .164zm1.806-3.693c-.082.082-.164.082-.246.164l-.246.246-.082.082c0-.082.082-.082.082-.164.082-.082.082-.164.164-.164l.164-.164c.082-.082.246-.246.246-.41.164-.164.41-.328.574-.492.082-.082.164-.082.246-.082-.082.082-.164.164-.164.246l-.082.164h.082l-.164.246-.082.082c-.246.082-.41.164-.492.246zm2.051-1.559-.246.246-.082.082.082.082s0 .082.082.082c-.082 0-.082 0-.082.082h-.082v-.164l-.164.082c-.082 0-.082 0-.164.082h-.082l.164-.164h-.082c.164-.082.41-.246.574-.328H9.19l.164-.082zm-.41.903c-.164.246-.246.41-.492.41 0-.082-.082-.082-.082-.164.082 0 .082-.082.164-.082.082-.082.164-.164.246-.164v.082h.082c-.082-.082 0-.082.082-.082zm.738-1.231s-.082 0 0 0c-.164.082-.164.082-.246.082.082-.082.164-.082.246-.082zm21.58 14.852c-.41 3.036-1.805 5.99-4.185 8.369s-5.415 3.774-8.533 4.185C6.4 32.903-.41 20.185 1.231 14.852c-.492 1.887.903 3.446 17.149 3.446 0-16-1.641-17.395-3.528-16.903C20.349-.41 33.314 6.318 31.262 18.38zM39.549 20.02h-1.231v3.2h.574v-1.313h.41c.246 0 .492-.082.656-.164.246-.164.328-.492.328-.738.082-.574-.164-.985-.738-.985zm-.246 1.395h-.328v-.903h.246c.328 0 .492.082.492.41s-.164.492-.41.492zM43.323 23.221h1.723v-.492h-1.067v-.985h.985v-.492h-.985v-.82h1.067v-.41h-1.723zM50.215 20.02h-.656l-.328.656c-.164.246-.328.492-.41.738v-1.395h-.574v3.2h.574v-.903l.246-.328.574 1.313h.656l-.821-1.805.738-1.477zM53.333 21.826c0 .656 0 .903-.328.903v.492c.903 0 .903-.656.903-1.395v-1.395h.738v2.79h.574v-3.2h-1.887v1.805zM58.913 20.02l-.821 3.2h.656l.164-.82h.738l.164.82h.656l-.738-3.2h-.821zm.164 1.888.164-.903c0-.164.082-.328.082-.41v-.246.246c0 .164 0 .328.082.41l.164.903h-.492zM64.985 21.497c-.082.246-.082.41-.082.738 0-.246-.082-.492-.082-.738l-.328-1.477h-.985v3.2h.574v-.985c0-.656 0-1.313-.082-1.887l.656 2.954h.328l.656-2.954c0 .656-.082 1.313-.082 1.887v.985h.574v-3.2h-.985l-.164 1.477zM70.892 21.251h-.82V20.02h-.656v3.2h.656v-1.477h.82v1.477h.656v-3.2h-.656zM81.969 19.692c.41 0 .656-.246.738-.656h-.246c0 .246-.164.328-.492.328-.246 0-.41-.082-.41-.328h-.246c-.082.41.164.656.656.656zM81.887 21.169c-.164.41-.328.738-.41 1.313 0-.328.082-.574.082-.903V20.02h-.574v3.2h.656l.492-1.149c.164-.41.328-.738.41-1.313 0 .246-.082.574-.082.903V23.138h.574v-3.2h-.656l-.492 1.231zM91.897 20.02h-.656l-.246.574c-.082.164-.164.41-.164.574 0-.164-.082-.246-.082-.41l-.328-.738h-.656l.738 1.559-.82 1.641h.656l.246-.574c.082-.164.164-.41.246-.574 0 .164.082.246.164.41l.328.82h.656l-.82-1.641.738-1.641zM95.836 19.938c-.985 0-1.067.574-1.067 1.395v.492c0 .82.082 1.477 1.067 1.477s1.067-.656 1.067-1.477v-.492c0-.82-.082-1.395-1.067-1.395zm.492 2.134c0 .328 0 .738-.41.738s-.41-.41-.41-.738v-.903c0-.246 0-.82.41-.82.492 0 .41.574.41.82v.903zM100.103 21.826c0 .656 0 .903-.328.903v.492c.903 0 .903-.656.903-1.395v-1.395h.738v2.79h.574v-3.2h-1.887v1.805zM107.241 20.02h-1.887v1.805c0 .492 0 .82-.164.903h-.164v.903h.574v-.492h1.313v.492h.574v-.903h-.164V20.02zm-.656 2.708h-.903c.164-.246.164-.574.164-.903V20.43h.738v2.297zM111.426 21.169c-.164.41-.328.738-.41 1.313 0-.328.082-.574.082-.903V20.02h-.574v3.2h.656l.492-1.149c.164-.41.328-.738.41-1.313 0 .246-.082.574-.082.903V23.138h.574v-3.2h-.656l-.492 1.231zM77.046 20.02h.574v3.2h-.574v-3.2zM75.733 21.333h-.41V20.02h-.574v3.2h1.067c.656 0 .903-.41.903-.985 0-.246-.082-.574-.328-.738-.164-.164-.41-.246-.656-.164zm-.164 1.395h-.246v-.985h.328c.246 0 .41.082.41.492.082.41-.082.492-.492.492zM117.169 21.251h-.82V20.02h-.656v3.2h.656v-1.477h.82v1.477h.574v-3.2h-.574zM120.944 23.221h.656v-2.79h1.149v-.41h-1.805z"/></symbol>
    
    <symbol id="icon-menuIconCircle" viewBox="0 0 32 32" fill="var(--current-color)"><path d="M32 16c0 8.837-7.163 16-16 16S0 24.837 0 16 7.163 0 16 0s16 7.163 16 16z"/></symbol>
    
    <symbol id="icon-settingsIco" viewBox="0 0 32 32" fill="var(--current-color)"><d="M30.133 11.467c-.533 0-1.333-.267-1.867-.8-.533-.267-1.067-.8-1.333-1.333S26.4 8.001 26.4 7.467c0-.533 0-1.333.267-1.867s.267-.8 0-1.333c0-.533-.267-.8-.533-1.067-1.333-1.333-2.933-2.133-4.8-2.933-.267-.267-.8-.267-1.333 0-.267 0-.8.267-1.067.8s-.8 1.067-1.333 1.333c-.533.267-1.067.533-1.867.533s-1.333-.267-1.867-.533c-.533-.267-1.067-.8-1.333-1.333-.267-.267-.533-.533-1.067-.8h-1.333c-1.6.533-2.933 1.6-4.267 2.667-.267.267-.533.533-.8 1.067v1.333c.267.533.267 1.333.267 2.133S5.067 8.8 4.801 9.334s-.8 1.067-1.333 1.333c-.533.267-1.067.533-1.867.533-.533 0-.8.267-1.067.533s-.533.8-.533 1.067c-.267 1.067-.267 2.133-.267 3.2 0 .8 0 1.867.267 2.667 0 .533.267.8.533 1.067s.8.533 1.067.533c.533 0 1.333.267 1.867.8.533.267 1.067.8 1.333 1.6.267.533.533 1.333.533 1.867 0 .8 0 1.333-.267 2.133-.267.533-.267.8 0 1.333s.267.8.8 1.067C7.2 30.4 8.8 31.2 10.4 32h.8c.267 0 .533 0 .8-.267s.533-.267.8-.533c.267-.533.8-1.067 1.6-1.333.533-.267 1.333-.533 1.867-.533s1.333.267 1.867.533c.533.267 1.067.8 1.6 1.333.267.267.533.533 1.067.8h1.333c1.6-.533 2.933-1.6 4.267-2.667.267-.267.533-.533.533-1.067v-1.333c-.267-.533-.267-1.333-.267-1.867 0-.8.267-1.333.533-1.867s.8-1.067 1.333-1.333c.533-.267 1.067-.533 1.867-.8.533 0 .8-.267 1.067-.533s.533-.8.533-1.067c.267-1.067.267-1.867.267-2.933s0-2.133-.267-2.933c0-.533-.267-.8-.533-1.067-.533-.8-1.067-1.067-1.333-1.067zM21.333 16c0 1.067-.267 2.133-.8 3.2-.533.8-1.333 1.6-2.4 2.133s-2.133.533-3.2.267c-1.067-.267-1.867-.8-2.667-1.6s-1.333-1.867-1.333-2.933 0-2.133.267-3.2c.533-1.067 1.067-1.867 1.867-2.4S14.934 10.4 16 10.4c1.333 0 2.667.533 3.733 1.6s1.6 2.667 1.6 4z"/></symbol>
    
    </defs></svg>