<svg xmlns="http://www.w3.org/2000/svg" viewBox="-6689 6580.2 852.9 865.6" xml:space="preserve"><g fill="#231F20"><path d="m-6503.2 7124.3-2-.9c0-1.7-.1-3.6-1.4-5.2l-.8-.9-1.1-.3c-.9-.3-1.8-.4-2.6-.4-2 0-3.4.8-4.3 1.3-.4.2-.7.4-1.1.5l-2.6.8-.1 2.7c-.2 5.3 1.6 12 11.7 13.6l4 .6.5-4c.3-2.7.3-3.1 0-5.7l-.2-2.1zM-6217.6 7194.5l-1.4-.2c.2-.5.3-1.1.3-1.8l.1-1.6-1-1.2c-1.8-2.1-3.8-3.9-5.7-5.6-1.1-1-2.1-1.9-3-2.8l-.8-.8-1.2-.2c-1.5-.3-3-.4-4.5-.4-9.3 0-15.4 5.7-20.8 10.7-1.7 1.6-3.3 3.1-5 4.4-1-.6-2.3-1.2-4-1.6l-1-.2-1 .3c-5.1 1.5-8.2 4.8-10.9 7.8-.9.9-1.7 1.8-2.5 2.6l-1.7 1.6.6 2.2c.3 1.2.4 2.8.6 4.5.2 2 .3 4.1.8 6l.7 2.7 2.8.1c.1 0 .1 0 .7.4.8.5 2 1.2 3.7 1.5l1.1.2 1-.5c4.7-2.2 9.1-4.7 13.3-7.2l-.1 2.6 3.7.3h.9c3.4 0 5.7-1.9 6.5-5.2.6-1 .9-2.1.6-3.2v-.1l.6-3.6-2.4.9c2.5-4.3 6.2-7.5 11.4-9.7 2.4 2.3 5.5 3.5 8.3 4.6 1.3.5 2.4 1 3.5 1.5l5.6 2.8v-4.8c1.3-1.6 1-3.5.8-4.3l-.6-2.7zm-17.5-5.4c-9.1 3.1-15.6 8.5-19.2 16.2-1.8 1-3.6 2.1-5.3 3.1-3.9 2.3-7.6 4.5-11.6 6.4-.3-.2-.8-.5-1.3-.7-.1-.8-.2-1.6-.2-2.5-.1-1.2-.2-2.5-.4-3.7.5-.5.9-1 1.4-1.4 2.1-2.2 3.9-4.2 6.3-5.2.4.2.8.4 1.3.7.7.4 1.5.8 2.4 1.2l1.9.8 1.7-1.1c2.8-1.9 5.3-4.2 7.7-6.4 5-4.6 9.4-8.6 15.6-8.6.6 0 1.3 0 1.9.1l.3.3-2.5.8zm8 4.3c-1.5-.7-2.8-1.5-3.5-2.7l-1.2-1.9c.5.4.9.8 1.4 1.3 1.2 1.1 2.3 2.1 3.4 3.2-.1 0-.1 0-.1.1zM-6543.5 7208.5c-1.1-.7-2.2-1.5-3.2-2.3l-.1-.1c-.8-.6-1.7-1.2-2.5-1.9-2.2-1.6-4.5-3.2-5.5-4.8-.3-.5-.5-1.4-.8-2.4-.3-1.3-.7-2.7-1.4-4.1l-.1-.1c-4.8-8.3-12.5-11.5-20.4-13.6-2.1-6.6-7.7-9.3-12.4-11.6l-3.3-1.6-1.9 2.5c-9.1 11.8.8 26.2 8 32.9l1.1 1h3.9c.5.7 1.1 1.4 1.6 2.1 7.7 9.7 16.4 20.8 33.4 20.8 2.7 0 5.6-.3 8.6-.9l3-.6.1-3c.4-6.4-4.4-9.7-8.1-12.3zm-3.5 9.1c-13.2 0-20.1-8.7-27.4-17.9-1-1.2-1.9-2.4-2.9-3.6l-1.2-1.4h-4.5c-4.3-4.3-9.7-12.2-7.5-18.7 3.4 1.8 5.4 3.5 5.9 6.9l.4 2.5 2.5.6c7.5 1.9 14.1 4.1 17.8 10.5.3.6.5 1.4.7 2.3.4 1.4.7 3 1.7 4.6 1.8 2.9 4.9 5.1 7.6 7 .8.5 1.5 1.1 2.3 1.6 1.2 1 2.5 1.8 3.6 2.7 1.6 1.1 2.7 1.9 3.5 2.7-.8.2-1.7.2-2.5.2zM-6080.6 6893.8l1.3 6.2 4.9-4c.6-.5 1.2-1 1.9-1.4 2.8-2 6.2-4.6 7.9-8.9 1.1-2.9 1.4-6.1 1.8-9.3.4-3.5.8-6.8 2-9.2l2-3.8-4-1.6c-.8-.3-1.5-.7-2.3-1.2-1.5-.9-3.4-2-5.8-2.5l-1.1-.2-1.1.4c-6.6 2.5-11.3 7-13.8 13.5l-.7 1.8 1 1.6c2.8 4.6 4.4 11.2 6 18.6zm9-28c.8.3 1.6.8 2.5 1.3-.8 2.7-1.1 5.6-1.4 8.3-.3 2.8-.6 5.4-1.3 7.4-.5 1.3-1.4 2.3-2.5 3.3-1.2-4.9-2.6-9.4-4.6-13.4 1.5-3.1 3.9-5.4 7.3-6.9zM-6025.4 7015.2c-.1.2-.1.4-.2.7-.2.6-.3 1.1-.5 1.7l-.9 2.8 2.5 1.6c1.1.7 2 1.5 3.1 2.3 1.4 1.1 2.8 2.3 4.6 3.3l4.5 2.6 1.2-5.1c.1-.5.2-1 .4-1.5 1.1-4.7 2.4-10.1-.5-13.9-.4-.5-.9-1-1.4-1.4 1-1.5 2-3.2 2.8-5l.6-1.4-.4-1.4c-.4-1.2-.7-2.6-1-4.1-.5-2.6-1.1-5.3-2.3-7.7l-.8-1.6-1.7-.4c-.9-.2-1.8-.3-2.7-.3-4.6 0-7.8 2.9-10.6 5.4-1.5 1.4-2.9 2.7-4.3 3.3l-2.8 1.3.6 3c.8 4.4 2.5 12.6 9.8 15.8zm8 2.4c-.2-.2-.4-.3-.6-.5.2-.8.5-1.6.7-2.2.2.7.1 1.7-.1 2.7zm-6.1-19.9c1.6-1.4 3.1-2.8 4.5-3.3.3 1.1.6 2.3.8 3.6.2 1.1.4 2.2.7 3.3-1.1 2.1-2.5 4-4 6.1l-.5.8c-2.4-.9-3.9-3.2-5.1-7.6 1.3-.9 2.5-1.9 3.6-2.9zM-6144.1 6895.7c2.8 0 6.8-1.1 9.7-6.6l1.3-2.4-1.8-2c-1.2-1.4-2.5-2.8-3.7-4.3-4.5-5.3-9.2-10.9-16.1-14.5l-1.5-.8-1.6.6c-2.9 1.1-4.7 3.2-6 5-.3.4-.7.8-1 1.2l-1.5 1.7.8 2.2c2 5.8 11.4 19.9 21.4 19.9zm-12.3-21.7c4.6 2.9 8.1 7.1 11.9 11.5l1.8 2.1c-.6.4-1 .4-1.3.4-4 0-10.6-7.4-13.4-12.8.3-.5.7-.9 1-1.2z"/><path d="m-5844.1 6969.9-14.4-.4s-1.9-3.2-2.1-7.8l-.1-.9-.2-.9c-13.2-89.9-53.6-171.4-117.2-235.6-63.4-64.4-143.8-105.5-232.5-118.9l-1-.2-1-.1c-1.7-.1-9.7-2.2-9.7-2.2l2.3-14.6c-86.7-27.4-222.3 16.7-322.4 105-66.4 58.6-172.8 186.3-140.9 384.7 12.1 92.4 52.9 176.1 117.9 242.1 64.6 65.7 146.7 106.9 237.2 119.5 25.1 4.3 49 6.2 71.7 6.2 155.2.1 257.7-89.5 308.2-148.2 87.6-101.7 131.4-239.6 104.2-327.7zm-75.7-81.1c-.6.2-1.2.6-1.8 1.1-.5-1.3-1.1-2.5-1.7-3.7l2.3 1.3.4-.7c.2.3.3.6.4.9l.4 1.1zm-26.8 4.4c-.1-3.7-.1-7.3.5-10.5 1.3-.4 2.4-1 3.3-2 2.6-2.7 2.4-6.6 2.3-10v-.7c.2.1.3.1.5.2l2.5.6c2.1 3.5 2.2 5 2.1 5.4h-.1l-3.3 1.4 1.1 3.4c.5 1.6.2 3.4-.1 5.5-.4 2.7-.9 5.7.2 8.9l3.2-.4c-.3-.3-.6-.7-.7-1l1.2.1.6-.2 2.6.6.6-.1v.2l2.2.5c0-.1.1-.2.1-.3.3.9.6 1.8.8 2.8l-1.2 1.8c-.6.9-1.1 1.6-1.6 2.3-.7-.6-1.7-1.4-3.2-1.7l-1.5-.4-1.3.8c-.6.4-1.1.8-1.5 1.3-.7-.4-1.4-.7-2.1-1.1-.8-.4-1.6-.9-2.4-1.3l-.4-.2-.4-.1c-.5-.1-.9-.2-1.4-.2-.2 0-1.3 0-2.4.7h-.1c-.1-2.2-.1-4.3-.1-6.3zm-38.1-91c-1.5-4.1-4.6-6.8-7.4-9.2-3.4-2.9-5.3-4.7-5.2-7.6.9.2 1.8.5 2.8 1.1.1.1.2.2.4.3.4.3.8.6 1.4.9 1.1.8 2.3 1.8 3.5 2.9 3.5 3 7.6 6.7 13.7 7.8-1.3.7-2.7 1.8-3.4 3.8l-.2.5v.5c-.9 12.9 6.6 17.9 12.7 21.9 3 2 5.9 3.9 7.5 6.5l3.6 5.6 2.5-4.7 1 .5c3.6 1.8 6.3 4.4 8.3 7.7l-3 6.1c-.1.2-.2.3-.2.5-2-1.5-4.1-2.9-6.8-4-3.5-5.4-7-10.2-10.7-14.6l-.6-.8-.9-.4c-.7-.3-1.3-.4-1.9-.4-.5 0-1.2.1-1.8.4-1.5-1.4-2.9-3.2-4.3-5.1-2.2-3-4.6-6.1-7.9-8.3-1.7-1.2-3.5-2-5.2-2.7-2.3-1-4.3-2-5.6-3.5-.2-.6-.3-1.1-.5-1.7 1.2.5 2.4 1 3.8 1.2l6.8 1.4-2.4-6.6zm-75.2-71.5c1.3-.4 3-.7 4.6-.9 3.5-.5 7.4-1.1 10.1-3.6l2.1-1.9-1.2-2.6c-2.2-4.9-7.6-5.3-11.9-5.6-.5 0-.9-.1-1.3-.1-3.7-3.8-8-7-13.1-9.8l1.2-1.5c3.2-3.9 4.2-10.2 2.4-15-.1-.3-.3-.7-.4-1l3.7-.1c4.3 2.7 8.5 5.6 12.7 8.5.3 3 2.3 4.4 3.2 5 .1.1.2.1.3.2l6.5 5.1-.1-3.1c10 7.5 19.7 15.5 29.1 24l2 6.3c1.1 3.5 3.2 6 5.1 8.1 1.6 1.9 3 3.5 3.4 5.5.1.4 0 1.3-.1 2-.2 1.6-.5 3.6.2 5.8.8 2.6 3.1 5.3 6.8 9.4 1.8 2 3.9 4.3 4.7 5.7 1.4 2.4 2.5 4.6 3.7 6.7.9 1.6 1.7 3.2 2.6 4.8-1.8-.3-3.5-1-4.7-1.7-.3-.2-.6-.4-.9-.5-.2-.2-.5-.3-.7-.5-2.6-1.9-4.7-4.8-6.9-7.8-4.1-5.6-8.8-12-17.2-12.4l-1.9-.1-1.2 1.5c-.8 1-1.2 2.1-1.4 3.2l-3-2.4c-2.9-2.4-5.9-4.9-9.6-6.9-2.5-1.4-5.2-2.5-7.8-3.7-1.2-.5-2.4-1-3.5-1.6-1.6-.7-3-1.5-4.6-2.4-2.6-1.4-5.2-2.9-8.7-4-1.6-2.4-3.6-4.6-5.9-6.7l.3-.2c1-.7 2.5-2.6 1.4-5.7zm123.6 91.8-2.2 6.5c-1.8-2.6-3.9-5.1-6.1-7.4l-2.5-2.5-2.7 2.2c-.6.5-1.2 1.1-1.6 1.7-.4-1.2-.9-2.2-1.4-3-.4-.8-.7-1.4-.9-2h.9l4.9-.2-1.4-4.7c-.4-1.5-1-2.8-1.6-4.1l.5-.6c.3-.4.5-.8.8-1.2l4.9 3.5-.1-2.6c4 6.3 7.9 12.8 11.5 19.3l-3-4.9zm.5 40.7-.4-.1c-.1-.1-.1-.2-.2-.4.2.2.4.3.6.5zm-18.1-67c-1.6-2-3.7-3.8-6.1-5.2l-4-2.4-.6 1.6c-.2-.1-.4-.3-.7-.4l-7.6-3.9-1.4-2.3c-1.9-3.1-3.4-6-5.2-9.4-1.2-2.2-2.3-4.4-3.7-6.9-1.2-2.1-3.4-4.5-5.7-7.1-.8-.9-1.9-2.1-2.9-3.2 1.2 1 2.5 1.9 3.9 2.8 1.6 1.1 3.3 2.3 4.8 3.6 1.3 1.1 2.5 2.3 3.7 3.5 3.1 3.1 6.4 6.2 11 8 4.2 5.3 8.3 10.7 12.2 16.2.9 1.6 1.7 3.3 2.3 5.1zm-7.6 22.8c-.2-.1-.3-.2-.5-.3-5.5-3.6-9.5-6.2-9.3-13.7.2-.1.4-.2.6-.2 1.3-.5 3.2-1.3 4.4-3.3 1 1.2 2.1 2.4 3.1 3.6 1.8 1.9 3.4 3.7 4.6 5.7-.4.2-.8.5-1.2.8l-.9.7-.4 1.1c-.8 2.1-.7 3.9-.4 5.6zm-10.7-28c-1.9-.1-3.6-.5-5.1-1.3.4-.1.9-.3 1.3-.5l2.5-1.1 1.3 2.9zm43.5 46.9c-.1.1-.3.2-.4.3-.2-.7-.4-1.4-.6-2.3-.3-1.3-.6-2.8-1.1-4.1 1 1.8 2 3.7 3 5.6l-.9.5zm-285.7-206.1c45.4 6.8 89.8 21.8 131 45 1.8 1.6 3.7 3.1 5.5 4.5.7.5 1.4 1.1 2.1 1.6-.5.3-1.1.5-1.6.8l-9.1 5.4 10.4 1.7c.4.1 1.2.2 1.8 1.7.4 1 .5 2.3.3 3.6-1.2-1-2.8-1.9-5-2.2l-4.6-.6.2 4.6c.1 1.1-.2 1.4-1.5 2.7-.6.6-1.2 1.2-1.8 2.1l-3.1 4.2 4.9 1.7c9.7 3.4 17.1 7.9 22.6 13.8l.7.8c-1.5.4-3 1-4.3 1.9-.1 0-.1.1-.2.1-.2-.3-.4-.7-.6-1-1.6-2.7-3.3-5.5-5.9-7.8l-.9-.8-1.2-.1-4.2-.6c-3.2-.5-6.5-1-9.6-1-6.3 0-10.7 2-13.5 6.3l-2.2 3.3 3.4 2.1c1.2.7 2.4 1.6 3.7 2.5 5.1 3.5 11 7.5 19.1 7.3 7.7 3.8 12.8 8.1 16.2 13.5l.8 1.3 1.4.4c3.3.9 5.7 2.2 8.4 3.8 1.6.9 3.2 1.8 5.1 2.6 1.2.6 2.4 1.1 3.7 1.6 2.6 1.1 5 2.2 7.2 3.4 3.1 1.6 5.8 3.9 8.4 6 3 2.5 6.2 5.2 10 6.8l2.3 1 1.9-1.7c1.7-1.5 1.6-3.6 1.5-5.6 2.6 1.4 4.9 4.3 7.8 8.2l.9 1.2-1.1.2-.7 2.3c-2.6 8.4 1.3 13.3 5.1 16.8-.8.2-1.5.6-2.2 1.1l-2.6 1.9 1.4 2.9c1.1 2.3 2 5.1 2.7 7.5l.2.6.4.5c2.5 3.5 6 5.1 9 6.5 1.5.7 2.9 1.3 4.1 2.1 2.2 1.5 4.1 3.9 6 6.5 2.5 3.3 5 6.6 8.8 8.9l.3.2.3.1c1 .4 1.8.5 2.8.3 2.8 3.6 5.6 7.6 8.5 12l.8 1.2 1.3.4c2.6.8 4.7 2.3 6.9 4.1.3 3.4 1.8 5.7 3.3 7.5-1.8 2.6-1.7 5.9-1.6 8.9-2.9-7.8-8.7-12.9-17.4-15.2l-.6-.2h-.6c-1 .1-2.3.4-3.3 1.6-4.8-2.8-8.5-7-12.4-11.4-2.1-2.3-4.2-4.8-6.6-7l-.8-.8-1.1-.2c-.4-.1-.7-.1-1-.1.2-.9.2-1.9-.1-3-1.2-4.6-5.6-5.5-8.2-6-.6-.1-1.5-.3-2.1-.5.3-1.1.5-2.5.2-4.4l-.1-.4-.1-.3c-3.7-10.3-10.5-17.2-17.1-23.5l-.9-.8-1.2-.2c-4.3-.6-7.3-2.5-10.8-4.7-4.7-2.9-10-6.2-18.6-6h-1.4l-1.1 1c-4 3.7-6.1 7.3-6.2 11.2-.2 6.1 4.4 10.6 8.7 14.9 3.1 3.1 6.3 6.3 7.1 9.5-.2.3-.3.5-.5.8-.6 1-1.2 1.9-1.9 2.6l-.7.8-.2 1c-1.1 5.1.1 9.4 1.1 12.7.4 1.4.8 2.7.9 3.9.7 5.4-1 9.6-2.9 14.4-1.4 3.5-2.9 7.1-3.6 11.6l-.1.7.2.7c.9 4 3.3 7.1 5.4 9.9.8 1.1 1.6 2.1 2.2 3.1.1.2.3.6.4 1 .4 1 .9 2.4 2 3.6 1.2 1.4 2.7 2 3.9 2.6.6.2 1.2.5 1.4.7 1.8 1.6 2.9 4.1 4.1 6.8 1.2 2.7 2.5 5.4 4.6 7.8 1.5 1.7 3.4 3.1 5.2 4.4 4.1 3 5.8 4.5 5.4 7.5l-.4 3.7 3.7.5c.4.1.6.2.6.2l.8.9 1.2.3c.4.1.8.2 1.1.2 1.5 4.8 2.5 10.4 3.5 15.8.2 1.1.4 2.3.6 3.4l.6 3.4 2.3-.1c.7.7 1.9 1.8 3.8 1.8.8 0 2.4-.2 3.7-1.9l1-1.2-.2-1.6c-.1-.5.6-1.1 2.2-2.4 1.6-1.3 3.7-2.9 4.9-5.5 1.4.4 3 1 5.3 1 .6 0 1.3 0 1.9-.1l2.8-.4.5-2.8c1.2-6.9 4.6-11.6 10.6-14.6l1.8-.9.3-2c.2-1.7.1-3.1-.2-4.1 1.4-.8 2.2-2.3 2.2-4.1v-.1c0-1.4.3-1.8 2.3-3.3 1.4-1 3.2-2.3 4.3-4.5l.6-1.2-.3-1.3c-.2-.9-.3-1.8-.5-2.7-.2-1.3-.5-2.6-.7-3.8l2.3.6c0 3 .1 6-.3 8.9l-.8 7.2 5.7-3c.8.8 1.9 1.7 3.7 2.1l1 .2 1-.4c.5-.2 1.1-.5 1.6-1 1.8 1 3.7 1.9 6.1 2.6l3.1.9.9-1.8c.7.3 1.5.5 2.5.6h1l.9-.5c2.9-1.5 4.5-4 5.8-6 .6-.9 1.1-1.7 1.6-2.3.8 2 1.9 3.7 3.8 4.4l1.4.5 1.4-.5c2.3-.9 3-3.2 3.1-5.6.2.2.5.4.7.6l1 .8h.7c.5 1.1.9 2.2 1.4 3.3l1 6.2c.1.8.2 1.7.4 2.6.4 2.9.8 6 2 8.6l1.2 2.6 2.8-.4c.8-.1 1.2 0 1.9.4l3.5 2.4c2.9 12.1 5.3 24.3 7.1 36.5 3.9 52.3-71.4 70.8-173.4 77.2 2.6-5.4 1.5-11 .3-17-.2-.8-.3-1.6-.5-2.4-1.8-10-5.8-14.9-11.3-18.5-1-5.8-4.5-9-7.3-11.7-2.8-2.6-4.8-4.5-5-8.3l-.2-2.5-2.3-.9c-8.8-3.4-12.9-11.9-16.8-24.6l-.4-1.3-1.1-.8c-4.9-3.3-10.3-6.5-18.3-6.5-2.3 0-4.7.3-7.3.8l-2 .4-.8 1.9c-1.5 3.6-2.4 7.7-3.3 11.8-3.1-4.3-8.6-5.6-13.4-6.7-1.9-.4-3.8-.9-5.4-1.5.2-1 .4-2.2.4-3.6v-1.5l-1-1.1c-2.1-2.4-2.6-4.8-3.1-7.9-.4-2.4-1-5.2-2.4-8.1-1-2.2-2.5-4-4-5.7 4.3-.2 7.7-2.7 10.5-4.7 1.7-1.2 3.3-2.4 4.5-2.7 1.3-.3 2.6-.5 4-.5 2.3 0 4.7.4 7.3.8 2.8.4 5.7.9 8.9.9 2.3 0 4.4-.2 6.5-.8l.9-.2.7-.6c3.2-2.7 3.9-5.6 3.9-7.5 0-5.3-4.8-9.4-8.3-12.4-.7-.6-1.4-1.2-1.9-1.7l-2.8-2.6-2.7 2.7c-1.1 1.1-2 2.4-2.9 3.6-.6.8-1.1 1.5-1.7 2.2-9.3-1.8-16-6.4-23-11.2-2.9-2-5.8-4-9-5.9l-1.7-1-1.8.7c-2.9 1.2-4.4 3.5-5.5 5.2-.3.5-.7 1-1 1.4-.6-1.1-1.3-2.2-2.2-3.3l-1.6-1.9-2.4.7c-2.5.7-4.8 1.6-7 2.5-4.1 1.6-7.9 3.1-12.8 3.5-5.8-3.2-4.8-11.4-2.6-23.3.7-4.1 1.5-7.9 1.7-11.5l.1-2.2-1.9-1.2c-1.1-.7-2.2-1.5-3.4-2.2-4.4-2.9-8.9-5.8-13.1-8.9l-1-.7-1.2-.1c-7.8-.4-13-.6-20.4-1.5l-3.9-.4-.4 3.9c-.3 2.6-2.6 5.3-5 8.1-1.4 1.6-2.9 3.4-4.2 5.4-1.1-1.1-2.3-2.2-3.4-3.2-1.4-1.2-3.1-2.7-3.5-3.5-.5-1-.6-2.5-.7-4.1-.1-1.4-.2-2.9-.6-4.5-.5-1.6-1.1-3-1.6-4.1-.7-1.6-1.2-2.5-1.2-3.6v-1.5l-1.1-1.1c-1.2-1.2-2.5-1.5-3.4-1.5-.9 0-1.6.3-2.1.5-.5-.3-1-.7-1.5-1-3.8-2.5-7.6-5.1-10.1-8.5 6.5-109.9 23.9-193.5 77.5-189.8zm142.2 97.7c-1-.5-2-1.1-3.1-1.6l-.9-.4-1 .1c-5.8.4-10.1-2.4-14.7-5.6 1-.3 2.1-.4 3.7-.4 2.6 0 5.4.4 8.5.9 1 .2 2.1.3 3.2.4 1.3 1.4 2.4 3.2 3.5 5.1.2.5.5 1 .8 1.5zm114.1 149.1c0 1.1-.3 1.8-.9 3.1-.5 1.1-1.1 2.4-1.5 4-.8.4-1.4.9-1.7 1.2l-4.2.4 1.4 4.5c.6 2 1 4.2 1.4 6.6.1.4.1.7.2 1.1-.4.3-.9.7-1.4 1.1-1.9 1.4-4.5 3.3-5.3 7.2-.7.4-1.4.9-1.9 1.6l-.7.9-.1 1.1c-.2 1.8.1 3.2.3 4.2v.2c-5.9 3.6-9.8 8.9-11.7 15.6-.4-.1-.8-.2-1.3-.4-1.3-.4-3-1-5.2-1h-3.9l.1 3.9c0 1.4-.8 2.2-2.9 3.9-.6.5-1.2 1-1.9 1.6-1.3-7.1-2.7-14.3-5.4-20.4l-.9-2-2.2-.2h-.6c-.2 0-.7 0-1.3.2-1.2-4.8-5.2-7.7-8.3-9.9-1.5-1.1-3-2.2-3.9-3.2-1.3-1.5-2.3-3.7-3.4-5.9-1.4-3.1-3.1-6.6-6-9.3-1.1-1-2.4-1.6-3.4-2-.4-.2-1.1-.5-1.3-.6l-.2-.2c-.1-.1-.3-.6-.4-1-.3-.7-.6-1.6-1.2-2.5-.8-1.3-1.7-2.5-2.6-3.6-1.6-2.1-3.1-4.1-3.8-6.2.6-3.2 1.8-6.1 3-9.1 2.2-5.3 4.4-10.9 3.4-18.4-.2-1.7-.7-3.4-1.2-5-.8-2.7-1.5-5.2-1.1-8.1.8-1 1.4-2 2-2.9.4-.6.7-1.2 1.1-1.7l.8-1.1-.1-1.3c-.3-6.5-5.2-11.4-9.5-15.7-3.2-3.2-6.5-6.5-6.5-9.3 0-1.4.9-2.9 2.6-4.6 5.4.2 8.9 2.4 12.9 4.9 3.4 2.1 7.3 4.5 12.5 5.6 5.6 5.3 11.1 11.2 14.2 19.3 0 .4-.1.8-.2 1.5-.1.3-.1.5-.2.8l-.1.5v.6c.4 5.9 5.8 7 8.4 7.5.4.1.8.2 1.3.3-1 1.7-.8 3.4-.3 4.8.2.7.5 1.2.8 1.6.1.2.2.4.3.5l.8 2.2 2.3.3c.4.1.8.1 1.2.1 1.1 0 1.9-.2 2.5-.4 1.7 1.7 3.3 3.5 4.9 5.4 4.9 5.5 9.9 11.2 17.6 14.6l.6.3.6.1h.6c1 0 2.7-.3 3.9-1.9 4.7 1.8 7.9 4.9 9.6 9.5l-2.5-1.5-.1 6.6zm-250.7 21.7.8.4h.9c6.5-.4 11.4-2.2 16.1-4 1.3-.5 2.5-1 3.7-1.4 1.1 2.4 1.1 5.1 1 9 0 2.4-.1 4.9.3 7.5 1.2 7.5 6.3 11.8 10.7 15.7 2.8 2.4 5.5 4.6 6.8 7.4 1 2 1.3 4 1.7 6.1.6 3.2 1.2 6.7 3.9 10.3-.1.5-.2 1.1-.4 1.7-.2.6-.3 1.3-.5 1.9l-.5 2.5 2.1 1.4c3 2.1 6.7 3 10.4 3.8 1.4.3 2.7.6 4 1-.7.4-1.4.8-2.1 1.3-.4.3-.9.5-1.3.8-1-1.7-2.6-3.4-5.2-4.1l-1.6-.4-1.4.9c-4.8 3.1-5.1 9.6-5.4 15.3-.1 1.8-.2 3.4-.4 4.8-.1.9-.4 1.8-.6 2.8-.5 1.8-1 3.9-.9 6.1.3 4.1 2 7.8 3.6 11.4 1.7 3.8 3.4 7.4 2.9 10.8l-.5 3.7 3.7.6c1.1.2 2.2.3 3.3.5 7.8 1.1 9 1.8 8.7 5.6l-.2 2.5 2.2 1.2c3.1 1.7 7.1 2 9.9 2 2.1 0 4.3-.2 6.3-.6l2-.4.8-1.9c2.3-5.1 5.2-8.2 9.5-9.6.4.4.9.9 1.4 1.3 4.2 4.2 8.9 8.9 17.3 9.9l5 .6-.7-5c-.8-5.9-4.3-9.3-7.6-12.5-.7-.6-1.3-1.3-2-2-1-1-1.8-2-2.8-3.1-3.1-3.6-6.5-7.6-12.4-8.7-.9-.1-1.8-.2-2.6-.2-3.6 0-6.6 1.3-9.2 2.8v-.4l-4.6.8c-.6.1-1.2.2-1.8.2-5.4 0-9.5-5.2-13.4-10.2l-2.1-2.7c.3-2.1.3-4.4.3-6.6 3.9-1.9 7.4-4 10.8-6.1 2.4-1.4 4.8-2.9 7.3-4.2l1.6-.9.3-1.8c.8-4.7 1.7-9.5 3.1-13.6 1.3-.2 2.5-.3 3.7-.3 4.8 0 8.4 1.6 12.8 4.4 3.3 10.6 8 22 18.9 27.3 1.1 5.4 4.4 8.5 7.2 11 2.8 2.6 4.9 4.5 5.1 8.5l.1 2 1.7 1c4.9 2.9 7.8 6.1 9.3 14.3.2.8.3 1.6.5 2.4 1.2 6 1.7 9.4.1 12.4-49.4 3.3-109.5 5.4-178.8 6.2v-2.2c.1-5.8.4-13.6-7.1-16.5l-1.2-.5-2.5.6c-3.7.9-7.5 1.9-10.8 3.6-.3-.4-.7-.7-1-.9l-1.1-.7-1.3.1c-1.1.1-2.1.4-2.8.8-.1-.3-.3-.7-.5-1 .7-1.3 1.4-2.7 1.3-4.8 1.6-.8 3.5-1.2 5.6-1.7 2.8-.6 5.7-1.3 8.3-3 2.4-1.5 3.9-3.9 5.3-6.3 1.6-2.6 2.7-4.3 4.2-4.8.4.1.8.4 1.5.9.8.6 1.8 1.3 3.2 1.8l1.2.5 1.3-.4c6.5-1.9 9.2-7.9 11.7-13.2 1-2.1 1.9-4.2 3-5.8.5-.8 1.6-1.7 2.8-2.6 1.9-1.5 4-3.1 5.1-5.8 1-2.4 1.1-4.8 1.1-6.9 0-1.5.1-2.9.4-3.9l1.9-5.4-5.7.3c-3.3.1-5.7 1.1-7.8 1.9-1.2.5-2.3.9-3.4 1.2l-1.7.4-.8 1.5c-.8 1.4-1.5 2.7-2.2 4.1-2.6 4.9-5 9.5-9 11.9l-1.7 1-.2 1.9c-.1.6-.2 1.2-.5 1.7-1.2-1.5-2.7-2.4-4.4-3 .9-.2 1.8-.4 2.6-.7l.6-.2.5-.4c4.1-3.1 5.6-7.5 7-11.4.6-1.9 1.3-3.6 2-5 .7-1.2 2.2-2.6 3.8-4.2 1.4-1.3 2.9-2.8 4.3-4.4 1.1-1.2 2-2.4 2.9-3.6 2.5-3.3 4.1-5.2 6.7-5.9l3.5-.9-.6-3.5c-.4-2.1-.8-4-1.2-5.8-.9-3.8-1.7-7.3-1.7-11.4v-.1c0-1 .2-2.3.4-3.6.4-2.6.9-5.6-.1-8.7-1-3.5-4.1-5.5-6.8-7.3-1.5-1-3.1-2.1-3.9-3.1-1.1-1.4-1.5-2.8-2-4.4-.5-1.7-1.1-3.6-2.4-5.6l-.6-.9-1-.5c-.6-.3-1.3-.6-1.9-.9-4.8-2.2-9.3-4.2-11.4-8.6-.4-.7-.6-2.6-.8-4-.2-1.7-.5-3.4-1-5.1l-.4-1.1c-1.1-3.2-2.4-7.2-1.6-11.4.6-3 2.9-5.6 5.4-8.5 2.2-2.5 4.5-5.2 5.9-8.5 5.6.6 10.3.8 16.4 1.1 4.1 3 8.3 5.8 12.5 8.5.5.3.9.6 1.4.9-.3 2.6-.8 5.4-1.4 8.3-2.1 12.4-4.8 27.2 7.9 32.7zm30.4 4.7c.3 1.1.5 2.3.8 3.4.6 2.6 1.1 5.2 2 7.6-1.3-1.6-2.2-3.4-2.5-5.5-.4-1.8-.4-3.6-.3-5.5zm4.7-9.7c.3-.4.5-.7.7-1.1.3-.4.5-.8.8-1.1 2.1 1.3 4.2 2.7 6.3 4.2 7.9 5.4 16 11 28.1 12.8l1.7.2 1.3-1.1c1.7-1.4 3-3.1 4.1-4.6 2 1.7 4.7 4.2 4.7 5.7 0 .3-.2.7-.5 1-1.2.2-2.4.3-3.7.3-2.5 0-5-.4-7.7-.8s-5.5-.9-8.5-.9c-2.1 0-4 .2-5.9.7-2.8.7-5.1 2.4-7.3 4-2.2 1.7-4.3 3.2-6.3 3.2-2.3-2.2-3.2-6.6-4.2-11.2-.9-3.8-1.8-7.9-3.6-11.3zm43.4 115.1c1.3-.7 2.4-1.4 3.6-2.1 2.8-1.8 5-3.2 7.7-3.2.5 0 .9 0 1.3.1 2 .4 3.6 1.5 5.3 3.3l-1.9.4c-7.1 1.5-12.3 5.6-15.9 12.6-2.5.3-5.2.2-7.2-.2-.8-8.8-9.5-10.1-15.1-10.9-.4-4.1-2.1-7.8-3.6-11.1-1.4-3.1-2.7-6-2.9-8.8-.1-.9.3-2.2.6-3.6l.6-2.4c-.1 1.4-.2 2.7-.4 3.9l-.3 1.9 1.2 1.4c1 1.1 2 2.4 3 3.7 4.4 5.6 9.8 12.4 18.2 13.1v5l5.8-3.1zm-26.7-34.4c.1-.9.1-2 .2-2.9l.5 2.6-.7.3zm-88.9 24c2-1.8 3.6-4.3 4.3-7.1 4.9-3.6 7.7-8.8 10.4-14 .4-.9.9-1.7 1.3-2.5 1-.3 2-.7 2.8-1.1.2-.1.4-.1.6-.2 0 1.6-.1 3.1-.5 4.1-.3.7-1.6 1.8-2.8 2.7-1.5 1.2-3.2 2.5-4.4 4.3-1.5 2.1-2.6 4.5-3.6 6.9-1.6 3.5-3.2 6.9-5.5 8.4-.1-.1-.2-.1-.2-.2-.7-.3-1.5-.8-2.4-1.3zm1.1-96.5c.2.1.5.2.7.3.4.8.7 1.7 1 2.7.6 1.9 1.3 4.3 3.2 6.8 1.6 2.1 3.8 3.6 5.8 4.9 1.4.9 3.4 2.3 3.7 3.1.4 1.4.1 3.2-.2 5.2-.2 1.6-.5 3.2-.5 4.9 0 4.4.8 8.2 1.6 11.9l-2.4-.1c-.3 0-.7-.1-1.1-.2-.7-.1-1.4-.3-2.2-.3-1.8 0-3.3.7-4.4 1.9-1.1-3.1-3.7-5.3-5.3-6.5l-1.4-1-1.7.4c-6.2 1.5-10.6 4.2-13.4 8.2l-3.7 5.3.1-1.7c.2-2.8-.2-5.3-.5-7.5-.3-1.6-.5-3.1-.5-4.5.1-3.9 1-7.9 2-12.2.8-3.3 1.5-6.8 2-10.4 1.1-8.4.3-20.3-1.1-27.7-.4-2.3-1.3-4.4-2.1-6.2-.7-1.5-1.5-3.4-1.4-4.2.2-.6 1.4-1.8 2.3-2.7.5 2.3 1.2 4.4 1.7 6l.3.9c.3 1.1.5 2.6.7 3.9.3 2.3.7 4.5 1.5 6.3 3.4 7.1 10 10.1 15.3 12.5zm-2 44c-.9.2-1.2 0-2.8-.9-.1-.1-.2-.1-.4-.2.6-.2 1.2-.5 1.9-.7.8.8 1.2 1.5 1.3 1.8zm-22.4-79.4c-2.1 2-4.5 4.3-5 7.4-.4 3 .8 5.8 2 8.5.7 1.5 1.4 3.1 1.6 4.5 1.2 6.7 1.9 17.9 1 25.4-.4 3.3-1.2 6.5-1.9 9.7-1 4.4-2.1 9-2.2 13.7-.1 2.2.3 4.1.6 6 .2 1.1.4 2.1.4 3.1-1.9.8-3.5 1.8-5.1 2.6-1.9 1.1-3.5 2-5.2 2.5-1.3.4-2.8.5-4.4.5-1.8.1-3.9.2-5.9.8 0-41.4.3-82.4 1.9-120.4 2.1 1.7 4.3 3.1 6.3 4.5 1 .6 1.9 1.3 2.8 1.9l.5.3.5.2c.6.2 1.2.3 1.8.3.3.8.7 1.6 1 2.4.5 1 .9 1.9 1.2 2.9.2.7.3 1.8.3 2.9.1 2 .3 4.5 1.5 7 1.1 2.3 3.3 4.1 5.4 5.9 1.3 1.1 3.5 3 3.8 3.8 0 .9-1.9 2.7-2.9 3.6zm-22.9 92.7c1.3-.7 3-.8 5-.9 1.9-.1 4-.2 6.2-.8 2.7-.8 4.8-2 6.9-3.3 2-1.2 3.9-2.2 6.1-2.9l1.8-.5-.3.4 8.3-.8c1.8-.2 2.8.4 4.3 1.3s3.4 2.1 6.2 2.1c1.5 0 3.1-.4 4.8-1.1l.8-.3.6-.6c.6-.6 1-1.3 1.4-2l.5.2c.5.8 1.5 2.2 3.5 2.6-.1.1-.2.2-.2.3-.8 1.1-1.7 2.2-2.6 3.2-1.2 1.4-2.5 2.6-3.8 3.9-2 1.9-3.9 3.7-5.2 5.9-1.1 2.1-1.9 4.2-2.6 6.3-1.1 3-2 5.7-3.9 7.4-1.2.3-2.3.5-3.7.5-.7 0-1.3 0-1.9-.1.5-.9.8-1.8 1.1-2.8.6-2.8.2-5.8-1.2-8.7.8-.9 1.5-2.3 1.6-4.3l.1-2.8-2.7-1c-.9-.3-1.7-.5-2.5-.7-.8-.2-1.7-.4-2.2-.7l-4.1-1.8-1.2 4.4c-1.1 4.1-3.3 7.3-5.7 10.8-.4.6-.9 1.3-1.3 1.9l-3.1 4.6 5.4 1.3c1.9.5 3.4 1.5 4.9 2.9l-.1 1.4c-.1 2.3.8 3.8 1.4 4.6 0 .1.1.1.1.2l-.1 2.8 2.8.9c1.8.6 3.8.8 5.8 1 .7.1 1.5.2 2.3.3-.5 1.1-.6 2.4-.3 3.9l.4 2 1.8.8h.1c-1.7 1.6-2.9 3.6-3.9 5.3-1 1.6-2 3.2-2.9 3.8-1.6 1-3.7 1.5-5.9 2-3.4.8-7.2 1.6-10.6 4.5l-2 1.6.7 2.4c.2.8.2 1.1.2 1.1 0 .1-.2.4-.3.6-.4.8-1 1.8-1.4 3.4l-.5 2.2 1.7 1.5c.6.6.8 1.1.5 3.7-.9-.3-1.7-.3-2.4-.3-.5 0-1 0-1.5.1-.4 0-.9.1-1.2 0l-4.1-.2v4.1c0 1.7.4 3 .9 3.8l-1.4 2h-2.2c0-27.2-.2-54.9-.2-82.5.2-.4.6-.7 1-.9zm25.8 16.2c-.1.3-.2.6-.4.9-.7-.6-1.5-1.2-2.3-1.7.7-1 1.3-2 1.9-3 .8 1.3 1 2.7.8 3.8zm-12.4 64.8c.2-.5.4-.9.6-1.2l.3-.6h.9c2.1 0 3.6-.8 4.6-1.8.7.4 1.6.7 2.7.7l1.7.1 1.2-1.2c2.4-2.4 6.7-3.6 11.4-4.7 1.2 1.1 1.4 3.6 1.3 8.6v2.4c-8.6 0-17.3-.1-25.9-.1.5-.8.9-1.6 1.2-2.2zm-45.8 371.5c-81.3-11.3-159.8-48.5-222.3-112-62.9-63.7-99.6-143.8-110.4-226.8-52.8-324.1 286.5-505.9 429.3-460.6-49.4-13.4-91.8 25.1-91.8 457.2 425.8 0 463.8-43.2 450.5-93.2 44.7 145-134.9 490-455.3 435.4z"/><path d="M-6385.2 6735.9s-301.4 34.4-237.5 455.9c-2.1-29.6-2.5-57.1-1.5-82.7 3 6.1 6.6 10.7 10.7 13.8 1.1.9 2.5 1.1 4.2 1 2.6 2.5 5.1 5.8 7.5 9.9l1.3 2.1 2.5-.3c.4 0 .8-.1 1.1-.1 2.2 0 3.7.8 5.5 1.8.5.3 1.1.6 1.6.8 2.4 3.5 4.5 7.4 6.6 11.4 4.5 8.5 9.2 17.2 17.3 23.1l1.3.9 1.6-.2c5.4-.8 10.9-1.1 16.3-1.3 8-.4 15.7-.7 22.3-2.8 2.1 1.9 4.3 3.6 6.6 5.2 3.1 2.2 6.1 4.3 8.5 7.3.8 1 1.5 2.4 2.2 3.8.9 1.9 1.9 4 3.5 5.7 2.7 3.1 6.5 6.1 10.5 9.2 4.7 3.6 9.5 7.4 13 11.7.5.6 1.1 1.3 1.6 2 3.9 4.8 8.4 10.3 13.3 12.9 2.3 1.2 4.9 1.6 7.4 2.1 1.6.3 3.1.5 4.4 1 2.2.7 5.1 2.1 8 3.5.8.4 1.7.8 2.5 1.2 1.4.6 2.7 1.4 4 2.2 2.9 1.8 5.9 3.6 9.7 3.6 2.1 0 4.1-.5 6.2-1.6l1.8-.9.5-3.3c.3-2.4.7-4.9.8-7.6v-.7l-.2-.6c-1-3.2-3.3-6.8-5.6-10.8-4-6.5-8.8-14.4-7.2-19.3 2.8 7.2 7.6 14.1 11.6 19.9l1.5 2.1c1.9 2.7 3.5 5.6 5.2 8.4 2.5 4.4 4.9 8.5 7.8 11.6 1.9 2 4.1 3.5 6.1 4.8 2.2 1.5 4.2 2.7 5.1 4.5 1 1.9 1.8 3.9 2.6 6 2.1 5.5 4.5 11.8 12 15.3l.7.3h.7c9.4.6 16.7 3.3 24.4 6.1 1.2.5 2.5.9 3.8 1.4l2.5.9 1.7-2.1c.9-1.1 2.2-1.8 3.6-2.7 1.8-1.1 3.9-2.3 5.7-4.5 1.3-1.5 2.1-3.3 2.8-4.9.3-.7.6-1.3.8-1.7 1 4.2.7 9.1-.8 14.6l-.7 2.4 1.9 1.6c4.9 4 9.7 8.7 12.4 15.5-.2.2-.4.4-.5.6l-.2.2-1.6 1-.1 2c-.3 6-3 9.4-6.2 13.4-1.8 2.2-3.7 4.6-5.1 7.5l-.7 1.3.4 1.5c.5 1.9 1.7 3.1 2.7 3.9-3.8 2.8-10.3 3.7-17.1 4.6l-4.5.6-.9.1-.7.5c-1.6 1.1-2.8 2.4-3.8 3.5-.6.6-1.1 1.2-1.6 1.7-.9.1-1.7.2-2.4.3-1.4.2-2.6.3-3.9.2l-1.8-.2-1.3 1.3c-.6.6-1.3 1.2-1.9 1.9-2.3 2.3-4.1 4.2-7 4.8l-2.3.5-.7 2.2c-.2.7-.4 1.5-.5 2.1-.1.6-.3 1.6-.5 1.9.1-.2.6-.5.8-.5l-1.3 7.5 1.5.6c-.9.3-1.8.6-2.6.8-1.4.5-2.7.9-4.1 1.2l-5.8 1.4 3.7 4.7c3.5 4.4 10.4 5.1 14.2 5.1 4.7 0 11.1-1 14.8-3.9l2.9-2.3c3 .5 6.1.8 9.3.8h2.1c2.3-.1 4.6-.6 6.8-1 2.3-.5 4.4-.9 6.4-.9h.3c4.9.1 9.7 2.2 15.3 4.8 3.1 1.4 6.3 2.9 9.8 4.1 2.5.9 5.1.9 7.6.9-39.7 5.4-85 7-136.7 3.2 415.3 64.5 449.3-241.1 449.3-241.1l-395.6-.3-.2-401.9zm-24.1 438.3.5-1.7c1.3-4.4 4.1-9 7.8-11.8h11.5c-2 2.2-3.9 4.4-5.8 6.6-3.1 3.6-6 7-9.1 10.1-3.4.7-6.6 1.7-9.6 2.7-.8.3-1.6.5-2.4.8.1-.6.2-1.2.2-1.9.1-.1.3-.2.4-.3 1.7-1.6 3.3-2.9 5.1-3.8l1.4-.7zm-3.9-398.2v49.3c-3.4 2.3-5.8 4.9-8 7.2-2.4 2.5-4.4 4.7-7.2 6.1-1.4.7-3.3.9-5.4 1.1-2.3.3-5 .5-7.9 1.5-4.5 1.6-9 6.2-12.7 9.9l-1 1c-1 1-2.1 2-3.3 3-3.2 2.8-6.4 5.7-8.3 9.4-3.4 6.5-4.2 14-5 21.3-.4 3.7-.8 7.6-1.6 11.2-.5 2.2-1.1 4.2-1.8 6.4-1.4 4.6-2.9 9.3-2.6 15.6.1 2.4.7 5 1.2 7.5.7 3.2 1.4 6.5 1.1 9.2-.1 1.2-.8 2.5-1.7 4-.9 1.6-2 3.6-2.6 5.9-8 6-9 17.2-8.9 25.8-1.3 1.6-2.6 3-4.1 4.2-6.7-4.7-13.4-7.1-19.8-7.2h-1.7l-1.2 1.2c-7.6 8-16.4 15.1-25 22-4.3 3.5-8.7 7-13 10.7-2.8-1.7-6.1-2.9-10.5-2.9-.1-.2-.2-.4-.3-.7-1-1.9-2.3-4.4-5.4-5.6-2.5-1-5.3-1-8-1.1-2.5 0-5.1 0-6.5-1l-1.9-1.2-2 1.1c-3.8 2.1-6.3 5.4-8.8 8.7-2.3 2.9-4.4 5.7-7 7-1.4.7-2.7 1.1-4 1.6-1.3.5-2.7.9-4.1 1.6 37.6-166.6 146.8-218.4 199-233.8zm129.1 595.5c-.7-.1-1.4-.3-2.2-.4l-1.5-.3c-1.1-.2-2.3-.7-3.6-1.2-1.4-.6-2.9-1.2-4.6-1.6-1.6-.4-3.2-.4-4.7-.4h-1.2c-1.8 0-3.7.1-5-.4-3.2-1.1-6.3-2.5-9.2-3.8-6.1-2.8-11.9-5.4-18.4-5.5h-.4c-2.8 0-5.4.5-8 1-2 .4-3.8.8-5.5.8-10.2.4-18.8-2.5-27.7-5.9.2-.6.3-1.1.4-1.6 3.8-1.4 6.3-4 8.5-6.3l.5-.5c1.5 0 2.8-.2 3.9-.3 1-.1 1.8-.2 2.6-.2h1.1l.9-.6c1.7-1.1 2.9-2.4 4-3.6.6-.7 1.1-1.3 1.7-1.7 1.1-.2 2.3-.3 3.4-.4 9.7-1.3 19.7-2.5 24.7-10.2l1-1.5-.5-1.7c-.7-2.1-2.1-3.4-3.2-4.1.9-1.3 1.9-2.6 3-3.9 3.3-4.1 6.9-8.6 7.7-16l4.8.5-1.5-5.4c-2.6-9.6-8.4-16-14-20.9 1.8-8.2 1.2-15.5-1.8-21.7l-.9-1.9h.4l-.6-4.7c-.6-4.3-1.2-9.2-2.5-13.6 2.3-4.8 6.1-8.4 10-12.1 1.2-1.2 2.5-2.4 3.7-3.6l5.2-5.3-6.6-1.1v-.1c0-.8-.1-1.8-.4-2.9l-.5-2-1.9-.7c-.2-.1-.3-.1-.5-.2-.9-.4-2.3-1.1-4.4-1l-2.2.1-1 2c-1.9 3.8-5 6.7-8.2 9.8-4.3 4.1-9.2 8.8-11.4 16.2l-.2.8.1.8c.3 2.2.8 4.2 1.2 6.1.4 1.8.8 3.6 1.1 5.4l.3 1.9 1.7.9c4.2 2.2 7.6 2.6 12.3 2.9h.5c-5.5.7-7.5 5.5-8.7 8.4-.5 1.1-1 2.3-1.5 2.9-1 1.2-2.3 1.9-3.8 2.8-1.2.7-2.4 1.4-3.6 2.4-.5-.2-1-.4-1.4-.5-7.7-2.8-15.6-5.7-25.8-6.5-4.2-2.2-5.6-6-7.5-10.8-.8-2.2-1.7-4.5-3-6.8-1.9-3.5-5-5.5-7.7-7.3-1.7-1.1-3.4-2.2-4.6-3.5-2.4-2.5-4.5-6.3-6.8-10.3-1.7-2.9-3.5-6-5.5-8.9-.5-.7-1-1.4-1.5-2.2-4.2-6.1-9.5-13.7-11.6-20.7l-.8-2.8h-9.5l-1.2 1.4c-7.1 8.8 0 20.5 5.7 29.9 1.9 3.2 3.8 6.3 4.7 8.5-.1 1.8-.3 3.5-.6 5.3-.3.1-.6.1-.9.1-1.7 0-3.4-1.1-5.7-2.5-1.4-.9-3-1.8-4.8-2.6-.8-.4-1.6-.8-2.4-1.1-3-1.5-6.2-3-8.8-3.8-1.8-.6-3.7-1-5.5-1.3-2-.4-3.9-.7-5.2-1.3-3.5-1.8-7.6-6.9-10.8-10.9-.6-.7-1.1-1.4-1.7-2.1-4.1-4.9-9.5-9.1-14.2-12.9-3.7-2.9-7.2-5.7-9.5-8.2-.9-1-1.6-2.5-2.4-4-.9-1.8-1.8-3.8-3.3-5.4-3-3.6-6.5-6.1-9.9-8.6-2.7-1.9-5.2-3.7-7.1-5.9l-1.8-2.1-2.6 1.1c-5.9 2.4-13.8 2.8-22.2 3.2-5 .2-10.2.5-15.4 1.2-5.9-4.8-9.7-12-13.8-19.5-2.4-4.4-4.8-9-7.7-13.1l-.6-.9-1-.4c-.7-.3-1.3-.6-2.1-1-2.1-1.1-4.8-2.5-8.6-2.7-2.7-4.2-5.5-7.6-8.5-10.4l-.3-.2-.3-.2c-1-.6-2.1-.9-3.4-.9h-.8c-4-3.3-7.4-8.8-10.3-16.5-.3-23.3.9-45.8 3.5-67.2.6-3.3 1.2-6.5 1.8-9.7 1.6-2.1 3.3-3.8 4.9-5.1 1.2-.9 2.6-1.4 4.4-2 1.4-.5 3-1 4.8-1.9 4.3-2.1 7.2-5.9 9.8-9.3 1.6-2.1 3.2-4.2 4.9-5.6 2.7 1 5.6 1 8.2 1 1.9 0 4 0 5.2.5.4.1.8.9 1.4 2 .6 1.1 1.3 2.5 2.5 3.8l1.3 1.4 1.9-.2c.6-.1 1.2-.1 1.8-.1 3.7 0 5.9 1.4 8.2 3.1l2.5 1.9 2.4-2.1c4.9-4.3 10-8.4 15-12.4 8.3-6.7 16.9-13.6 24.6-21.4 5 .5 10.3 2.9 15.8 7.2l2.1 1.6 2.3-1.4c3.7-2.3 6.4-5.3 9-8.5l.9-1.1v-1.5c-.4-11.5 1.8-18.5 6.6-21.5l1.6-1 .2-1.9c.2-1.7 1-3.2 2-4.9 1.1-2 2.4-4.3 2.7-7.1.4-3.8-.4-7.7-1.3-11.5-.5-2.3-1-4.5-1.1-6.3-.2-4.9.9-8.6 2.3-12.9.7-2.2 1.4-4.5 1.9-7.1.8-4 1.3-8 1.7-11.9.7-6.9 1.4-13.4 4.1-18.6 1.2-2.4 3.8-4.7 6.5-7.2 1.2-1.1 2.4-2.1 3.6-3.3l1.1-1.1c2.7-2.8 6.8-7 9.7-8 2-.7 4-.9 6.2-1.2 2.6-.3 5.3-.6 8-1.9 4.1-2.1 6.8-5 9.5-7.8.8-.8 1.5-1.6 2.3-2.4v325.4h1.7c-1.8 2.5-3.2 5.2-4.2 8-2.1 1.2-3.8 2.7-5.4 4.2-.5.4-1 .9-1.5 1.3l-1.2 1.1-.1 1.6c-.1 2.5-.6 4.7-1 7.1l-1.4 7.3 5.8-1.3c3.1-.7 6-1.6 8.8-2.5 3.3-1.1 6.4-2.1 9.9-2.7l1.1-.2.8-.8c3.7-3.6 7.1-7.6 10.4-11.4 3.5-4.1 6.9-8.1 10.7-11.6h278.9l.5 2.2 2.7.4c2.3.3 3.8 1.4 4.9 3.6-1.4 5.2-.7 10.1 2.3 14.7l1.8 2.9 3.1-1.4c2.9-1.3 5.3-3.1 7.6-4.8 1.9-1.4 3.6-2.6 5.5-3.6-1.8 3-3.7 6.1-5.4 9.3l-3.2 6 6.8-.4c2.7-.1 4.8-1.6 6.7-3.2 1.2 2.5 3 4.1 4.5 5.3 1.2 1 2.1 1.8 2.5 2.7l2.3 5.4 4-4.3c1.4-1.5 1.8-3.3 2-4.7l.6-.3c3-1.5 6.7-1.9 10.6-2.4l2.1-.3c-5 13.9-11.9 29.8-21.5 46.2-32.1 51.4-91.8 109-202 133.9-7.2 1.5-14.8 2.6-22.6 3.6zm-44.2-155.5c.3-.4.6-.8.9-1.1 0 .1.1.1.1.2-.2.2-.4.4-.6.5-.1.2-.3.3-.4.4zm-12.1 18.3c.9 2.7 1.5 5.8 2 8.8-1-.2-1.8-.4-2.7-.8-.3-1.4-.6-2.7-.9-4-.4-1.5-.7-3-1-4.5 1.7-4.7 4.9-8.1 8.5-11.5-2.3 2.6-4.3 5.6-5.8 9.2l-.6 1.3.5 1.5zm307.4-55.1h-.1c-2.3.7-5 1-7.8 1.3-3.1.4-6.3.8-9.4 1.7-.8-.5-1.6-.7-2-.8l-1.7-.2-1.3 1.1c-1.2 1-1.9 2-2.4 3.1-1.9-1.6-2.6-2.6-2.1-5.6l1.3-7.5-3.6 1.8 1.8-3 3.2-5.5-6.4-.3c-8.1-.4-13.5 3.5-18.1 6.8l-3 2.1c-.5-1.9-.3-3.9.5-6.1l.5-1.4-.5-1.4c-.7-1.7-1.5-3.3-2.6-4.5h59.3c-1.4 5.4-3.3 11.6-5.6 18.4z"/></g></svg>