<!-- Generated by IcoMoon.io -->
<svg version="1.1" xmlns="http://www.w3.org/2000/svg" width="32" height="32" viewBox="0 0 32 32">
<title>add-new</title>
<path d="M16 0c-8.823 0-16 7.177-16 16s7.177 16 16 16 16-7.177 16-16-7.177-16-16-16zM16 30.171c-7.817 0-14.171-6.354-14.171-14.171s6.354-14.171 14.171-14.171c7.817 0 14.171 6.354 14.171 14.171s-6.354 14.171-14.171 14.171z"></path>
<path d="M22.537 13.989h-4.48v-4.48c0-1.097-0.914-2.011-2.011-2.011s-2.011 0.914-2.011 2.011v4.48h-4.48c-1.097 0-2.011 0.914-2.011 2.011s0.914 2.011 2.011 2.011h4.48v4.48c0 1.097 0.914 2.011 2.011 2.011s2.011-0.914 2.011-2.011v-4.48h4.48c1.097 0 2.011-0.914 2.011-2.011s-0.914-2.011-2.011-2.011z"></path>
</svg>
