<!-- Generated by IcoMoon.io -->
<svg version="1.1" xmlns="http://www.w3.org/2000/svg" width="32" height="32" viewBox="0 0 32 32">
<title>downArrow</title>
<path d="M0 30.080c0 1.067 0.853 1.92 1.92 1.92h27.947c1.067 0 1.92-0.853 1.92-1.92s-0.853-1.92-1.92-1.92h-27.947c-1.067 0-1.92 0.853-1.92 1.92zM17.493 23.68c-0.427 0.427-0.853 0.64-1.493 0.64s-1.067-0.213-1.493-0.64l-7.040-7.040c-0.853-0.853-0.853-2.133 0-2.773s2.133-0.853 2.773 0l3.627 3.627v-15.36c0-1.067 0.853-1.92 1.92-1.92s1.92 0.853 1.92 1.92v15.36l3.627-3.627c0.853-0.853 2.133-0.853 2.773 0s0.853 2.133 0 2.773l-6.613 7.040z"></path>
</svg>
