<!-- Generated by IcoMoon.io -->
<svg version="1.1" xmlns="http://www.w3.org/2000/svg" width="32" height="32" viewBox="0 0 32 32">
<title>lupa</title>
<path d="M31.238 29.714l-4.876-4.724c2.438-2.59 3.962-6.095 3.962-9.905 0-8.076-6.705-14.629-15.086-14.629-8.229 0-15.086 6.552-15.086 14.629s6.705 14.629 15.086 14.629c3.505 0 6.857-1.219 9.448-3.2l4.876 4.724c0.152 0.152 0.457 0.305 0.762 0.305s0.61-0.152 0.762-0.305c0.61-0.305 0.61-1.067 0.152-1.524zM15.39 27.429c-7.010 0-12.8-5.486-12.8-12.343s5.638-12.343 12.8-12.343c7.010 0 12.8 5.486 12.8 12.343s-5.79 12.343-12.8 12.343z"></path>
</svg>
