<!-- Generated by IcoMoon.io -->
<svg version="1.1" xmlns="http://www.w3.org/2000/svg" width="123" height="32" viewBox="0 0 123 32">
<title>megalogo</title>
<path d="M20.513 25.026h-0.082v0.082c-0.082 0-0.082 0-0.164 0.082v0 0.082c0 0.164 0 0.246 0 0.246s0 0 0 0v0.082h0.164c0.164 0 0.41-0.082 0.492-0.41v-0.164h-0.164c-0.164 0-0.164 0-0.246 0z"></path>
<path d="M23.795 15.754h0.082v-0.164c0-0.164-0.082-0.246-0.246-0.246h-0.082c0 0 0 0-0.082 0 0 0 0 0 0 0h-0.164v0.082c-0.164-0.082-0.328-0.246-0.41-0.41 0.082-0.082 0.164-0.246 0.164-0.328s0-0.082 0.082-0.164l0.082-0.246h-0.246c0 0 0 0-0.082 0h-0.082v0.082c0 0-0.082 0-0.082 0h-0.164c-0.082 0.082-0.164 0.164-0.246 0.246 0 0-0.082 0.082-0.082 0.082v0 0.082c-0.082 0.41 0.164 0.738 0.41 0.985 0.082 0.082 0.082 0.164 0.164 0.164 0 0-0.082 0.082-0.082 0.164v0 0c0.082 0.164 0.164 0.328 0.328 0.41 0 0 0.082 0.082 0.082 0.082l0.082 0.082h0.082c0.082 0 0.082 0 0.164 0s0.164 0 0.246 0l0.082-0.082v-0.082c0 0 0.082-0.082 0.082-0.164v-0.082c0.164-0.164 0.082-0.328-0.082-0.492zM23.795 16.41c0 0-0.082 0-0.082 0-0.082 0-0.082 0-0.164 0 0 0 0 0-0.082-0.082s-0.164-0.164-0.164-0.246c0 0 0 0 0-0.082 0 0 0-0.082 0.082-0.082v-0.082l-0.082-0.082c-0.082-0.082-0.164-0.164-0.246-0.328-0.164-0.164-0.328-0.41-0.328-0.656 0 0 0 0 0 0v0.082c0.082 0.328 0.328 0.574 0.574 0.738 0 0.082 0.082 0.164 0.082 0.164 0.246 0.328 0.328 0.41 0.41 0.656 0-0.082 0 0 0 0z"></path>
<path d="M24.123 26.256h-0.082c-0.246 0-0.328 0.164-0.41 0.328 0 0-0.082 0.082-0.082 0.082s-0.082 0.082-0.082 0.082-0.082 0.164-0.164 0.164c0 0-0.082 0-0.082 0-0.082 0-0.082 0-0.164 0.082-0.328 0.164-0.41 0.492-0.492 0.738-0.246 0.082-0.328 0.328-0.41 0.492l-0.082 0.082 0.082 0.082c0.082 0.082 0.246 0.164 0.41 0.164 0.328 0 0.656-0.246 0.82-0.41v-0.246l0.082-0.082c0.41-0.328 0.903-0.738 0.738-1.559h-0.082zM23.221 27.733l-0.164 0.164v0.164c-0.164 0.164-0.492 0.328-0.738 0.246 0.082-0.164 0.164-0.164 0.246-0.246h0.082v-0.082c0.082-0.246 0.164-0.492 0.41-0.656 0 0 0.082 0 0.082 0 0.082 0 0.082 0 0.164-0.082s0.164-0.164 0.246-0.246c0 0 0.082-0.082 0.082-0.082 0-0.082 0.082-0.082 0.082-0.164s0.082-0.082 0.082-0.164c0.164 0.574-0.164 0.82-0.574 1.149z"></path>
<path d="M68.677 9.846l-1.477-1.477h-5.99l-1.477 1.477v4.431l1.477 1.395h5.99l1.477-1.395v-2.954h-4.513l-1.477 1.477h4.513v1.477h-5.99v-4.431z"></path>
<path d="M50.79 14.277v-1.477h5.908v-1.477h-5.908v-1.477h7.385l-1.477-1.477h-7.467v7.303h7.467l1.477-1.395z"></path>
<path d="M90.585 11.323v-1.477l-1.477-1.477h-7.467v7.385h1.477v-2.954h5.99l1.477-1.477zM83.118 9.846h5.99v1.477h-5.99v-1.477z"></path>
<path d="M115.61 11.323v-1.477h7.467l-1.477-1.477h-5.99l-1.477 1.477v1.477l1.477 1.395h5.908v1.477h-7.385l1.477 1.477h5.99l1.477-1.477v-1.477l-1.477-1.395z"></path>
<path d="M104.123 14.195v-5.826h-1.559v7.303h7.467l-1.477-1.477z"></path>
<path d="M111.097 8.369h1.477v7.385h-1.477v-7.385z"></path>
<path d="M101.087 9.846l-1.477-1.477h-5.99l-1.559 1.477v4.431l1.559 1.477h5.99l1.477-1.477v-4.431zM99.61 14.195h-5.99v-4.431h5.99v4.431z"></path>
<path d="M72.123 8.369l-1.477 1.477v5.908h1.477v-2.954h5.99v2.954h1.477v-5.908l-1.559-1.477h-5.908zM78.113 11.241h-5.99v-1.477h5.99v1.477z"></path>
<path d="M39.303 8.369l-1.477 1.477v5.826h1.477v-5.826h2.462v5.826h1.559v-5.826h2.462v5.826h1.477v-5.826l-1.477-1.477z"></path>
<path d="M15.344 6.646v0l-0.082 0.082c-0.082 0.246 0.082 0.41 0.164 0.492s0.082 0.082 0.082 0.164l0.082 0.082h0.082c0.164 0 0.492-0.082 0.574-0.328 0 0 0 0 0 0l0.164 0.082 0.082-0.082c0-0.082 0.082-0.082 0.082-0.082 0.082-0.082 0.082-0.082 0.164-0.164l0.082-0.164-0.246-0.082c-0.246-0.082-0.492-0.082-0.574 0.082-0.082 0-0.082-0.082-0.164-0.082h-0.164c-0.082 0-0.082 0-0.164 0 0-0.082-0.082 0-0.164 0zM15.836 6.81c0.082 0.082 0.164 0.082 0.246 0.164 0 0.082-0.082 0.164-0.246 0.164 0-0.082-0.082-0.082-0.082-0.164-0.082-0.082-0.082-0.164-0.082-0.164 0.082 0 0.082 0 0.164 0-0.082 0-0.082 0 0 0z"></path>
<path d="M11.569 11.241l-0.082-0.082-0.082 0.082c-0.082 0.082-0.082 0.082-0.164 0.164-0.164 0.164-0.41 0.328-0.574 0.574v0.164c0.082 0.082 0.082 0.164 0.164 0.246l0.082 0.082h0.082c0.246-0.082 0.738-0.41 0.738-0.82 0.082-0.164 0.082-0.328-0.164-0.41zM11.077 12.062c0 0-0.082 0 0 0 0.082-0.246 0.246-0.328 0.41-0.492 0 0 0.082-0.082 0.082-0.082s0 0.082 0 0.082c0 0.164-0.328 0.41-0.492 0.492z"></path>
<path d="M11.815 8.862c-0.082-0.082-0.164-0.246-0.328-0.328-0.082 0-0.246-0.082-0.328-0.082-0.164 0-0.246 0-0.328-0.082l-0.164-0.082-0.082 0.164c0 0 0 0.082-0.082 0.082 0 0.082-0.082 0.164-0.082 0.246v0.082c0.082 0.246 0.246 0.41 0.492 0.492h0.164c0.164-0.082 0.41-0.164 0.738-0.246l0.246-0.082-0.246-0.164c0 0.082 0 0.082 0 0zM10.995 9.108c-0.082-0.082-0.246-0.164-0.246-0.246 0 0 0-0.082 0.082-0.082v0c0.082 0 0.246 0.082 0.328 0.082s0.164 0 0.246 0.082c0.082 0 0.082 0.082 0.164 0.082-0.246 0-0.41 0-0.574 0.082z"></path>
<path d="M20.923 5.744v14.851h-15.097c0 0 1.313 11.323 17.067 8.944-1.149 0.082-2.133 0.082-3.118 0.082 0.246-0.082 0.41-0.246 0.574-0.41 0.082-0.082 0.082-0.082 0-0.164 0.082-0.082 0.246-0.164 0.41-0.246l0.082-0.082v-0.082c0-0.082 0-0.164 0.082-0.246 0 0 0 0 0-0.082 0.164-0.082 0.246-0.164 0.41-0.246 0.328-0.164 0.656-0.328 0.903-0.656v-0.164c0-0.164 0-0.41-0.082-0.574 0-0.328 0-0.574-0.082-0.82 0.082-0.082 0.164-0.164 0.164-0.246 0.082-0.082 0.164-0.246 0.246-0.328 0 0 0.082-0.082 0.164-0.082s0.164-0.082 0.246-0.164c0.082-0.082 0.246-0.246 0.328-0.41 0.164-0.164 0.246-0.328 0.41-0.492l0.082-0.082c0.164-0.164 0.41-0.328 0.492-0.492 0.082-0.082 0.082-0.164 0.082-0.246s0-0.082 0-0.164 0.082-0.164 0.164-0.328l0.082-0.082c0-0.082 0.082-0.082 0.082-0.164 0.082-0.164 0.246-0.328 0.082-0.574v-0.082h-0.082c-0.082 0-0.164 0-0.328 0v0 0c-0.082 0-0.246 0.082-0.41 0.246-0.246 0.164-0.574 0.328-0.738 0.246 0.246-0.082 0.492-0.246 0.738-0.41l0.082-0.082c0.082-0.082 0.246-0.164 0.328-0.164 0.164-0.082 0.328-0.164 0.41-0.328 0.082-0.082 0.164-0.164 0.164-0.246 0.082-0.082 0.082-0.164 0.164-0.164s0.164-0.082 0.246-0.082c0.246-0.082 0.41-0.164 0.574-0.41v-0.082c0-0.328 0.082-0.656 0.246-0.903l0.082-0.246-0.082-0.082c0 0-0.082-0.082-0.082-0.164s-0.082-0.164-0.164-0.246c-0.082-0.082-0.164-0.082-0.164-0.082s-0.082 0-0.082 0c0.164 0 0.328 0 0.574 0h0.082l0.082-0.082c0.164-0.164 0.328-0.328 0.574-0.492 0 0 0 0 0 0v0.082h0.082c0.246 0 0.328 0.082 0.492 0.246 0.082 0.082 0.164 0.164 0.246 0.164h0.164c0.082 0 0.082-0.082 0.164-0.082 0.082 0.164 0.164 0.41 0.164 0.656v0.246c0 0.082 0.082 0.082 0.164 0.164 0 0 0.082 0 0.082 0.082 0 0 0 0.082 0 0.082 0 0.082 0 0.082 0 0.164v0.082l0.082 0.082c0 0 0.082 0.082 0.082 0.082 0.082 0.082 0.164 0.164 0.164 0.246v0.082h0.082c0 0 0.082 0 0.082 0s0.082 0 0.082 0c0 0 0 0 0 0l0.246 0.082v-0.082c0 0 0 0.082 0 0.082 0 0.082 0 0.082 0.082 0.164l0.082 0.246 0.164-0.164c0.246-0.246 0.246-0.82 0.082-1.067l-0.082-0.082c0-0.164 0-0.246 0-0.41 0-0.082 0-0.164 0-0.246s0-0.164 0-0.246 0.082-0.328 0.164-0.574c0.082-0.082 0.082-0.246 0.164-0.328 0-0.082 0-0.164 0-0.246 0.164 1.477 0.246 3.2 0.082 5.087 2.38-15.672-9.108-16.985-9.108-16.985zM22.482 7.385v0c0 0.082 0 0.164 0.082 0.328 0 0.082 0 0.246 0.082 0.328 0 0 0 0.082 0 0.082v0.164c0 0.082 0.082 0.082 0.082 0.082-0.082 0.082-0.082 0.082-0.246 0.082l-0.246-0.082 0.082 0.164c0 0-0.082-0.082-0.082-0.082l-0.246-0.082v0.246c0 0.328 0.164 0.492 0.246 0.656 0 0 0.082 0.082 0.082 0.082-0.082 0-0.164 0-0.246 0h-0.164c-0.082 0-0.082 0.082-0.164 0.082v-2.215c0.246 0 0.492 0.082 0.738 0.164zM21.744 20.759c0.082 0.082 0.164 0.164 0.246 0.246 0.164 0.082 0.246 0.246 0.41 0.328 0 0.164 0.082 0.246 0.082 0.328 0 0 0 0.082 0 0.082s-0.082 0-0.082 0v0c-0.082-0.082-0.082-0.082-0.164-0.164v-0.082h-0.082c-0.164-0.082-0.328-0.164-0.41-0.328v-0.41zM7.385 21.662h1.887c0.082 0.164 0.164 0.246 0.246 0.328s0.164 0.164 0.246 0.246c0 0.082 0 0.082 0.082 0.164 0 0.082 0 0.164 0.082 0.328s0.246 0.328 0.41 0.492v0c0 0 0.082 0.082 0.082 0.082 0.082 0.082 0.246 0.246 0.328 0.328 0.246 0.164 0.492 0.164 0.82 0.164 0.164 0 0.246 0 0.41 0.082 0.082 0 0.164 0.082 0.246 0.082 0.164 0.082 0.328 0.082 0.492 0.082h0.082c0.082 0 0.164 0 0.246-0.082 0.082 0 0.246-0.082 0.328-0.082s0.082 0 0.164 0.082c0.082 0 0.164 0.082 0.246 0.082 0.164 0.246 0.492 0.328 0.903 0.328h0.082c0.082 0.082 0.082 0.082 0.164 0.164-0.164 0.246-0.246 0.492-0.246 0.738v0.082l0.082 0.082c0.328 0.246 0.574 0.656 0.821 0.903 0.164 0.164 0.246 0.328 0.41 0.492-0.082 0.082-0.082 0.246-0.082 0.41 0 0 0 0 0 0-0.082 0-0.164 0.082-0.246 0.164 0 0.082 0 0.164 0 0.328 0 0.082 0 0.164 0 0.246l-0.082 0.082 0.082 0.082c0.082 0.164 0.164 0.246 0.328 0.328 0.082 0.082 0.246 0.164 0.246 0.246s0.082 0.082 0.082 0.164c0 0.082 0 0.082 0.082 0.164-6.564-1.313-8.451-5.415-9.026-7.385zM23.138 22.728c0.246 0 0.574-0.164 0.82-0.328 0.082-0.082 0.246-0.164 0.328-0.164s0.164 0 0.164 0c0 0.082 0 0.164-0.082 0.246 0 0.082-0.082 0.082-0.082 0.164l-0.082 0.082c-0.082 0.082-0.082 0.246-0.164 0.328 0 0.082 0 0.164-0.082 0.246 0 0.082 0 0.164-0.082 0.164-0.082 0.164-0.246 0.246-0.41 0.41l-0.082 0.082c-0.164 0.164-0.328 0.328-0.492 0.492-0.082 0.164-0.246 0.246-0.328 0.328 0 0-0.082 0.082-0.164 0.082s-0.164 0.082-0.164 0.082c-0.164 0.082-0.246 0.246-0.328 0.41-0.082 0.082-0.164 0.164-0.246 0.246l-0.082 0.082v0.082c0.082 0.246 0.082 0.492 0.082 0.82 0 0.164 0 0.41 0.082 0.574-0.164 0.246-0.41 0.328-0.738 0.492-0.164 0.082-0.328 0.164-0.492 0.328v0 0c0 0 0 0.082 0 0.082-0.082 0.082-0.082 0.164-0.082 0.328-0.164 0.082-0.328 0.246-0.41 0.328 0 0.082 0 0.082 0 0.164-0.164 0.164-0.328 0.246-0.656 0.41h-0.246c-0.82 0-1.641-0.082-2.38-0.164-0.082 0-0.164 0-0.246-0.082s-0.164-0.082-0.164-0.164c0-0.082-0.082-0.082-0.082-0.164s0-0.082-0.082-0.164c-0.082-0.164-0.246-0.246-0.328-0.41-0.082-0.082-0.164-0.082-0.246-0.164 0-0.082 0-0.246 0-0.328s0-0.164 0-0.164c0 0 0 0 0.082-0.082 0.082 0 0.082-0.082 0.164-0.082l0.082-0.082v-0.082c0-0.164 0-0.246 0.082-0.41l0.082-0.082-0.082-0.082c-0.164-0.164-0.328-0.41-0.492-0.574-0.246-0.328-0.492-0.656-0.82-0.903 0-0.164 0.082-0.41 0.246-0.574l0.082-0.082-0.082-0.082c-0.082-0.164-0.164-0.246-0.328-0.328h-0.246c-0.41 0-0.574-0.082-0.738-0.246v-0.082h-0.082c-0.082 0-0.082 0-0.164-0.082s-0.164-0.082-0.246-0.082-0.328 0-0.41 0.082c-0.082 0-0.164 0-0.246 0h-0.082c-0.164 0-0.328-0.082-0.41-0.082s-0.164-0.082-0.246-0.082c-0.164 0-0.328-0.082-0.41-0.082-0.246 0-0.492-0.082-0.738-0.164-0.082-0.082-0.164-0.164-0.246-0.246 0-0.082-0.082-0.082-0.164-0.164h-0.082c-0.082-0.082-0.246-0.246-0.328-0.328 0-0.082 0-0.164-0.082-0.246 0-0.082 0-0.164-0.082-0.328s-0.164-0.246-0.328-0.328c0 0-0.082-0.082-0.082-0.082h12.226v-0.082c0.082 0.082 0.164 0.164 0.328 0.164 0.082 0.082 0.082 0.164 0.164 0.164l0.082 0.082h0.082c0.082 0 0.164 0 0.246 0l0.246 0.082c0 0 0 0 0 0h-0.082v0.328l0.082 0.082c0.41 0.41 0.492 0.41 0.574 0.41zM29.703 16.82c0 0 0 0.082 0 0v0.164c0 0.082 0 0.082-0.082 0.164 0 0.082-0.082 0.082-0.082 0.164s0 0.164 0 0.246c0 0.082 0 0.164 0 0.164-0.082 0.164-0.082 0.246-0.164 0.328-0.082 0.246-0.164 0.41-0.164 0.656 0 0.082 0 0.246 0 0.328s0 0.164 0 0.246c0 0.41-0.082 0.738-0.246 1.067 0 0-0.082 0-0.082 0-0.082-0.164-0.164-0.246-0.246-0.328v0c0-0.082 0-0.082 0-0.164 0 0 0-0.082 0-0.082v-0.082c0-0.082-0.082-0.082-0.164-0.164 0 0-0.082 0-0.082-0.082v-0.164c-0.082-0.328-0.082-0.738-0.41-0.903h-0.164c-0.082 0-0.082 0.082-0.164 0.082s-0.082-0.082-0.164-0.082c-0.164-0.082-0.328-0.246-0.574-0.328v-0.164l-0.164 0.082c-0.328 0.082-0.574 0.328-0.82 0.492-0.328-0.082-0.574-0.082-0.82 0.082h-0.246c-0.164 0-0.328 0.082-0.492 0.082-0.164-0.082-0.328-0.246-0.492-0.41-0.082-0.082-0.082-0.082-0.164-0.164l-0.164-0.164v0.246c0 0 0 0 0 0s-0.082 0-0.082 0l-0.082 0.082v0.082c0 0-0.082 0.082 0 0.164v0.082h0.082c0.164 0.082 0.246 0.164 0.328 0.328 0.164 0.164 0.328 0.328 0.574 0.41v0 0c0.082 0 0.164 0 0.246-0.082 0.082 0 0.164 0 0.164-0.082h0.082v-0.082c0.082-0.164 0.082-0.246 0.082-0.492v0c0 0.246 0.164 0.328 0.328 0.328 0.082 0 0.082 0 0.082 0.082 0.082 0 0.082 0.082 0.082 0.164s0.082 0.082 0.082 0.164v0.082c-0.082 0.328-0.246 0.574-0.246 0.985-0.082 0.164-0.246 0.246-0.41 0.246-0.082 0-0.164 0.082-0.246 0.082-0.164 0.082-0.246 0.164-0.246 0.328-0.082 0.082-0.082 0.164-0.164 0.164-0.082 0.082-0.246 0.164-0.41 0.246-0.082 0.082-0.246 0.164-0.328 0.246l-0.082 0.082c-0.246 0.164-0.492 0.328-0.738 0.41l-0.082-0.246c0-0.082-0.082-0.246-0.082-0.328s-0.082-0.246-0.082-0.41v-0.082c-0.164-0.164-0.246-0.246-0.41-0.41s-0.328-0.246-0.41-0.41v-10.421h0.082v-0.082c0-0.082 0.082-0.164 0.164-0.164 0.164 0.082 0.41 0 0.574-0.082l0.082-0.082-0.082-0.082c-0.082-0.082-0.082-0.164-0.164-0.246s-0.082-0.164-0.164-0.164c0.082 0.082 0.246 0.164 0.328 0.164l0.246 0.082v-0.246c0-0.082-0.082-0.164-0.082-0.246 0.082-0.082 0.164-0.082 0.164-0.164s0.082-0.082 0.082-0.082l0.164-0.082-0.164-0.164c-0.082-0.082-0.082-0.082-0.164-0.082v0c-0.082-0.082-0.082-0.246-0.082-0.41 0 0 0-0.082 0-0.082 0.574 0.164 1.149 0.492 1.805 0.821 1.887 1.231 4.020 3.446 4.923 7.467 0.328 0.328 0.328 0.574 0.41 0.903zM24.862 18.872c0 0 0 0.082 0 0.082-0.082 0-0.082 0-0.164 0s-0.082 0-0.164 0c-0.164-0.082-0.328-0.164-0.41-0.328 0.082 0.082 0.246 0.164 0.328 0.246h0.164c0 0 0.164 0 0.246 0z"></path>
<path d="M26.913 4.267c-3.856-3.282-9.026-4.923-12.308-3.938v0.574c0 0-0.082 0.082-0.328 0.082v0 0c-3.364 0.492-6.4 2.051-8.862 4.431-2.38 2.38-3.938 5.415-4.431 8.697v0 0c0 0.082-0.082 0.328-0.082 0.328l-0.574-0.082c-1.067 3.282 0.656 8.369 3.938 12.062 2.215 2.462 6.974 6.482 14.441 5.251 3.446-0.492 6.646-1.969 9.108-4.431s4.020-5.497 4.513-8.862c0.164-0.903 0.246-1.805 0.246-2.708-0.082-5.744-3.446-9.518-5.662-11.405zM14.277 17.149c0 0 0 0 0 0-0.082-0.082-0.082-0.164-0.082-0.246s0-0.164 0-0.246c0-0.082-0.082-0.164-0.082-0.246-0.082-0.082-0.082-0.164-0.082-0.246v-0.41c0-0.082 0-0.082 0.082-0.164s0.164-0.246 0-0.41v-0.082c0 0-0.082 0-0.082-0.082v0c0.082 0 0.082-0.082 0.082-0.164 0 0 0 0 0 0s0.082 0.082 0.082 0.082 0.082 0.082 0.164 0.164 0.164 0.164 0.246 0.164c0.082 0 0.164 0.082 0.246 0.082s0.246 0.082 0.246 0.164c0 0.082 0 0.164 0 0.246-0.164-0.082-0.246-0.082-0.41 0 0 0-0.082-0.082-0.164-0.082h-0.082v0.082c0 0 0 0.082 0 0.082s0 0.082 0 0.082l-0.082 0.164 0.164 0.082c0.164 0.082 0.246 0.164 0.41 0.246l0.246 0.164 0.082-0.164c0-0.082 0.082-0.164 0.082-0.164h0.082c0.082 0 0.164 0 0.164-0.082h0.082v-0.082c0-0.082 0-0.164 0-0.246 0 0 0-0.082 0-0.082s0.082 0 0.082 0h0.164v-0.082c0 0 0 0 0 0 0.082 0.082 0.164 0.082 0.164 0.164 0.082 0 0.082 0.082 0.164 0.082 0 0.082 0.082 0.164 0.082 0.246 0 0.164 0.082 0.246 0.164 0.41l0.082 0.082h0.082c0 0 0 0 0.082 0 0 0 0.082 0 0.164 0.082h0.082l0.082-0.082c0 0 0.082 0 0.164 0 0 0.082 0 0.082 0 0.164 0 0 0 0 0 0.082v0.164h0.164c0.082 0 0.082 0 0.164 0l0.082 0.082c0 0 0 0.082 0 0.082-1.231-0.082-2.297-0.082-3.364-0.082zM12.308 11.241c-0.082-0.082-0.082-0.082-0.164-0.164 0.082-0.082 0.164-0.246 0.246-0.164 0 0.164 0 0.246 0 0.41s-0.082 0.328 0 0.574c0 0.082 0.082 0.164 0.164 0.246s0.082 0.164 0.082 0.246c-0.082 0.082-0.246 0.082-0.41 0.164-0.164 0-0.328 0.082-0.41 0.164 0 0 0 0-0.082 0 0 0 0 0-0.082 0 0.082-0.082 0.082-0.164 0.164-0.246 0.164-0.328 0.41-0.574 0.492-1.067v-0.164zM12.636 12.8c-0.082 0.082-0.164 0.082-0.246 0.082s-0.082 0-0.164 0h-0.082c0.082 0 0.082 0 0.164 0 0.082-0.082 0.164-0.082 0.328-0.082zM11.979 14.031v0 0c0-0.328-0.082-0.492-0.164-0.656 0-0.082 0-0.082-0.082-0.164 0.082 0 0.164 0 0.246 0h0.164c0.082 0 0.164 0 0.164 0 0.246-0.082 0.41-0.246 0.574-0.41 0.082-0.082 0.164-0.164 0.246-0.246 0.082 0 0.164-0.082 0.246-0.082s0.246-0.082 0.41-0.164c0 0 0 0 0.082 0 0 0 0.082 0 0.082 0h0.082l0.082-0.082c0.082-0.082 0.082-0.246 0.164-0.41 0-0.082 0-0.082 0-0.164 0 0 0 0.082 0.082 0.082 0 0 0 0 0 0.082-0.082 0-0.164 0.082-0.164 0.164v0.164c0.082 0.164 0.328 0.164 0.574 0.164 0.082 0 0.164 0 0.164 0s0.082 0 0.082 0 0.082 0 0.246 0 0.328-0.082 0.41-0.164c0.164-0.082 0.246-0.082 0.41-0.082h0.164v-0.164c0 0 0-0.082 0-0.082 0-0.246 0.082-0.328 0.164-0.328 0 0 0 0 0 0h0.082l0.082-0.082c0.082-0.164 0.082-0.41 0.082-0.574v-0.082h-0.082c-0.164-0.082-0.328-0.164-0.328-0.328 0 0 0 0 0.082-0.082 0.164-0.164 0.328-0.328 0.41-0.656v-0.164h-0.164c-0.246 0-0.328 0.164-0.492 0.246l-0.082 0.082c0 0-0.082 0.082-0.082 0.082-0.164 0.082-0.246 0.246-0.328 0.492 0 0.164 0 0.328 0.082 0.41v0 0.164c0.082 0.246-0.082 0.41-0.41 0.574 0 0-0.082 0.082-0.082 0.082-0.082 0-0.164 0-0.246 0v0c-0.082-0.164-0.164-0.246-0.246-0.41-0.082-0.082-0.082-0.164-0.164-0.246v-0.082h-0.082c-0.164 0-0.328-0.082-0.492-0.082 0-0.246 0-0.41 0.164-0.656 0.41-0.164 0.82-0.328 0.985-0.738 0.164-0.082 0.328-0.164 0.41-0.246s0.164-0.164 0.328-0.164h0.082v-0.082c0.082-0.164 0.246-0.328 0.574-0.328h0.082c0.164 0 0.328-0.082 0.492 0 0.164 1.887 0.164 4.103 0.246 6.728h-0.164c-0.082 0-0.41 0-0.492 0.246v0.164c0 0.164 0.082 0.246 0.164 0.41 0 0 0 0 0 0v0 0.082c0 0.082 0 0.082 0 0.082s0 0 0 0-0.082-0.082-0.164-0.082c0 0 0 0 0 0 0-0.082-0.082-0.164-0.082-0.246s-0.082-0.246-0.082-0.328c-0.082-0.082-0.164-0.164-0.246-0.164-0.082-0.082-0.164-0.082-0.164-0.164 0 0 0 0 0-0.082 0 0 0.082-0.082 0.082-0.082v-0.164c-0.082-0.246-0.328-0.328-0.492-0.41-0.082 0-0.164-0.082-0.246-0.082 0 0-0.082-0.082-0.082-0.082-0.082-0.082-0.082-0.164-0.246-0.164-0.082 0-0.164 0-0.246-0.082-0.082 0-0.082 0-0.164 0l-0.164-0.082v0.246c0 0.082 0.082 0.246 0.082 0.328 0 0 0 0.082 0.082 0.164v0.082h0.082c0.082 0 0.082 0.082 0.164 0.082 0.164 0.082 0.328 0.164 0.41 0.328v0.082h0.082c0 0 0.082 0 0.082 0-0.082 0.082-0.082 0.082-0.082 0.164 0 0 0-0.082 0-0.082v-0.082c-0.082-0.164-0.246-0.246-0.41-0.246-0.082 0-0.164-0.082-0.164-0.082-0.082 0-0.082-0.082-0.164-0.164s-0.082-0.082-0.164-0.164c-0.082 0-0.082-0.082-0.164-0.082-0.164-0.082-0.164-0.164-0.246-0.246v-0.164h-0.164c-0.082 0-0.164 0-0.246 0.082-0.164 0.082-0.328 0.082-0.574 0.082-0.082 0-0.246 0-0.328 0-0.164 0-0.246 0.164-0.246 0.246s-0.082 0.082-0.082 0.164c-0.082 0-0.082 0.082-0.164 0.082s-0.164 0-0.246 0.082v0l-0.082 0.082c-0.082 0.164-0.164 0.328-0.328 0.41 0 0-0.082 0-0.164 0s-0.164 0-0.164 0v0c-0.082 0-0.246 0.082-0.41 0.082-0.082 0-0.246-0.082-0.328-0.164s-0.164-0.164-0.328-0.246c0-0.246 0-0.41 0.082-0.574s0.246-0.328 0.328-0.492v-0.082c0.082 0 0.164 0 0.328 0.082 0.164 0 0.41 0.082 0.574 0.082 0.082 0.164 0.328 0.082 0.41-0.164zM16.164 11.077c0-0.082-0.082-0.082-0.082-0.164-0.082-0.164-0.164-0.246-0.082-0.328 0-0.082 0.082-0.164 0.082-0.164v0.082c0.082 0.246 0.246 0.492 0.492 0.574 0 0.082 0 0.164 0 0.246-0.328 0-0.41 0.328-0.41 0.574-0.164 0-0.246 0.082-0.41 0.164-0.082 0.082-0.246 0.082-0.328 0.082 0 0-0.082 0-0.164 0 0 0-0.082 0-0.082 0 0.082 0 0.082 0 0.164 0h0.082l0.082-0.082c0.082 0 0.082-0.082 0.164-0.082 0.164-0.164 0.492-0.328 0.492-0.656h0.164l-0.164-0.246zM17.149 16.164c-0.082-0.082-0.164-0.246-0.164-0.41 0 0 0.082-0.082 0.246-0.082h0.164c0 0.328 0 0.656 0 0.985 0 0-0.082 0-0.082-0.082 0 0 0 0-0.082 0v0c0-0.082 0-0.164-0.082-0.164 0 0 0-0.082 0-0.082v-0.164zM15.836 15.344c0 0 0 0 0 0s-0.082 0.082-0.082 0.082c-0.082-0.082-0.164-0.164-0.246-0.164-0.164-0.164-0.328-0.328-0.492-0.41 0 0-0.082 0-0.082-0.082 0 0 0-0.082 0-0.082s0 0 0 0c0.082 0 0.082 0 0.164 0 0 0 0.082 0.082 0.082 0.082 0.082 0.082 0.082 0.082 0.164 0.164s0.164 0.082 0.246 0.164c0 0.082 0.164 0.082 0.246 0.246zM13.703 15.18c-0.082 0-0.164 0.164-0.246 0.164v0.164c0.082 0.246 0.164 0.41 0.328 0.492l0.164 0.164h-0.082c-0.082 0-0.164 0-0.246 0s-0.082 0-0.164 0c-0.164 0-0.328 0-0.492-0.082-0.164 0-0.246-0.082-0.41-0.082-0.328 0-0.738 0-1.067 0-0.082 0-0.164 0.082-0.246 0.082s-0.082 0.082-0.164 0.082c0 0-0.082-0.082-0.082-0.082 0.082 0 0.164-0.082 0.246-0.082s0.082 0 0.164 0 0.164 0 0.246-0.082c0.246-0.082 0.41-0.41 0.492-0.574v0c0 0 0.082 0 0.082 0 0.082 0 0.164-0.082 0.246-0.082 0.082-0.082 0.164-0.164 0.164-0.246s0.082-0.164 0.082-0.164c0.082 0 0.164 0 0.164 0 0.082 0 0.082 0 0.164 0 0 0 0 0 0 0 0.164 0 0.328 0 0.41-0.082v0.082c0 0 0 0 0 0.082 0.164 0.082 0.164 0.164 0.246 0.246zM10.667 16.164c0 0 0.082 0.082 0.164 0.082 0.082 0.082 0.164 0.164 0.246 0.164h0.082c0.082 0 0.164 0 0.246-0.082 0.082 0 0.082-0.082 0.164-0.082 0.164 0 0.656-0.082 0.985 0 0.164 0 0.246 0.082 0.328 0.082 0.164 0 0.328 0.082 0.492 0.082 0.082 0 0.164 0 0.246 0 0 0 0.082 0 0.082 0 0 0.082 0.082 0.164 0.082 0.164 0 0.082 0.082 0.164 0.082 0.164 0 0.082 0 0.082 0 0.164s0 0.164 0 0.246c-1.559 0-3.118 0-4.513-0.082 0.082-0.082 0.082-0.164 0.164-0.246l0.082-0.082c0 0 0-0.082 0-0.082s0.082 0 0.082 0c0 0 0.082 0 0.082-0.082 0 0 0.082 0 0.082 0 0.082 0 0.164 0 0.246-0.082s0.164-0.164 0.246-0.164c0.246-0.082 0.328-0.164 0.328-0.164zM16.656 8.451h-0.082c-0.41 0.082-0.574 0.246-0.656 0.41-0.246 0-0.328 0.164-0.41 0.246s-0.164 0.164-0.328 0.164h-0.082v0.082c-0.164 0.328-0.41 0.492-0.903 0.656h-0.082v0.082c-0.164 0.246-0.328 0.492-0.246 0.985v0.082h0.082c0.164 0.082 0.328 0.082 0.41 0.082-0.164 0.082-0.246 0.328-0.246 0.492 0 0.082 0 0.164-0.082 0.164 0 0-0.082 0-0.164 0h-0.082c-0.082 0.082-0.164 0.082-0.328 0.082-0.082 0-0.164 0-0.328 0.082-0.082 0-0.164 0.082-0.246 0.164 0-0.164-0.082-0.246-0.164-0.41-0.082-0.082-0.082-0.082-0.082-0.164 0-0.164 0-0.246 0-0.41s0.082-0.328 0-0.574v-0.082c-0.082-0.082-0.246-0.164-0.246-0.164-0.164 0-0.328 0.164-0.492 0.328 0 0-0.082 0.082-0.082 0.082l-0.082 0.082 0.082 0.082c0 0 0.082 0.082 0.164 0.082 0 0 0.082 0.082 0.082 0.082-0.082 0.328-0.246 0.574-0.41 0.903-0.082 0.082-0.164 0.246-0.246 0.328v0.164c0.082 0.082 0.164 0.164 0.164 0.246 0 0 0 0 0.082 0-0.082 0-0.082 0.082-0.164 0.082l-0.082 0.082v0.082c0 0.082 0.082 0.164 0.082 0.246 0.082 0.164 0.082 0.328 0.164 0.492-0.082 0.082-0.164 0.164-0.328 0.164s-0.328 0-0.492-0.082c-0.164 0-0.328-0.082-0.41-0.082h-0.082l-0.164 0.164c-0.082 0.164-0.246 0.328-0.328 0.492v0 0.082c0 0.328 0 0.492-0.082 0.738v0.164h0.164c0.082 0 0.164 0.082 0.328 0.164 0.082 0.082 0.164 0.082 0.164 0.164-0.082 0-0.082 0.082-0.082 0.164-0.082 0.082-0.082 0.082-0.164 0.164 0 0-0.082 0-0.164 0s-0.082 0-0.164 0-0.082 0-0.164 0.082c-0.082 0-0.082 0.082-0.164 0.082h-0.082c-0.082 0.082-0.082 0.082 0 0.246v0.082c-0.082 0.164-0.164 0.246-0.328 0.41-4.103-0.246-7.303-0.82-7.138-2.872 0.246-1.723 0.821-3.446 1.723-5.005 0-0.082 0.082-0.082 0.082-0.164 0 0 0-0.082 0.082-0.082 0 0 0 0 0 0.082l0.164 0.328 0.082-0.41c0-0.082 0.082-0.082 0.164-0.082 0 0 0 0 0.082 0 0 0.082-0.082 0.082-0.082 0.164v0.164h0.164c0 0 0.082 0 0.082 0.082 0 0 0.082 0.082 0.082 0.082l0.164 0.082 0.082-0.164c0.164-0.328 0.328-0.656 0.492-0.821v0c0 0.082 0 0.082 0.082 0.164 0 0 0 0 0 0s0 0 0 0c-0.082 0.082-0.246 0.164-0.328 0.246v0 0.082c0 0.082 0 0.082 0 0.164-0.082 0.328-0.082 0.656 0.164 0.903l0.164 0.082 0.082-0.164c0-0.082 0.082-0.082 0.082-0.164 0.164-0.164 0.246-0.41 0.246-0.738 0.164-0.328 0.328-0.492 0.492-0.574h0.082v-0.082c0-0.164 0.082-0.246 0.164-0.328 0-0.082 0.082-0.082 0.082-0.164l0.082-0.164c0-0.082 0.082-0.164 0.164-0.246s0.164-0.246 0.246-0.328c0.082-0.082 0.164-0.246 0.246-0.41v-0.082l-0.082-0.082c-0.082-0.082-0.164-0.082-0.164-0.082s0 0-0.082 0c0.082-0.082 0.164-0.164 0.328-0.328 0 0 0 0 0.082 0v0.082h0.082c0.328 0.082 0.492-0.082 0.656-0.164 0 0 0 0.082 0.082 0.082l0.082 0.082 0.082-0.082c0.082-0.082 0.164-0.082 0.246-0.082h0.082c0.164-0.082 0.164-0.246 0.246-0.328 0-0.082 0.082-0.082 0.082-0.164 0.082-0.082 0.164-0.164 0.246-0.246s0.246-0.164 0.328-0.328v-0.082c0.164-0.082 0.246-0.246 0.41-0.328h0.082v-0.082c0-0.082 0.082-0.164 0.164-0.246 0.164 0 0.246-0.082 0.246-0.164 0.082 0.082 0.246 0.082 0.328 0.082-0.328 0.082-0.492 0.328-0.574 0.656v0 0c0 0 0 0.082 0.082 0.082-0.082 0.164-0.246 0.328-0.41 0.492-0.082 0.082-0.164 0.164-0.246 0.246v0 0.082c0 0 0 0 0 0s0 0-0.082 0h-0.082c-0.164 0.082-0.246 0.246-0.246 0.328 0 0 0 0.082 0 0.082s-0.082 0-0.082 0c0 0 0 0-0.082 0-0.41 0.164-0.656 0.41-0.903 0.656v0 0.082c0 0.164-0.082 0.246-0.164 0.41s-0.246 0.41-0.246 0.656v0.082c0.164 0.164 0.246 0.246 0.41 0.246 0.246 0 0.41-0.164 0.574-0.328 0.082-0.082 0.246-0.246 0.328-0.246 0 0 0 0 0 0s0.082 0.082 0.082 0.082v0 0c0.164 0 0.328 0 0.492 0 0.082 0 0.082 0 0.164 0 0.246 0 0.328 0 0.574 0.082 0.164 0.082 0.246 0.082 0.41 0.164v0 0c0.164 0 0.246-0.082 0.41-0.164 0 0 0.082-0.082 0.082-0.082s0 0 0 0 0.082 0 0.164-0.082c0.082-0.082 0.082-0.082 0.082-0.164 0 0 0-0.082 0-0.082 0.082-0.082 0.164-0.082 0.246-0.164s0.164-0.082 0.328-0.164c0.082-0.082 0.082-0.164 0.164-0.164 0.082-0.164 0.164-0.164 0.246-0.164h0.164v-0.246c0.164-0.082 0.41-0.082 0.574-0.164l0.246-0.082v-0.082c0 0 0.082-0.082 0.082-0.164s0-0.082-0.082-0.164h-0.164c0 0-0.082-0.082-0.082-0.082-0.082-0.082-0.082-0.164-0.246-0.164 0-0.082 0.082-0.164 0-0.246v-0.082h-0.082c-0.246-0.082-0.41-0.164-0.574-0.41v-0.082h-0.082c-0.082 0-0.082 0-0.164 0v0c0 0-0.082-0.082-0.164-0.082 0 0 0 0 0 0-0.082 0-0.082 0-0.082-0.082s-0.082-0.082-0.164-0.164h-0.246c-0.082 0-0.082 0-0.164 0v-0.082h0.082c0.082 0 0.164 0 0.246 0h0.246l-0.082-0.246c0 0 0.082-0.082 0.082-0.164v0 0c0 0 0 0 0-0.082s0.082-0.164 0.082-0.246v-0.082h-0.082c0 0 0-0.082 0-0.082v0 0c-0.082-0.082-0.164-0.164-0.246-0.246 0 0-0.082 0-0.082-0.082 0.082 0 0.164-0.082 0.164-0.164v-0.164c0-0.082-0.082-0.082-0.246-0.082 0 0 0 0 0 0v0 0c0 0 0.082 0 0.164-0.082l0.328-0.082c0.082 0 0.246 0 0.328-0.082l0.082-0.082v-0.082c0 0 0-0.082 0-0.082l0.082-0.164c0.492-0.082 0.903-0.246 1.395-0.246 1.969-0.164 2.626 2.708 2.872 6.482 0.246 0.082 0.082 0.082-0.164 0.164zM11.979 3.774c0.082 0 0.082 0.082 0 0 0 0.082 0 0.082 0 0.164l-0.082 0.082v0.164c0 0 0 0 0 0s-0.082 0-0.082 0h-0.246c-0.082 0-0.164 0-0.246 0 0-0.082 0-0.082-0.082-0.082-0.082-0.082-0.246-0.082-0.41-0.082 0 0 0 0 0 0s0 0 0 0v-0.082c0.082-0.082 0.164-0.082 0.164-0.082l0.082 0.082h0.164c0.082 0 0.164 0 0.164 0 0.082 0 0.246 0 0.328 0v-0.082c0 0 0 0 0 0v-0.164c0 0 0 0 0 0v-0.082c0 0 0 0 0 0s0.082 0 0.082 0c0 0 0.082 0 0.082 0.082 0 0 0.082 0 0.082 0.082 0 0-0.082 0.082-0.082 0.082l0.082-0.082zM13.128 5.99h0.164c0.082 0 0.082 0 0.164 0.082 0 0 0 0.082 0.082 0.082-0.246 0.082-0.574 0.082-0.738 0.164h-0.082v0.082c0 0 0 0.082 0 0.082-0.164 0.082-0.246 0.164-0.41 0.328-0.082 0.082-0.082 0.082-0.082 0.164-0.082 0.082-0.164 0.082-0.246 0.164s-0.246 0.082-0.328 0.246c0 0.082-0.082 0.082-0.082 0.164 0 0 0 0.082 0 0.082s0 0 0 0-0.082 0-0.082 0.082c-0.082 0-0.082 0.082-0.164 0.082-0.082 0.082-0.164 0.082-0.246 0.164-0.082 0-0.246-0.082-0.328-0.082-0.164-0.082-0.41-0.164-0.656-0.164-0.082 0-0.082 0-0.164 0.082-0.082 0-0.164 0.082-0.328 0.082 0 0-0.082-0.082-0.082-0.082s-0.082 0-0.082-0.082v0h-0.082c-0.246 0-0.41 0.164-0.574 0.328-0.082 0.082-0.246 0.246-0.328 0.246s-0.082 0-0.164-0.082c0-0.164 0.082-0.328 0.164-0.492s0.164-0.246 0.246-0.492c0.164-0.246 0.41-0.41 0.738-0.492 0 0 0 0 0.082 0v0 0c0.246 0 0.246-0.246 0.246-0.328 0 0 0 0 0-0.082 0 0 0.082 0 0.082 0h0.082c0 0 0.082 0 0.082 0h0.082v-0.082c0-0.082 0-0.082 0-0.164 0.082-0.082 0.164-0.164 0.164-0.164 0.246-0.164 0.41-0.41 0.574-0.656v-0.082c0 0 0-0.082-0.082-0.164 0.082-0.164 0.164-0.328 0.328-0.328l-0.082 0.082h0.246c0 0 0.082 0 0.082 0 0.082 0 0.082 0.082 0.164 0.082 0 0 0 0.082 0.082 0.082v0.164l0.164-0.082c0.082 0 0.164 0 0.246-0.082v0c0 0 0 0 0.082 0.082s0.082 0.164 0.246 0.164c0 0 0 0.082 0.082 0.082v0h0.082c0.082 0 0.082 0 0.082 0s0 0 0 0c0.164 0.246 0.328 0.328 0.574 0.41 0 0 0 0 0 0.082s0 0.082 0 0.164v0.082zM9.272 5.005c-0.082 0.082-0.082 0.082-0.164 0.164s-0.246 0.164-0.328 0.328c0 0.082-0.082 0.164-0.082 0.164 0 0.082-0.082 0.164-0.164 0.246 0 0-0.082 0-0.082 0 0-0.082 0-0.082 0.082-0.164l0.082-0.246-0.246 0.082c-0.164 0.082-0.246 0.164-0.328 0.246-0.082 0.164-0.164 0.164-0.246 0.164 0 0 0 0 0 0s0-0.082 0.082-0.082c0 0 0-0.082 0-0.082 0-0.082 0.082-0.082 0.082-0.164 0.082-0.164 0.246-0.246 0.328-0.492 0 0.082 0.082 0.082 0.164 0.164v0c0.492 0 0.656-0.246 0.82-0.492 0.082-0.082 0.164-0.246 0.246-0.246l0.246-0.164-0.164-0.082c0.082-0.164 0.164-0.246 0.328-0.328l0.246 0.082c-0.082 0.082-0.082 0.164-0.164 0.246-0.164 0.164-0.41 0.246-0.574 0.41v0l-0.164 0.246zM6.81 6.81c0 0 0.082 0.082 0.082 0.082s-0.082 0.082-0.082 0.082-0.164 0.246-0.246 0.328c-0.082 0.082-0.082 0.164-0.164 0.328l-0.082 0.164c0 0.082-0.082 0.082-0.082 0.164-0.082 0.082-0.082 0.164-0.164 0.328-0.082 0.082-0.164 0.164-0.246 0.246v0c-0.082-0.082-0.164-0.082-0.246-0.082 0-0.082 0-0.082 0-0.164 0-0.164-0.082-0.246-0.164-0.41l-0.082-0.082-0.082 0.082c-0.164 0.082-0.164 0.246-0.246 0.41 0 0 0 0 0 0.082-0.164 0.164-0.246 0.328-0.328 0.492l-0.082-0.082c-0.164-0.164-0.41-0.164-0.574-0.082v-0.082c0.082-0.164 0.246-0.328 0.328-0.492 0.082 0 0.164-0.082 0.164-0.164l0.164-0.246h-0.082c0.246-0.41 0.574-0.738 0.903-1.067l0.246-0.082c0.164-0.082 0.246-0.082 0.328-0.164s0.164-0.082 0.246-0.164c0 0 0 0 0.082 0s0.164 0 0.246 0c0.082 0 0.164-0.082 0.328-0.246 0.082-0.082 0.164-0.164 0.246-0.164 0.082-0.082 0.164-0.082 0.246-0.164 0.082 0 0.164-0.082 0.164-0.082 0 0.082 0 0.164-0.082 0.164v0.082c-0.082 0.082-0.164 0.164-0.328 0.246-0.246 0.164-0.41 0.328-0.492 0.656l0.082 0.082zM5.497 9.108c0 0.246-0.082 0.41-0.246 0.574 0-0.082 0-0.246 0-0.492 0 0 0-0.082 0-0.082 0.082-0.082 0.082-0.082 0.164-0.164 0 0 0 0 0.082 0s0.082 0 0 0.164v0 0zM7.303 5.415c-0.082 0.082-0.164 0.082-0.246 0.164s-0.164 0.164-0.246 0.246c0 0-0.082 0.082-0.082 0.082 0-0.082 0.082-0.082 0.082-0.164 0.082-0.082 0.082-0.164 0.164-0.164 0.082-0.082 0.082-0.082 0.164-0.164s0.246-0.246 0.246-0.41c0.164-0.164 0.41-0.328 0.574-0.492 0.082-0.082 0.164-0.082 0.246-0.082-0.082 0.082-0.164 0.164-0.164 0.246l-0.082 0.164h0.082c0 0 0 0 0 0l-0.164 0.246-0.082 0.082c-0.246 0.082-0.41 0.164-0.492 0.246zM9.354 3.856c-0.082 0.082-0.164 0.164-0.246 0.246l-0.082 0.082 0.082 0.082c0 0 0 0.082 0.082 0.082-0.082 0-0.082 0-0.082 0.082 0 0-0.082 0-0.082 0s0 0 0 0v-0.164l-0.164 0.082c-0.082 0-0.082 0-0.164 0.082v0c0 0 0 0-0.082 0l0.164-0.164h-0.082c0.164-0.082 0.41-0.246 0.574-0.328h-0.082l0.164-0.082zM8.944 4.759c0 0 0 0 0 0-0.164 0.246-0.246 0.41-0.492 0.41 0 0 0 0 0 0 0-0.082-0.082-0.082-0.082-0.164 0.082 0 0.082-0.082 0.164-0.082 0.082-0.082 0.164-0.164 0.246-0.164 0 0 0 0 0 0.082v0h0.082c-0.082-0.082 0-0.082 0.082-0.082zM9.682 3.528c0 0 0 0 0 0s-0.082 0 0 0c-0.164 0.082-0.164 0.082-0.246 0.082 0.082-0.082 0.164-0.082 0.246-0.082v0zM31.262 18.38c-0.41 3.036-1.805 5.99-4.185 8.369s-5.415 3.774-8.533 4.185c-12.144 1.969-18.954-10.749-17.313-16.082-0.492 1.887 0.903 3.446 17.149 3.446 0-16-1.641-17.395-3.528-16.903 5.497-1.805 18.462 4.923 16.41 16.985z"></path>
<path d="M39.549 20.020h-1.231v3.2h0.574v-1.313h0.41c0.246 0 0.492-0.082 0.656-0.164 0.246-0.164 0.328-0.492 0.328-0.738 0.082-0.574-0.164-0.985-0.738-0.985zM39.303 21.415h-0.328v-0.903h0.246c0.328 0 0.492 0.082 0.492 0.41s-0.164 0.492-0.41 0.492z"></path>
<path d="M43.323 23.221h1.723v-0.492h-1.067v-0.985h0.985v-0.492h-0.985v-0.82h1.067v-0.41h-1.723z"></path>
<path d="M50.215 20.020h-0.656l-0.328 0.656c-0.164 0.246-0.328 0.492-0.41 0.738v0-1.395h-0.574v3.2h0.574v-0.903l0.246-0.328 0.574 1.313h0.656l-0.821-1.805 0.738-1.477z"></path>
<path d="M53.333 21.826c0 0.656 0 0.903-0.328 0.903v0.492c0.903 0 0.903-0.656 0.903-1.395v-1.395h0.738v2.79h0.574v-3.2h-1.887v1.805z"></path>
<path d="M58.913 20.020l-0.821 3.2h0.656l0.164-0.82h0.738l0.164 0.82h0.656l-0.738-3.2h-0.821zM59.077 21.908l0.164-0.903c0-0.164 0.082-0.328 0.082-0.41s0-0.164 0-0.246v0c0 0.082 0 0.164 0 0.246 0 0.164 0 0.328 0.082 0.41l0.164 0.903h-0.492z"></path>
<path d="M64.985 21.497c-0.082 0.246-0.082 0.41-0.082 0.738v0c0-0.246-0.082-0.492-0.082-0.738l-0.328-1.477h-0.985v3.2h0.574v-0.985c0-0.656 0-1.313-0.082-1.887v0l0.656 2.954h0.328l0.656-2.954c0 0.656-0.082 1.313-0.082 1.887v0.985h0.574v-3.2h-0.985l-0.164 1.477z"></path>
<path d="M70.892 21.251h-0.82v-1.231h-0.656v3.2h0.656v-1.477h0.82v1.477h0.656v-3.2h-0.656z"></path>
<path d="M81.969 19.692c0.41 0 0.656-0.246 0.738-0.656h-0.246c0 0.246-0.164 0.328-0.492 0.328-0.246 0-0.41-0.082-0.41-0.328h-0.246c-0.082 0.41 0.164 0.656 0.656 0.656z"></path>
<path d="M81.887 21.169c-0.164 0.41-0.328 0.738-0.41 1.313v0c0-0.328 0.082-0.574 0.082-0.903s0-0.656 0-0.903v-0.656h-0.574v3.2h0.656l0.492-1.149c0.164-0.41 0.328-0.738 0.41-1.313v0c0 0.246-0.082 0.574-0.082 0.903s0 0.656 0 0.903v0.574h0.574v-3.2h-0.656l-0.492 1.231z"></path>
<path d="M91.897 20.020h-0.656l-0.246 0.574c-0.082 0.164-0.164 0.41-0.164 0.574v0c0-0.164-0.082-0.246-0.082-0.41l-0.328-0.738h-0.656l0.738 1.559-0.82 1.641h0.656l0.246-0.574c0.082-0.164 0.164-0.41 0.246-0.574v0c0 0.164 0.082 0.246 0.164 0.41l0.328 0.82h0.656l-0.82-1.641 0.738-1.641z"></path>
<path d="M95.836 19.938c-0.985 0-1.067 0.574-1.067 1.395v0.492c0 0.82 0.082 1.477 1.067 1.477s1.067-0.656 1.067-1.477v-0.492c0-0.82-0.082-1.395-1.067-1.395zM96.328 22.072c0 0.328 0 0.738-0.41 0.738s-0.41-0.41-0.41-0.738v-0.903c0-0.246 0-0.82 0.41-0.82 0.492 0 0.41 0.574 0.41 0.82v0.903z"></path>
<path d="M100.103 21.826c0 0.656 0 0.903-0.328 0.903v0.492c0.903 0 0.903-0.656 0.903-1.395v-1.395h0.738v2.79h0.574v-3.2h-1.887v1.805z"></path>
<path d="M107.241 20.020h-1.887v1.805c0 0.492 0 0.82-0.164 0.903 0 0-0.164 0-0.164 0v0.903h0.574v-0.492h1.313v0.492h0.574v-0.903h-0.164v-2.708zM106.585 22.728h-0.903c0.164-0.246 0.164-0.574 0.164-0.903v-1.395h0.738v2.297z"></path>
<path d="M111.426 21.169c-0.164 0.41-0.328 0.738-0.41 1.313v0c0-0.328 0.082-0.574 0.082-0.903s0-0.656 0-0.903v-0.656h-0.574v3.2h0.656l0.492-1.149c0.164-0.41 0.328-0.738 0.41-1.313v0c0 0.246-0.082 0.574-0.082 0.903s0 0.656 0 0.903v0.574h0.574v-3.2h-0.656l-0.492 1.231z"></path>
<path d="M77.046 20.020h0.574v3.2h-0.574v-3.2z"></path>
<path d="M75.733 21.333h-0.41v-1.313h-0.574v3.2h1.067c0.656 0 0.903-0.41 0.903-0.985 0-0.246-0.082-0.574-0.328-0.738-0.164-0.164-0.41-0.246-0.656-0.164zM75.569 22.728h-0.246v-0.985h0.328c0.246 0 0.41 0.082 0.41 0.492 0.082 0.41-0.082 0.492-0.492 0.492z"></path>
<path d="M117.169 21.251h-0.82v-1.231h-0.656v3.2h0.656v-1.477h0.82v1.477h0.574v-3.2h-0.574z"></path>
<path d="M120.944 23.221h0.656v-2.79h1.149v-0.41h-1.805z"></path>
</svg>
