<!-- Generated by IcoMoon.io -->
<svg version="1.1" xmlns="http://www.w3.org/2000/svg" width="32" height="32" viewBox="0 0 32 32">
<title>settingsIco</title>
<path d="M30.133 11.467c-0.533 0-1.333-0.267-1.867-0.8-0.533-0.267-1.067-0.8-1.333-1.333s-0.533-1.333-0.533-1.867c0-0.533 0-1.333 0.267-1.867s0.267-0.8 0-1.333c0-0.533-0.267-0.8-0.533-1.067-1.333-1.333-2.933-2.133-4.8-2.933-0.267-0.267-0.8-0.267-1.333 0-0.267 0-0.8 0.267-1.067 0.8s-0.8 1.067-1.333 1.333c-0.533 0.267-1.067 0.533-1.867 0.533s-1.333-0.267-1.867-0.533c-0.533-0.267-1.067-0.8-1.333-1.333-0.267-0.267-0.533-0.533-1.067-0.8-0.533 0-0.8 0-1.333 0-1.6 0.533-2.933 1.6-4.267 2.667-0.267 0.267-0.533 0.533-0.8 1.067 0 0.533 0 0.8 0 1.333 0.267 0.533 0.267 1.333 0.267 2.133s-0.267 1.333-0.533 1.867-0.8 1.067-1.333 1.333c-0.533 0.267-1.067 0.533-1.867 0.533-0.533 0-0.8 0.267-1.067 0.533s-0.533 0.8-0.533 1.067c-0.267 1.067-0.267 2.133-0.267 3.2 0 0.8 0 1.867 0.267 2.667 0 0.533 0.267 0.8 0.533 1.067s0.8 0.533 1.067 0.533c0.533 0 1.333 0.267 1.867 0.8 0.533 0.267 1.067 0.8 1.333 1.6 0.267 0.533 0.533 1.333 0.533 1.867 0 0.8 0 1.333-0.267 2.133-0.267 0.533-0.267 0.8 0 1.333s0.267 0.8 0.8 1.067c1.333 1.333 2.933 2.133 4.533 2.933 0.267 0 0.533 0 0.8 0s0.533 0 0.8-0.267c0.267-0.267 0.533-0.267 0.8-0.533 0.267-0.533 0.8-1.067 1.6-1.333 0.533-0.267 1.333-0.533 1.867-0.533s1.333 0.267 1.867 0.533c0.533 0.267 1.067 0.8 1.6 1.333 0.267 0.267 0.533 0.533 1.067 0.8 0.533 0 0.8 0 1.333 0 1.6-0.533 2.933-1.6 4.267-2.667 0.267-0.267 0.533-0.533 0.533-1.067s0-0.8 0-1.333c-0.267-0.533-0.267-1.333-0.267-1.867 0-0.8 0.267-1.333 0.533-1.867s0.8-1.067 1.333-1.333c0.533-0.267 1.067-0.533 1.867-0.8 0.533 0 0.8-0.267 1.067-0.533s0.533-0.8 0.533-1.067c0.267-1.067 0.267-1.867 0.267-2.933s0-2.133-0.267-2.933c0-0.533-0.267-0.8-0.533-1.067-0.533-0.8-1.067-1.067-1.333-1.067zM21.333 16c0 1.067-0.267 2.133-0.8 3.2-0.533 0.8-1.333 1.6-2.4 2.133s-2.133 0.533-3.2 0.267c-1.067-0.267-1.867-0.8-2.667-1.6s-1.333-1.867-1.333-2.933 0-2.133 0.267-3.2c0.533-1.067 1.067-1.867 1.867-2.4s1.867-1.067 2.933-1.067c1.333 0 2.667 0.533 3.733 1.6s1.6 2.667 1.6 4z"></path>
</svg>
